include "./src/include/hUGE.inc"

; GB-Studio-Community Assets: Great Melody 02 (Channel 1 is reserved for SFX, so all music was placed into Channel 2.)
SECTION "Game Level BGM", ROMX

GameLevelBGM::
db 7
dw order_cnt
dw order1, order2, order3, order4
dw duty_instruments, wave_instruments, noise_instruments
dw routines
dw waves

order_cnt: db 28
order1: dw P0,P10,P20,P30,P40,P50,P60,P70,P80,P90,P100,P110,P120,P130
order2: dw P1,P11,P21,P31,P41,P51,P61,P71,P81,P91,P101,P111,P121,P131
order3: dw P2,P12,P22,P32,P42,P52,P62,P72,P82,P92,P102,P112,P122,P132
order4: dw P3,P13,P23,P33,P43,P53,P63,P73,P83,P93,P103,P113,P123,P133

P0:
 dn ___,0,$000
 dn ___,0,$000
 dn ___,0,$000
 dn ___,0,$000
 dn ___,0,$000
 dn ___,0,$000
 dn ___,0,$000
 dn ___,0,$000
 dn ___,0,$000
 dn ___,0,$000
 dn ___,0,$000
 dn ___,0,$000
 dn ___,0,$000
 dn ___,0,$000
 dn ___,0,$000
 dn ___,0,$000
 dn ___,0,$000
 dn ___,0,$000
 dn ___,0,$000
 dn ___,0,$000
 dn ___,0,$000
 dn ___,0,$000
 dn ___,0,$000
 dn ___,0,$000
 dn ___,0,$000
 dn ___,0,$000
 dn ___,0,$000
 dn ___,0,$000
 dn ___,0,$000
 dn ___,0,$000
 dn ___,0,$000
 dn ___,0,$000
 dn ___,0,$000
 dn ___,0,$000
 dn ___,0,$000
 dn ___,0,$000
 dn ___,0,$000
 dn ___,0,$000
 dn ___,0,$000
 dn ___,0,$000
 dn ___,0,$000
 dn ___,0,$000
 dn ___,0,$000
 dn ___,0,$000
 dn ___,0,$000
 dn ___,0,$000
 dn ___,0,$000
 dn ___,0,$000
 dn ___,0,$000
 dn ___,0,$000
 dn ___,0,$000
 dn ___,0,$000
 dn ___,0,$000
 dn ___,0,$000
 dn ___,0,$000
 dn ___,0,$000
 dn ___,0,$000
 dn ___,0,$000
 dn ___,0,$000
 dn ___,0,$000
 dn ___,0,$000
 dn ___,0,$000
 dn ___,0,$000
 dn ___,0,$000

P1:
 dn A_5,4,$C03
 dn A_5,4,$C01
 dn E_6,4,$C03
 dn E_6,4,$C01
 dn A_6,4,$C03
 dn A_6,4,$C01
 dn E_5,4,$C03
 dn E_5,4,$C01
 dn A_5,4,$C03
 dn A_5,4,$C01
 dn E_6,4,$C03
 dn E_6,4,$C01
 dn A_4,4,$C03
 dn A_4,4,$C01
 dn E_5,4,$C03
 dn E_5,4,$C01
 dn A_5,4,$C03
 dn A_5,4,$C01
 dn A_5,4,$C03
 dn A_5,4,$C01
 dn E_6,4,$C03
 dn E_6,4,$C01
 dn A_6,4,$C03
 dn A_6,4,$C01
 dn E_5,4,$C03
 dn E_5,4,$C01
 dn A_5,4,$C03
 dn A_5,4,$C01
 dn E_6,4,$C03
 dn E_6,4,$C01
 dn A_6,4,$C03
 dn A_6,4,$C01
 dn A_5,4,$C03
 dn A_5,4,$C01
 dn E_6,4,$C03
 dn E_6,4,$C01
 dn A_6,4,$C03
 dn A_6,4,$C01
 dn E_5,4,$C03
 dn E_5,4,$C01
 dn A_5,4,$C03
 dn A_5,4,$C01
 dn E_6,4,$C03
 dn E_6,4,$C01
 dn A_4,4,$C03
 dn A_4,4,$C01
 dn E_5,4,$C03
 dn E_5,4,$C01
 dn A_5,4,$C03
 dn A_5,4,$C01
 dn A_5,4,$C03
 dn A_5,4,$C01
 dn E_6,4,$C03
 dn E_6,4,$C01
 dn A_6,4,$C03
 dn A_6,4,$C01
 dn E_5,4,$C03
 dn E_5,4,$C01
 dn A_5,4,$C03
 dn A_5,4,$C01
 dn E_6,4,$C03
 dn E_6,4,$C01
 dn A_6,4,$C03
 dn A_6,4,$C01

P2:
 dn D_5,15,$C0F
 dn D_5,15,$C07
 dn D_5,15,$C03
 dn ___,0,$000
 dn D_5,15,$C0F
 dn D_5,15,$C07
 dn D_5,15,$C03
 dn ___,0,$000
 dn D_5,15,$C00
 dn ___,0,$000
 dn ___,0,$000
 dn ___,0,$000
 dn D_5,15,$C00
 dn ___,0,$000
 dn D_5,15,$C0F
 dn D_5,15,$C07
 dn F_5,15,$C0F
 dn F_5,15,$C07
 dn F_5,15,$C03
 dn ___,0,$000
 dn F_5,15,$C0F
 dn F_5,15,$C07
 dn F_5,15,$C03
 dn ___,0,$000
 dn F_5,15,$C00
 dn ___,0,$000
 dn C_5,15,$C0F
 dn C_5,15,$C07
 dn C_5,15,$C03
 dn ___,0,$000
 dn D_5,15,$C0F
 dn D_5,15,$C07
 dn G_5,15,$C0F
 dn G_5,15,$C07
 dn G_5,15,$C03
 dn ___,0,$000
 dn G_5,15,$C0F
 dn G_5,15,$C07
 dn G_5,15,$C03
 dn ___,0,$000
 dn ___,0,$000
 dn ___,0,$000
 dn G_5,15,$C00
 dn ___,0,$000
 dn ___,0,$E00
 dn ___,0,$000
 dn G_5,15,$C00
 dn ___,0,$000
 dn G_5,15,$C00
 dn ___,0,$000
 dn ___,0,$E00
 dn ___,0,$000
 dn G_5,15,$C00
 dn ___,0,$000
 dn G_5,15,$C00
 dn ___,0,$000
 dn ___,0,$E00
 dn ___,0,$000
 dn G_5,15,$C00
 dn ___,0,$000
 dn G_5,15,$C08
 dn ___,0,$000
 dn F_5,15,$C0F
 dn F_5,15,$C07

P3:
 dn ___,0,$F06
 dn ___,0,$000
 dn ___,0,$000
 dn ___,0,$000
 dn ___,0,$000
 dn ___,0,$000
 dn ___,0,$000
 dn ___,0,$000
 dn ___,0,$000
 dn ___,0,$000
 dn ___,0,$000
 dn ___,0,$000
 dn ___,0,$000
 dn ___,0,$000
 dn ___,0,$000
 dn ___,0,$000
 dn ___,0,$000
 dn ___,0,$000
 dn ___,0,$000
 dn ___,0,$000
 dn ___,0,$000
 dn ___,0,$000
 dn ___,0,$000
 dn ___,0,$000
 dn ___,0,$000
 dn ___,0,$000
 dn ___,0,$000
 dn ___,0,$000
 dn ___,0,$000
 dn ___,0,$000
 dn ___,0,$000
 dn ___,0,$000
 dn ___,0,$000
 dn ___,0,$000
 dn ___,0,$000
 dn ___,0,$000
 dn ___,0,$000
 dn ___,0,$000
 dn ___,0,$000
 dn ___,0,$000
 dn ___,0,$000
 dn ___,0,$000
 dn ___,0,$000
 dn ___,0,$000
 dn ___,0,$000
 dn ___,0,$000
 dn ___,0,$000
 dn ___,0,$000
 dn ___,0,$000
 dn ___,0,$000
 dn ___,0,$000
 dn ___,0,$000
 dn ___,0,$000
 dn ___,0,$000
 dn ___,0,$000
 dn ___,0,$000
 dn ___,0,$000
 dn ___,0,$000
 dn ___,0,$000
 dn ___,0,$000
 dn ___,0,$000
 dn ___,0,$000
 dn ___,0,$000
 dn ___,0,$000

P10:
 dn A_5,4,$C03
 dn A_5,4,$C01
 dn E_6,4,$C03
 dn E_6,4,$C01
 dn A_6,4,$C03
 dn A_6,4,$C01
 dn E_5,4,$C03
 dn E_5,4,$C01
 dn A_5,4,$C03
 dn A_5,4,$C01
 dn E_6,4,$C03
 dn E_6,4,$C01
 dn A_4,4,$C03
 dn A_4,4,$C01
 dn E_5,4,$C03
 dn E_5,4,$C01
 dn A_5,4,$C03
 dn A_5,4,$C01
 dn A_5,4,$C03
 dn A_5,4,$C01
 dn E_6,4,$C03
 dn E_6,4,$C01
 dn A_6,4,$C03
 dn A_6,4,$C01
 dn E_5,4,$C03
 dn E_5,4,$C01
 dn A_5,4,$C03
 dn A_5,4,$C01
 dn E_6,4,$C03
 dn E_6,4,$C01
 dn A_6,4,$C03
 dn A_6,4,$C01
 dn A_5,4,$C03
 dn A_5,4,$C01
 dn E_6,4,$C03
 dn E_6,4,$C01
 dn A_6,4,$C03
 dn A_6,4,$C01
 dn E_5,4,$C03
 dn E_5,4,$C01
 dn A_5,4,$C03
 dn A_5,4,$C01
 dn E_6,4,$C03
 dn E_6,4,$C01
 dn A_4,4,$C03
 dn A_4,4,$C01
 dn E_5,4,$C03
 dn E_5,4,$C01
 dn A_5,4,$C03
 dn A_5,4,$C01
 dn A_5,4,$C03
 dn A_5,4,$C01
 dn E_6,4,$C03
 dn E_6,4,$C01
 dn A_6,4,$C03
 dn A_6,4,$C01
 dn E_5,4,$C03
 dn E_5,4,$C01
 dn A_5,4,$C03
 dn A_5,4,$C01
 dn E_6,4,$C03
 dn E_6,4,$C01
 dn A_6,4,$C03
 dn A_6,4,$C01

P11:
 dn ___,0,$000
 dn ___,0,$000
 dn ___,0,$000
 dn ___,0,$000
 dn ___,0,$000
 dn ___,0,$000
 dn ___,0,$000
 dn ___,0,$000
 dn ___,0,$000
 dn ___,0,$000
 dn ___,0,$000
 dn ___,0,$000
 dn ___,0,$000
 dn ___,0,$000
 dn ___,0,$000
 dn ___,0,$000
 dn ___,0,$000
 dn ___,0,$000
 dn ___,0,$000
 dn ___,0,$000
 dn ___,0,$000
 dn ___,0,$000
 dn ___,0,$000
 dn ___,0,$000
 dn ___,0,$000
 dn ___,0,$000
 dn ___,0,$000
 dn ___,0,$000
 dn ___,0,$000
 dn ___,0,$000
 dn ___,0,$000
 dn ___,0,$000
 dn ___,0,$000
 dn ___,0,$000
 dn ___,0,$000
 dn ___,0,$000
 dn ___,0,$000
 dn ___,0,$000
 dn ___,0,$000
 dn ___,0,$000
 dn ___,0,$000
 dn ___,0,$000
 dn ___,0,$000
 dn ___,0,$000
 dn ___,0,$000
 dn ___,0,$000
 dn ___,0,$000
 dn ___,0,$000
 dn ___,0,$000
 dn ___,0,$000
 dn ___,0,$000
 dn ___,0,$000
 dn ___,0,$000
 dn ___,0,$000
 dn ___,0,$000
 dn ___,0,$000
 dn ___,0,$000
 dn ___,0,$000
 dn ___,0,$000
 dn ___,0,$000
 dn ___,0,$000
 dn ___,0,$000
 dn ___,0,$000
 dn ___,0,$000

P12:
 dn D_5,15,$C0F
 dn D_5,15,$C07
 dn D_5,15,$C03
 dn ___,0,$000
 dn D_5,15,$C0F
 dn D_5,15,$C07
 dn D_5,15,$C03
 dn ___,0,$000
 dn D_5,15,$C00
 dn ___,0,$000
 dn ___,0,$000
 dn ___,0,$000
 dn C_5,15,$C0F
 dn C_5,15,$C07
 dn D_5,15,$C0F
 dn D_5,15,$C07
 dn F_5,15,$C0F
 dn F_5,15,$C07
 dn F_5,15,$C03
 dn ___,0,$000
 dn F_5,15,$C0F
 dn F_5,15,$C07
 dn F_5,15,$C03
 dn ___,0,$000
 dn F_5,15,$C00
 dn ___,0,$000
 dn C_5,15,$C0F
 dn C_5,15,$C07
 dn C_5,15,$C03
 dn ___,0,$000
 dn D_5,15,$C0F
 dn D_5,15,$C07
 dn A#4,15,$C0F
 dn A#4,15,$C07
 dn B_4,15,$C0F
 dn B_4,15,$C07
 dn G_5,15,$C0F
 dn G_5,15,$C07
 dn G_5,15,$C03
 dn ___,0,$000
 dn ___,0,$000
 dn ___,0,$E00
 dn G_5,15,$C00
 dn ___,0,$000
 dn ___,0,$000
 dn ___,0,$000
 dn ___,0,$000
 dn ___,0,$E00
 dn G_5,15,$C00
 dn ___,0,$000
 dn ___,0,$000
 dn ___,0,$000
 dn G_5,15,$C0F
 dn G_5,15,$C07
 dn A_5,15,$C0F
 dn A_5,15,$C07
 dn G_5,15,$C03
 dn ___,0,$000
 dn A_5,15,$C01
 dn ___,0,$000
 dn G_5,15,$C00
 dn ___,0,$000
 dn A_5,15,$C00
 dn ___,0,$000

P13:
 dn ___,0,$000
 dn ___,0,$000
 dn ___,0,$000
 dn ___,0,$000
 dn ___,0,$000
 dn ___,0,$000
 dn ___,0,$000
 dn ___,0,$000
 dn ___,0,$000
 dn ___,0,$000
 dn ___,0,$000
 dn ___,0,$000
 dn ___,0,$000
 dn ___,0,$000
 dn ___,0,$000
 dn ___,0,$000
 dn ___,0,$000
 dn ___,0,$000
 dn ___,0,$000
 dn ___,0,$000
 dn ___,0,$000
 dn ___,0,$000
 dn ___,0,$000
 dn ___,0,$000
 dn ___,0,$000
 dn ___,0,$000
 dn ___,0,$000
 dn ___,0,$000
 dn ___,0,$000
 dn ___,0,$000
 dn ___,0,$000
 dn ___,0,$000
 dn ___,0,$000
 dn ___,0,$000
 dn ___,0,$000
 dn ___,0,$000
 dn ___,0,$000
 dn ___,0,$000
 dn ___,0,$000
 dn ___,0,$000
 dn ___,0,$000
 dn ___,0,$000
 dn ___,0,$000
 dn ___,0,$000
 dn ___,0,$000
 dn ___,0,$000
 dn ___,0,$000
 dn ___,0,$000
 dn ___,0,$000
 dn ___,0,$000
 dn ___,0,$000
 dn ___,0,$000
 dn ___,0,$000
 dn ___,0,$000
 dn ___,0,$000
 dn ___,0,$000
 dn ___,0,$000
 dn ___,0,$000
 dn ___,0,$000
 dn ___,0,$000
 dn ___,0,$000
 dn ___,0,$000
 dn ___,0,$000
 dn ___,0,$000

P20:
 dn A_5,4,$C03
 dn A_5,4,$C01
 dn E_6,4,$C03
 dn E_6,4,$C01
 dn A_6,4,$C03
 dn A_6,4,$C01
 dn E_5,4,$C03
 dn E_5,4,$C01
 dn A_5,4,$C03
 dn A_5,4,$C01
 dn E_6,4,$C03
 dn E_6,4,$C01
 dn A_4,4,$C03
 dn A_4,4,$C01
 dn E_5,4,$C03
 dn E_5,4,$C01
 dn A_5,4,$C03
 dn A_5,4,$C01
 dn A_5,4,$C03
 dn A_5,4,$C01
 dn E_6,4,$C03
 dn E_6,4,$C01
 dn A_6,4,$C03
 dn A_6,4,$C01
 dn E_5,4,$C03
 dn E_5,4,$C01
 dn A_5,4,$C03
 dn A_5,4,$C01
 dn E_6,4,$C03
 dn E_6,4,$C01
 dn A_6,4,$C03
 dn A_6,4,$C01
 dn A_5,4,$C03
 dn A_5,4,$C01
 dn E_6,4,$C03
 dn E_6,4,$C01
 dn A_6,4,$C03
 dn A_6,4,$C01
 dn E_5,4,$C03
 dn E_5,4,$C01
 dn A_5,4,$C03
 dn A_5,4,$C01
 dn E_6,4,$C03
 dn E_6,4,$C01
 dn A_4,4,$C03
 dn A_4,4,$C01
 dn E_5,4,$C03
 dn E_5,4,$C01
 dn A_5,4,$C03
 dn A_5,4,$C01
 dn A_5,4,$C03
 dn A_5,4,$C01
 dn E_6,4,$C03
 dn E_6,4,$C01
 dn A_6,4,$C03
 dn A_6,4,$C01
 dn E_5,4,$C03
 dn E_5,4,$C01
 dn A_5,4,$C03
 dn A_5,4,$C01
 dn E_6,4,$C03
 dn E_6,4,$C01
 dn A_6,4,$C03
 dn A_6,4,$C01

P21:
 dn C_5,4,$C0F
 dn ___,0,$000
 dn ___,0,$000
 dn ___,0,$000
 dn ___,0,$000
 dn ___,0,$000
 dn ___,0,$000
 dn ___,0,$000
 dn ___,0,$000
 dn ___,0,$000
 dn ___,0,$000
 dn ___,0,$000
 dn D_5,4,$C0F
 dn ___,0,$000
 dn ___,0,$000
 dn D_5,4,$C03
 dn C_5,4,$C0F
 dn ___,0,$000
 dn ___,0,$000
 dn ___,0,$000
 dn ___,0,$000
 dn ___,0,$000
 dn ___,0,$000
 dn ___,0,$000
 dn B_4,4,$C0F
 dn ___,0,$000
 dn B_4,4,$C07
 dn ___,0,$000
 dn C_5,4,$C0F
 dn ___,0,$000
 dn C_5,4,$C07
 dn ___,0,$000
 dn A_4,4,$C0F
 dn ___,0,$000
 dn ___,0,$000
 dn ___,0,$000
 dn ___,0,$000
 dn ___,0,$000
 dn ___,0,$000
 dn ___,0,$000
 dn ___,0,$000
 dn ___,0,$000
 dn ___,0,$000
 dn ___,0,$000
 dn ___,0,$000
 dn ___,0,$000
 dn ___,0,$000
 dn ___,0,$000
 dn A_4,4,$C07
 dn ___,0,$000
 dn A_4,4,$C05
 dn ___,0,$000
 dn A_4,4,$C05
 dn ___,0,$000
 dn A_4,4,$C04
 dn ___,0,$000
 dn A_4,4,$C04
 dn ___,0,$000
 dn A_4,4,$C03
 dn A_4,4,$C01
 dn A_4,4,$C01
 dn A_4,4,$C00
 dn A_4,4,$C00
 dn ___,0,$E00

P22:
 dn D_5,15,$C0F
 dn D_5,15,$C07
 dn D_5,15,$C03
 dn ___,0,$000
 dn D_5,15,$C0F
 dn D_5,15,$C07
 dn D_5,15,$C03
 dn ___,0,$000
 dn D_5,15,$C00
 dn ___,0,$000
 dn ___,0,$000
 dn ___,0,$000
 dn D_5,15,$C00
 dn ___,0,$000
 dn D_5,15,$C0F
 dn D_5,15,$C07
 dn F_5,15,$C0F
 dn F_5,15,$C07
 dn F_5,15,$C03
 dn ___,0,$000
 dn F_5,15,$C0F
 dn F_5,15,$C07
 dn F_5,15,$C03
 dn ___,0,$000
 dn F_5,15,$C00
 dn ___,0,$000
 dn C_5,15,$C0F
 dn C_5,15,$C07
 dn C_5,15,$C03
 dn ___,0,$000
 dn D_5,15,$C0F
 dn D_5,15,$C07
 dn G_5,15,$C0F
 dn G_5,15,$C07
 dn G_5,15,$C03
 dn ___,0,$000
 dn G_5,15,$C0F
 dn G_5,15,$C07
 dn G_5,15,$C03
 dn ___,0,$000
 dn ___,0,$000
 dn ___,0,$000
 dn G_5,15,$C00
 dn ___,0,$000
 dn ___,0,$E00
 dn ___,0,$000
 dn G_5,15,$C00
 dn ___,0,$000
 dn G_5,15,$C00
 dn ___,0,$000
 dn ___,0,$E00
 dn ___,0,$000
 dn G_5,15,$C00
 dn ___,0,$000
 dn G_5,15,$C00
 dn ___,0,$000
 dn ___,0,$E00
 dn ___,0,$000
 dn G_5,15,$C00
 dn ___,0,$000
 dn G_5,15,$C08
 dn ___,0,$000
 dn F_5,15,$C0F
 dn F_5,15,$C07

P23:
 dn ___,0,$000
 dn ___,0,$000
 dn ___,0,$000
 dn ___,0,$000
 dn ___,0,$000
 dn ___,0,$000
 dn ___,0,$000
 dn ___,0,$000
 dn ___,0,$000
 dn ___,0,$000
 dn ___,0,$000
 dn ___,0,$000
 dn ___,0,$000
 dn ___,0,$000
 dn ___,0,$000
 dn ___,0,$000
 dn ___,0,$000
 dn ___,0,$000
 dn ___,0,$000
 dn ___,0,$000
 dn ___,0,$000
 dn ___,0,$000
 dn ___,0,$000
 dn ___,0,$000
 dn ___,0,$000
 dn ___,0,$000
 dn ___,0,$000
 dn ___,0,$000
 dn ___,0,$000
 dn ___,0,$000
 dn ___,0,$000
 dn ___,0,$000
 dn ___,0,$000
 dn ___,0,$000
 dn ___,0,$000
 dn ___,0,$000
 dn ___,0,$000
 dn ___,0,$000
 dn ___,0,$000
 dn ___,0,$000
 dn ___,0,$000
 dn ___,0,$000
 dn ___,0,$000
 dn ___,0,$000
 dn ___,0,$000
 dn ___,0,$000
 dn ___,0,$000
 dn ___,0,$000
 dn ___,0,$000
 dn ___,0,$000
 dn ___,0,$000
 dn ___,0,$000
 dn ___,0,$000
 dn ___,0,$000
 dn ___,0,$000
 dn ___,0,$000
 dn ___,0,$000
 dn ___,0,$000
 dn ___,0,$000
 dn ___,0,$000
 dn ___,0,$000
 dn ___,0,$000
 dn ___,0,$000
 dn ___,0,$000

P30:
 dn A_5,4,$C03
 dn A_5,4,$C01
 dn E_6,4,$C03
 dn E_6,4,$C01
 dn A_6,4,$C03
 dn A_6,4,$C01
 dn E_5,4,$C03
 dn E_5,4,$C01
 dn A_5,4,$C03
 dn A_5,4,$C01
 dn E_6,4,$C03
 dn E_6,4,$C01
 dn A_4,4,$C03
 dn A_4,4,$C01
 dn E_5,4,$C03
 dn E_5,4,$C01
 dn A_5,4,$C03
 dn A_5,4,$C01
 dn A_5,4,$C03
 dn A_5,4,$C01
 dn E_6,4,$C03
 dn E_6,4,$C01
 dn A_6,4,$C03
 dn A_6,4,$C01
 dn E_5,4,$C03
 dn E_5,4,$C01
 dn A_5,4,$C03
 dn A_5,4,$C01
 dn E_6,4,$C03
 dn E_6,4,$C01
 dn A_6,4,$C03
 dn A_6,4,$C01
 dn A_5,4,$C03
 dn A_5,4,$C01
 dn E_6,4,$C03
 dn E_6,4,$C01
 dn A_6,4,$C03
 dn A_6,4,$C01
 dn E_5,4,$C03
 dn E_5,4,$C01
 dn A_5,4,$C03
 dn A_5,4,$C01
 dn E_6,4,$C03
 dn E_6,4,$C01
 dn A_4,4,$C03
 dn A_4,4,$C01
 dn E_5,4,$C03
 dn E_5,4,$C01
 dn A_5,4,$C03
 dn A_5,4,$C01
 dn A_5,4,$C03
 dn A_5,4,$C01
 dn E_6,4,$C03
 dn E_6,4,$C01
 dn A_6,4,$C03
 dn A_6,4,$C01
 dn E_5,4,$C03
 dn E_5,4,$C01
 dn A_5,4,$C03
 dn A_5,4,$C01
 dn E_6,4,$C03
 dn E_6,4,$C01
 dn A_6,4,$C03
 dn A_6,4,$C01

P31:
 dn C_5,4,$C0F
 dn ___,0,$000
 dn ___,0,$000
 dn ___,0,$000
 dn ___,0,$000
 dn ___,0,$000
 dn ___,0,$000
 dn ___,0,$000
 dn ___,0,$000
 dn ___,0,$000
 dn ___,0,$000
 dn ___,0,$000
 dn D_5,4,$C0F
 dn ___,0,$000
 dn D_5,4,$C07
 dn D_5,4,$C03
 dn C_5,4,$C0F
 dn ___,0,$000
 dn ___,0,$000
 dn ___,0,$000
 dn ___,0,$000
 dn ___,0,$000
 dn C_5,4,$C07
 dn ___,0,$000
 dn B_4,4,$C0F
 dn B_4,4,$C07
 dn C_5,4,$C0F
 dn ___,0,$000
 dn ___,0,$000
 dn ___,0,$000
 dn A_4,4,$C0F
 dn A_4,4,$C07
 dn F_4,4,$C0F
 dn ___,0,$000
 dn F#4,4,$C0F
 dn ___,0,$000
 dn D_5,4,$C0F
 dn ___,0,$000
 dn ___,0,$000
 dn ___,0,$000
 dn ___,0,$000
 dn ___,0,$000
 dn ___,0,$000
 dn ___,0,$000
 dn ___,0,$000
 dn ___,0,$000
 dn ___,0,$000
 dn ___,0,$000
 dn D_5,4,$C07
 dn ___,0,$000
 dn D_5,4,$C05
 dn ___,0,$000
 dn D_5,4,$C05
 dn ___,0,$000
 dn D_5,4,$C04
 dn ___,0,$000
 dn D_5,4,$C04
 dn ___,0,$000
 dn D_5,4,$C03
 dn D_5,4,$C01
 dn D_5,4,$C01
 dn D_5,4,$C00
 dn D_5,4,$C00
 dn ___,0,$E00

P32:
 dn D_5,15,$C0F
 dn D_5,15,$C07
 dn D_5,15,$C03
 dn ___,0,$000
 dn D_5,15,$C0F
 dn D_5,15,$C07
 dn D_5,15,$C03
 dn ___,0,$000
 dn D_5,15,$C00
 dn ___,0,$000
 dn ___,0,$000
 dn ___,0,$000
 dn C_5,15,$C07
 dn ___,0,$000
 dn D_5,15,$C0F
 dn D_5,15,$C07
 dn F_5,15,$C0F
 dn F_5,15,$C07
 dn F_5,15,$C03
 dn ___,0,$000
 dn F_5,15,$C0F
 dn F_5,15,$C07
 dn F_5,15,$C03
 dn ___,0,$000
 dn F_5,15,$C00
 dn ___,0,$000
 dn C_5,15,$C0F
 dn C_5,15,$C07
 dn C_5,15,$C03
 dn ___,0,$000
 dn D_5,15,$C0F
 dn D_5,15,$C07
 dn A#4,15,$C0F
 dn A#4,15,$C07
 dn B_4,15,$C0F
 dn B_4,15,$C07
 dn G_5,15,$C0F
 dn G_5,15,$C07
 dn G_5,15,$C03
 dn ___,0,$000
 dn ___,0,$000
 dn ___,0,$E00
 dn G_5,15,$C00
 dn ___,0,$000
 dn ___,0,$000
 dn ___,0,$000
 dn ___,0,$000
 dn ___,0,$E00
 dn G_5,15,$C00
 dn ___,0,$000
 dn ___,0,$000
 dn ___,0,$000
 dn G_5,15,$C0F
 dn G_5,15,$C07
 dn A_5,15,$C0F
 dn A_5,15,$C07
 dn G_5,15,$C03
 dn ___,0,$000
 dn A_5,15,$C01
 dn ___,0,$000
 dn G_5,15,$C00
 dn ___,0,$000
 dn A_5,15,$C00
 dn ___,0,$000

P33:
 dn ___,0,$000
 dn ___,0,$000
 dn ___,0,$000
 dn ___,0,$000
 dn ___,0,$000
 dn ___,0,$000
 dn ___,0,$000
 dn ___,0,$000
 dn ___,0,$000
 dn ___,0,$000
 dn ___,0,$000
 dn ___,0,$000
 dn ___,0,$000
 dn ___,0,$000
 dn ___,0,$000
 dn ___,0,$000
 dn ___,0,$000
 dn ___,0,$000
 dn ___,0,$000
 dn ___,0,$000
 dn ___,0,$000
 dn ___,0,$000
 dn ___,0,$000
 dn ___,0,$000
 dn ___,0,$000
 dn ___,0,$000
 dn ___,0,$000
 dn ___,0,$000
 dn ___,0,$000
 dn ___,0,$000
 dn ___,0,$000
 dn ___,0,$000
 dn ___,0,$000
 dn ___,0,$000
 dn ___,0,$000
 dn ___,0,$000
 dn ___,0,$000
 dn ___,0,$000
 dn ___,0,$000
 dn ___,0,$000
 dn ___,0,$000
 dn ___,0,$000
 dn ___,0,$000
 dn ___,0,$000
 dn ___,0,$000
 dn ___,0,$000
 dn ___,0,$000
 dn ___,0,$000
 dn ___,0,$000
 dn ___,0,$000
 dn ___,0,$000
 dn ___,0,$000
 dn ___,0,$000
 dn ___,0,$000
 dn ___,0,$000
 dn ___,0,$000
 dn ___,0,$000
 dn ___,0,$000
 dn ___,0,$000
 dn ___,0,$000
 dn ___,0,$000
 dn ___,0,$000
 dn ___,0,$000
 dn ___,0,$000

P40:
 dn A_5,4,$C03
 dn A_5,4,$C01
 dn E_6,4,$C03
 dn E_6,4,$C01
 dn A_6,4,$C03
 dn A_6,4,$C01
 dn E_5,4,$C03
 dn E_5,4,$C01
 dn A_5,4,$C03
 dn A_5,4,$C01
 dn E_6,4,$C03
 dn E_6,4,$C01
 dn A_4,4,$C03
 dn A_4,4,$C01
 dn E_5,4,$C03
 dn E_5,4,$C01
 dn A_5,4,$C03
 dn A_5,4,$C01
 dn A_5,4,$C03
 dn A_5,4,$C01
 dn E_6,4,$C03
 dn E_6,4,$C01
 dn A_6,4,$C03
 dn A_6,4,$C01
 dn E_5,4,$C03
 dn E_5,4,$C01
 dn A_5,4,$C03
 dn A_5,4,$C01
 dn E_6,4,$C03
 dn E_6,4,$C01
 dn A_6,4,$C03
 dn A_6,4,$C01
 dn A_5,4,$C03
 dn A_5,4,$C01
 dn E_6,4,$C03
 dn E_6,4,$C01
 dn A_6,4,$C03
 dn A_6,4,$C01
 dn E_5,4,$C03
 dn E_5,4,$C01
 dn A_5,4,$C03
 dn A_5,4,$C01
 dn E_6,4,$C03
 dn E_6,4,$C01
 dn A_4,4,$C03
 dn A_4,4,$C01
 dn E_5,4,$C03
 dn E_5,4,$C01
 dn A_5,4,$C03
 dn A_5,4,$C01
 dn A_5,4,$C03
 dn A_5,4,$C01
 dn E_6,4,$C03
 dn E_6,4,$C01
 dn A_6,4,$C03
 dn A_6,4,$C01
 dn E_5,4,$C03
 dn E_5,4,$C01
 dn A_5,4,$C03
 dn A_5,4,$C01
 dn E_6,4,$C03
 dn E_6,4,$C01
 dn A_6,4,$C03
 dn A_6,4,$C01

P41:
 dn G_4,4,$C0F
 dn ___,0,$000
 dn G_4,4,$C08
 dn ___,0,$000
 dn G_4,4,$C07
 dn ___,0,$000
 dn G_4,4,$C04
 dn ___,0,$000
 dn G_4,4,$C03
 dn ___,0,$000
 dn G_4,4,$C01
 dn ___,0,$000
 dn E_4,4,$C0F
 dn ___,0,$000
 dn E_4,4,$C08
 dn ___,0,$000
 dn A_4,4,$C0F
 dn ___,0,$000
 dn A_4,4,$C08
 dn ___,0,$000
 dn A_4,4,$C07
 dn ___,0,$000
 dn A_4,4,$C04
 dn ___,0,$000
 dn A_4,4,$C03
 dn ___,0,$000
 dn A_4,4,$C01
 dn ___,0,$000
 dn E_4,4,$C0F
 dn ___,0,$000
 dn E_4,4,$C08
 dn ___,0,$000
 dn F#4,4,$C0F
 dn ___,0,$000
 dn F#4,4,$C08
 dn ___,0,$000
 dn F#4,4,$C07
 dn ___,0,$000
 dn F#4,4,$C04
 dn ___,0,$000
 dn F#4,4,$C03
 dn ___,0,$000
 dn F#4,4,$C01
 dn ___,0,$000
 dn G_4,4,$C0F
 dn ___,0,$000
 dn F#4,4,$C0F
 dn ___,0,$000
 dn F#4,4,$C08
 dn ___,0,$000
 dn F#4,4,$C07
 dn ___,0,$000
 dn F#4,4,$C04
 dn ___,0,$000
 dn F#4,4,$C03
 dn ___,0,$000
 dn F#4,4,$C01
 dn ___,0,$000
 dn ___,0,$000
 dn ___,0,$000
 dn ___,0,$000
 dn ___,0,$000
 dn ___,0,$000
 dn ___,0,$000

P42:
 dn D_5,15,$C0F
 dn D_5,15,$C07
 dn D_5,15,$C03
 dn ___,0,$000
 dn D_5,15,$C0F
 dn D_5,15,$C07
 dn D_5,15,$C03
 dn ___,0,$000
 dn D_5,15,$C00
 dn ___,0,$000
 dn ___,0,$000
 dn ___,0,$000
 dn D_5,15,$C00
 dn ___,0,$000
 dn D_5,15,$C0F
 dn D_5,15,$C07
 dn F_5,15,$C0F
 dn F_5,15,$C07
 dn F_5,15,$C03
 dn ___,0,$000
 dn F_5,15,$C0F
 dn F_5,15,$C07
 dn F_5,15,$C03
 dn ___,0,$000
 dn F_5,15,$C00
 dn ___,0,$000
 dn C_5,15,$C0F
 dn C_5,15,$C07
 dn C_5,15,$C03
 dn ___,0,$000
 dn D_5,15,$C0F
 dn D_5,15,$C07
 dn G_5,15,$C0F
 dn G_5,15,$C07
 dn G_5,15,$C03
 dn ___,0,$000
 dn G_5,15,$C0F
 dn G_5,15,$C07
 dn G_5,15,$C03
 dn ___,0,$000
 dn ___,0,$000
 dn ___,0,$000
 dn G_5,15,$C00
 dn ___,0,$000
 dn ___,0,$E00
 dn ___,0,$000
 dn G_5,15,$C00
 dn ___,0,$E00
 dn G_5,15,$C00
 dn ___,0,$000
 dn ___,0,$E00
 dn ___,0,$000
 dn G_5,15,$C00
 dn ___,0,$E00
 dn G_5,15,$C00
 dn ___,0,$000
 dn ___,0,$E00
 dn ___,0,$000
 dn G_5,15,$C00
 dn ___,0,$E00
 dn G_5,15,$C08
 dn ___,0,$000
 dn F_5,15,$C0F
 dn F_5,15,$C07

P43:
 dn ___,0,$000
 dn ___,0,$000
 dn ___,0,$000
 dn ___,0,$000
 dn ___,0,$000
 dn ___,0,$000
 dn ___,0,$000
 dn ___,0,$000
 dn ___,0,$000
 dn ___,0,$000
 dn ___,0,$000
 dn ___,0,$000
 dn ___,0,$000
 dn ___,0,$000
 dn ___,0,$000
 dn ___,0,$000
 dn ___,0,$000
 dn ___,0,$000
 dn ___,0,$000
 dn ___,0,$000
 dn ___,0,$000
 dn ___,0,$000
 dn ___,0,$000
 dn ___,0,$000
 dn ___,0,$000
 dn ___,0,$000
 dn ___,0,$000
 dn ___,0,$000
 dn ___,0,$000
 dn ___,0,$000
 dn ___,0,$000
 dn ___,0,$000
 dn ___,0,$000
 dn ___,0,$000
 dn ___,0,$000
 dn ___,0,$000
 dn ___,0,$000
 dn ___,0,$000
 dn ___,0,$000
 dn ___,0,$000
 dn ___,0,$000
 dn ___,0,$000
 dn ___,0,$000
 dn ___,0,$000
 dn ___,0,$000
 dn ___,0,$000
 dn ___,0,$000
 dn ___,0,$000
 dn ___,0,$000
 dn ___,0,$000
 dn ___,0,$000
 dn ___,0,$000
 dn ___,0,$000
 dn ___,0,$000
 dn ___,0,$000
 dn ___,0,$000
 dn ___,0,$000
 dn ___,0,$000
 dn ___,0,$000
 dn ___,0,$000
 dn ___,0,$000
 dn ___,0,$000
 dn ___,0,$000
 dn ___,0,$000

P50:
 dn A_5,4,$C03
 dn A_5,4,$C01
 dn E_6,4,$C03
 dn E_6,4,$C01
 dn A_6,4,$C03
 dn A_6,4,$C01
 dn E_5,4,$C03
 dn E_5,4,$C01
 dn A_5,4,$C03
 dn A_5,4,$C01
 dn E_6,4,$C03
 dn E_6,4,$C01
 dn A_4,4,$C03
 dn A_4,4,$C01
 dn E_5,4,$C03
 dn E_5,4,$C01
 dn A_5,4,$C03
 dn A_5,4,$C01
 dn A_5,4,$C03
 dn A_5,4,$C01
 dn E_6,4,$C03
 dn E_6,4,$C01
 dn A_6,4,$C03
 dn A_6,4,$C01
 dn E_5,4,$C03
 dn E_5,4,$C01
 dn A_5,4,$C03
 dn A_5,4,$C01
 dn E_6,4,$C03
 dn E_6,4,$C01
 dn A_6,4,$C03
 dn A_6,4,$C01
 dn A_5,4,$C03
 dn A_5,4,$C01
 dn E_6,4,$C03
 dn E_6,4,$C01
 dn A_6,4,$C03
 dn A_6,4,$C01
 dn E_5,4,$C03
 dn E_5,4,$C01
 dn A_5,4,$C03
 dn A_5,4,$C01
 dn E_6,4,$C03
 dn E_6,4,$C01
 dn A_4,4,$C03
 dn A_4,4,$C01
 dn E_5,4,$C03
 dn E_5,4,$C01
 dn A_5,4,$C03
 dn A_5,4,$C01
 dn A_5,4,$C03
 dn A_5,4,$C01
 dn E_6,4,$C03
 dn E_6,4,$C01
 dn A_6,4,$C03
 dn A_6,4,$C01
 dn E_5,4,$C03
 dn E_5,4,$C01
 dn A_5,4,$C03
 dn A_5,4,$C01
 dn E_6,4,$C03
 dn E_6,4,$C01
 dn A_6,4,$C03
 dn A_6,4,$C01

P51:
 dn G_4,4,$C0F
 dn ___,0,$000
 dn G_4,4,$C08
 dn ___,0,$000
 dn G_4,4,$C07
 dn ___,0,$000
 dn G_4,4,$C04
 dn ___,0,$000
 dn G_4,4,$C03
 dn ___,0,$000
 dn G_4,4,$C01
 dn ___,0,$000
 dn E_4,4,$C0F
 dn ___,0,$000
 dn E_4,4,$C08
 dn ___,0,$000
 dn A_4,4,$C0F
 dn ___,0,$000
 dn A_4,4,$C08
 dn ___,0,$000
 dn A_4,4,$C07
 dn ___,0,$000
 dn A_4,4,$C04
 dn ___,0,$000
 dn A_4,4,$C03
 dn ___,0,$000
 dn A_4,4,$C01
 dn ___,0,$000
 dn E_4,4,$C0F
 dn ___,0,$000
 dn E_4,4,$C08
 dn ___,0,$000
 dn F#4,4,$C0F
 dn ___,0,$000
 dn F#4,4,$C08
 dn ___,0,$000
 dn F#4,4,$C07
 dn ___,0,$000
 dn F#4,4,$C04
 dn ___,0,$000
 dn F#4,4,$C03
 dn ___,0,$000
 dn F#4,4,$C01
 dn ___,0,$000
 dn G_4,4,$C0F
 dn ___,0,$000
 dn F#4,4,$C0F
 dn ___,0,$000
 dn F#4,4,$C08
 dn ___,0,$000
 dn F#4,4,$C07
 dn ___,0,$000
 dn F#4,4,$C04
 dn ___,0,$000
 dn F#4,4,$C03
 dn ___,0,$000
 dn D_4,4,$C0F
 dn ___,0,$000
 dn D_4,4,$C08
 dn ___,0,$000
 dn E_4,4,$C0F
 dn ___,0,$000
 dn E_4,4,$C08
 dn ___,0,$000

P52:
 dn D_5,15,$C0F
 dn D_5,15,$C07
 dn D_5,15,$C03
 dn ___,0,$000
 dn D_5,15,$C0F
 dn D_5,15,$C07
 dn D_5,15,$C03
 dn ___,0,$000
 dn D_5,15,$C00
 dn ___,0,$000
 dn ___,0,$000
 dn ___,0,$000
 dn C_5,15,$C0F
 dn C_5,15,$C07
 dn D_5,15,$C0F
 dn D_5,15,$C07
 dn F_5,15,$C0F
 dn F_5,15,$C07
 dn F_5,15,$C03
 dn ___,0,$000
 dn F_5,15,$C0F
 dn F_5,15,$C07
 dn F_5,15,$C03
 dn ___,0,$000
 dn F_5,15,$C00
 dn ___,0,$000
 dn C_5,15,$C0F
 dn C_5,15,$C07
 dn C_5,15,$C03
 dn ___,0,$000
 dn D_5,15,$C0F
 dn D_5,15,$C07
 dn A#4,15,$C0F
 dn A#4,15,$C07
 dn B_4,15,$C0F
 dn B_4,15,$C07
 dn G_5,15,$C0F
 dn G_5,15,$C07
 dn G_5,15,$C03
 dn ___,0,$000
 dn ___,0,$000
 dn ___,0,$E00
 dn G_5,15,$C00
 dn ___,0,$000
 dn ___,0,$000
 dn ___,0,$000
 dn ___,0,$000
 dn ___,0,$E00
 dn G_5,15,$C00
 dn ___,0,$000
 dn ___,0,$000
 dn ___,0,$000
 dn G_5,15,$C0F
 dn G_5,15,$C07
 dn A_5,15,$C0F
 dn A_5,15,$C07
 dn G_5,15,$C03
 dn ___,0,$000
 dn A_5,15,$C01
 dn ___,0,$000
 dn G_5,15,$C00
 dn ___,0,$000
 dn A_5,15,$C00
 dn ___,0,$000

P53:
 dn ___,0,$000
 dn ___,0,$000
 dn ___,0,$000
 dn ___,0,$000
 dn ___,0,$000
 dn ___,0,$000
 dn ___,0,$000
 dn ___,0,$000
 dn ___,0,$000
 dn ___,0,$000
 dn ___,0,$000
 dn ___,0,$000
 dn ___,0,$000
 dn ___,0,$000
 dn ___,0,$000
 dn ___,0,$000
 dn ___,0,$000
 dn ___,0,$000
 dn ___,0,$000
 dn ___,0,$000
 dn ___,0,$000
 dn ___,0,$000
 dn ___,0,$000
 dn ___,0,$000
 dn ___,0,$000
 dn ___,0,$000
 dn ___,0,$000
 dn ___,0,$000
 dn ___,0,$000
 dn ___,0,$000
 dn ___,0,$000
 dn ___,0,$000
 dn ___,0,$000
 dn ___,0,$000
 dn ___,0,$000
 dn ___,0,$000
 dn ___,0,$000
 dn ___,0,$000
 dn ___,0,$000
 dn ___,0,$000
 dn ___,0,$000
 dn ___,0,$000
 dn ___,0,$000
 dn ___,0,$000
 dn ___,0,$000
 dn ___,0,$000
 dn ___,0,$000
 dn ___,0,$000
 dn ___,0,$000
 dn ___,0,$000
 dn ___,0,$000
 dn ___,0,$000
 dn ___,0,$000
 dn ___,0,$000
 dn ___,0,$000
 dn ___,0,$000
 dn ___,0,$000
 dn ___,0,$000
 dn ___,0,$000
 dn ___,0,$000
 dn ___,0,$000
 dn ___,0,$000
 dn ___,0,$000
 dn ___,0,$000

P60:
 dn A_5,4,$C03
 dn A_5,4,$C01
 dn E_6,4,$C03
 dn E_6,4,$C01
 dn A_6,4,$C03
 dn A_6,4,$C01
 dn E_5,4,$C03
 dn E_5,4,$C01
 dn A_5,4,$C03
 dn A_5,4,$C01
 dn E_6,4,$C03
 dn E_6,4,$C01
 dn A_4,4,$C03
 dn A_4,4,$C01
 dn E_5,4,$C03
 dn E_5,4,$C01
 dn A_5,4,$C03
 dn A_5,4,$C01
 dn A_5,4,$C03
 dn A_5,4,$C01
 dn E_6,4,$C03
 dn E_6,4,$C01
 dn A_6,4,$C03
 dn A_6,4,$C01
 dn E_5,4,$C03
 dn E_5,4,$C01
 dn A_5,4,$C03
 dn A_5,4,$C01
 dn E_6,4,$C03
 dn E_6,4,$C01
 dn A_6,4,$C03
 dn A_6,4,$C01
 dn A_5,4,$C03
 dn A_5,4,$C01
 dn E_6,4,$C03
 dn E_6,4,$C01
 dn A_6,4,$C03
 dn A_6,4,$C01
 dn E_5,4,$C03
 dn E_5,4,$C01
 dn A_5,4,$C03
 dn A_5,4,$C01
 dn E_6,4,$C03
 dn E_6,4,$C01
 dn A_4,4,$C03
 dn A_4,4,$C01
 dn E_5,4,$C03
 dn E_5,4,$C01
 dn A_5,4,$C03
 dn A_5,4,$C01
 dn A_5,4,$C03
 dn A_5,4,$C01
 dn E_6,4,$C03
 dn E_6,4,$C01
 dn A_6,4,$C03
 dn A_6,4,$C01
 dn E_5,4,$C03
 dn E_5,4,$C01
 dn A_5,4,$C03
 dn A_5,4,$C01
 dn E_6,4,$C03
 dn E_6,4,$C01
 dn A_6,4,$C03
 dn A_6,4,$C01

P61:
 dn F#5,1,$C07
 dn F#5,1,$C03
 dn F#5,1,$C01
 dn ___,0,$000
 dn ___,0,$000
 dn ___,0,$000
 dn C#5,1,$C07
 dn C#5,1,$C03
 dn F#5,1,$C07
 dn F#5,1,$C03
 dn G#5,1,$C07
 dn G#5,1,$C03
 dn G#5,1,$C01
 dn ___,0,$000
 dn G#5,1,$C07
 dn A_5,1,$C07
 dn A_5,1,$C03
 dn A_5,1,$C01
 dn G#5,1,$C07
 dn G#5,1,$C03
 dn F#5,1,$C07
 dn F#5,1,$C03
 dn A_5,1,$C07
 dn A_5,1,$C03
 dn A_5,1,$C01
 dn ___,0,$000
 dn G#5,1,$C07
 dn G#5,1,$C03
 dn G#5,1,$C01
 dn ___,0,$000
 dn A_5,1,$C07
 dn A_5,1,$C03
 dn B_5,1,$C07
 dn B_5,1,$C03
 dn B_5,1,$C01
 dn ___,0,$000
 dn D#6,1,$C07
 dn E_6,1,$C07
 dn E_6,1,$C03
 dn E_6,1,$C01
 dn D#6,1,$C07
 dn D#6,1,$C03
 dn B_5,1,$C07
 dn B_5,1,$C03
 dn B_5,1,$C01
 dn ___,0,$000
 dn F#5,1,$C07
 dn F#5,1,$C03
 dn F#5,1,$C01
 dn ___,0,$000
 dn E_5,1,$C07
 dn E_5,1,$C03
 dn D#5,1,$C07
 dn D#5,1,$C03
 dn E_5,1,$C07
 dn E_5,1,$C03
 dn D#5,1,$C07
 dn D#5,1,$C03
 dn B_4,1,$C07
 dn B_4,1,$C03
 dn C_5,1,$C07
 dn C_5,1,$C03
 dn C#5,1,$C07
 dn C#5,1,$C03

P62:
 dn D_5,15,$C0F
 dn D_5,15,$C07
 dn D_5,15,$C03
 dn ___,0,$000
 dn D_5,15,$C0F
 dn D_5,15,$C07
 dn D_5,15,$C03
 dn ___,0,$000
 dn D_5,15,$C00
 dn ___,0,$000
 dn ___,0,$000
 dn ___,0,$000
 dn D_5,15,$C00
 dn ___,0,$000
 dn D_5,15,$C0F
 dn D_5,15,$C07
 dn F_5,15,$C0F
 dn F_5,15,$C07
 dn F_5,15,$C03
 dn ___,0,$000
 dn F_5,15,$C0F
 dn F_5,15,$C07
 dn F_5,15,$C03
 dn ___,0,$000
 dn F_5,15,$C00
 dn ___,0,$000
 dn C_5,15,$C0F
 dn C_5,15,$C07
 dn C_5,15,$C03
 dn ___,0,$000
 dn D_5,15,$C0F
 dn D_5,15,$C07
 dn G_5,15,$C0F
 dn G_5,15,$C07
 dn G_5,15,$C03
 dn ___,0,$000
 dn G_5,15,$C0F
 dn G_5,15,$C07
 dn G_5,15,$C03
 dn ___,0,$000
 dn ___,0,$000
 dn ___,0,$000
 dn G_5,15,$C00
 dn ___,0,$000
 dn ___,0,$E00
 dn ___,0,$000
 dn G_5,15,$C00
 dn ___,0,$E00
 dn G_5,15,$C00
 dn ___,0,$000
 dn ___,0,$E00
 dn ___,0,$000
 dn G_5,15,$C00
 dn ___,0,$E00
 dn G_5,15,$C00
 dn ___,0,$000
 dn ___,0,$E00
 dn ___,0,$000
 dn G_5,15,$C00
 dn ___,0,$E00
 dn G_5,15,$C08
 dn ___,0,$000
 dn F_5,15,$C0F
 dn F_5,15,$C07

P63:
 dn ___,0,$000
 dn ___,0,$000
 dn ___,0,$000
 dn ___,0,$000
 dn ___,0,$000
 dn ___,0,$000
 dn ___,0,$000
 dn ___,0,$000
 dn ___,0,$000
 dn ___,0,$000
 dn ___,0,$000
 dn ___,0,$000
 dn ___,0,$000
 dn ___,0,$000
 dn ___,0,$000
 dn ___,0,$000
 dn ___,0,$000
 dn ___,0,$000
 dn ___,0,$000
 dn ___,0,$000
 dn ___,0,$000
 dn ___,0,$000
 dn ___,0,$000
 dn ___,0,$000
 dn ___,0,$000
 dn ___,0,$000
 dn ___,0,$000
 dn ___,0,$000
 dn ___,0,$000
 dn ___,0,$000
 dn ___,0,$000
 dn ___,0,$000
 dn ___,0,$000
 dn ___,0,$000
 dn ___,0,$000
 dn ___,0,$000
 dn ___,0,$000
 dn ___,0,$000
 dn ___,0,$000
 dn ___,0,$000
 dn ___,0,$000
 dn ___,0,$000
 dn ___,0,$000
 dn ___,0,$000
 dn ___,0,$000
 dn ___,0,$000
 dn ___,0,$000
 dn ___,0,$000
 dn ___,0,$000
 dn ___,0,$000
 dn ___,0,$000
 dn ___,0,$000
 dn ___,0,$000
 dn ___,0,$000
 dn ___,0,$000
 dn ___,0,$000
 dn ___,0,$000
 dn ___,0,$000
 dn ___,0,$000
 dn ___,0,$000
 dn ___,0,$000
 dn ___,0,$000
 dn ___,0,$000
 dn ___,0,$000

P70:
 dn A_5,4,$C03
 dn A_5,4,$C01
 dn E_6,4,$C03
 dn E_6,4,$C01
 dn A_6,4,$C03
 dn A_6,4,$C01
 dn E_5,4,$C03
 dn E_5,4,$C01
 dn A_5,4,$C03
 dn A_5,4,$C01
 dn E_6,4,$C03
 dn E_6,4,$C01
 dn A_4,4,$C03
 dn A_4,4,$C01
 dn E_5,4,$C03
 dn E_5,4,$C01
 dn A_5,4,$C03
 dn A_5,4,$C01
 dn A_5,4,$C03
 dn A_5,4,$C01
 dn E_6,4,$C03
 dn E_6,4,$C01
 dn A_6,4,$C03
 dn A_6,4,$C01
 dn E_5,4,$C03
 dn E_5,4,$C01
 dn A_5,4,$C03
 dn A_5,4,$C01
 dn E_6,4,$C03
 dn E_6,4,$C01
 dn A_6,4,$C03
 dn A_6,4,$C01
 dn A_5,4,$C03
 dn A_5,4,$C01
 dn E_6,4,$C03
 dn E_6,4,$C01
 dn A_6,4,$C03
 dn A_6,4,$C01
 dn E_5,4,$C03
 dn E_5,4,$C01
 dn A_5,4,$C03
 dn A_5,4,$C01
 dn E_6,4,$C03
 dn E_6,4,$C01
 dn A_4,4,$C03
 dn A_4,4,$C01
 dn E_5,4,$C03
 dn E_5,4,$C01
 dn A_5,4,$C03
 dn A_5,4,$C01
 dn A_5,4,$C03
 dn A_5,4,$C01
 dn E_6,4,$C03
 dn E_6,4,$C01
 dn A_6,4,$C03
 dn A_6,4,$C01
 dn E_5,4,$C03
 dn E_5,4,$C01
 dn A_5,4,$C03
 dn A_5,4,$C01
 dn E_6,4,$C03
 dn E_6,4,$C01
 dn A_6,4,$C03
 dn A_6,4,$C01

P71:
 dn F#5,1,$C07
 dn F#5,1,$C03
 dn B_4,1,$C07
 dn B_4,1,$C03
 dn C_5,1,$C07
 dn C_5,1,$C03
 dn C#5,1,$C07
 dn C#5,1,$C03
 dn G#5,1,$C07
 dn G#5,1,$C03
 dn C_5,1,$C07
 dn C_5,1,$C03
 dn C#5,1,$C07
 dn C#5,1,$C03
 dn A_5,1,$C07
 dn A_5,1,$C03
 dn A_5,1,$C01
 dn ___,0,$000
 dn C#6,1,$C07
 dn C#6,1,$C03
 dn C#6,1,$C01
 dn ___,0,$000
 dn D#6,1,$C07
 dn E_6,1,$C07
 dn E_6,1,$C03
 dn E_6,1,$C01
 dn F#6,1,$C07
 dn F#6,1,$C03
 dn A_6,1,$C07
 dn A_6,1,$C03
 dn E_6,1,$C07
 dn E_6,1,$C03
 dn D#6,1,$C07
 dn E_6,1,$C07
 dn D#6,1,$C07
 dn D#6,1,$C03
 dn D#6,1,$C01
 dn ___,0,$000
 dn ___,0,$000
 dn ___,0,$000
 dn D#6,1,$C07
 dn D#6,1,$C03
 dn D#6,1,$C07
 dn D#6,1,$C03
 dn E_6,1,$C07
 dn E_6,1,$C03
 dn E_6,1,$C07
 dn F#6,1,$C07
 dn F#6,1,$C03
 dn F#6,1,$C01
 dn E_6,1,$C07
 dn E_6,1,$C03
 dn D#6,1,$C07
 dn D#6,1,$C03
 dn B_5,1,$C07
 dn B_5,1,$C03
 dn F#5,1,$C07
 dn F#5,1,$C03
 dn F#5,1,$C01
 dn ___,0,$000
 dn ___,0,$000
 dn ___,0,$000
 dn ___,0,$000
 dn ___,0,$000

P72:
 dn D_5,15,$C0F
 dn D_5,15,$C07
 dn D_5,15,$C03
 dn ___,0,$000
 dn D_5,15,$C0F
 dn D_5,15,$C07
 dn D_5,15,$C03
 dn ___,0,$000
 dn D_5,15,$C00
 dn ___,0,$000
 dn ___,0,$000
 dn ___,0,$000
 dn C_5,15,$C0F
 dn C_5,15,$C07
 dn D_5,15,$C0F
 dn D_5,15,$C07
 dn F_5,15,$C0F
 dn F_5,15,$C07
 dn F_5,15,$C03
 dn ___,0,$000
 dn F_5,15,$C0F
 dn F_5,15,$C07
 dn F_5,15,$C03
 dn ___,0,$000
 dn F_5,15,$C00
 dn ___,0,$000
 dn C_5,15,$C0F
 dn C_5,15,$C07
 dn C_5,15,$C03
 dn ___,0,$000
 dn D_5,15,$C0F
 dn D_5,15,$C07
 dn A#4,15,$C0F
 dn A#4,15,$C07
 dn B_4,15,$C0F
 dn B_4,15,$C07
 dn G_5,15,$C0F
 dn G_5,15,$C07
 dn G_5,15,$C03
 dn ___,0,$000
 dn ___,0,$000
 dn ___,0,$E00
 dn G_5,15,$C00
 dn ___,0,$000
 dn ___,0,$000
 dn ___,0,$000
 dn ___,0,$000
 dn ___,0,$E00
 dn G_5,15,$C00
 dn ___,0,$000
 dn ___,0,$000
 dn ___,0,$000
 dn G_5,15,$C0F
 dn G_5,15,$C07
 dn A_5,15,$C0F
 dn A_5,15,$C07
 dn G_5,15,$C0F
 dn G_5,15,$C07
 dn A_5,15,$C03
 dn ___,0,$000
 dn G_5,15,$C00
 dn ___,0,$000
 dn A_5,15,$C00
 dn ___,0,$000

P73:
 dn ___,0,$000
 dn ___,0,$000
 dn ___,0,$000
 dn ___,0,$000
 dn ___,0,$000
 dn ___,0,$000
 dn ___,0,$000
 dn ___,0,$000
 dn ___,0,$000
 dn ___,0,$000
 dn ___,0,$000
 dn ___,0,$000
 dn ___,0,$000
 dn ___,0,$000
 dn ___,0,$000
 dn ___,0,$000
 dn ___,0,$000
 dn ___,0,$000
 dn ___,0,$000
 dn ___,0,$000
 dn ___,0,$000
 dn ___,0,$000
 dn ___,0,$000
 dn ___,0,$000
 dn ___,0,$000
 dn ___,0,$000
 dn ___,0,$000
 dn ___,0,$000
 dn ___,0,$000
 dn ___,0,$000
 dn ___,0,$000
 dn ___,0,$000
 dn ___,0,$000
 dn ___,0,$000
 dn ___,0,$000
 dn ___,0,$000
 dn ___,0,$000
 dn ___,0,$000
 dn ___,0,$000
 dn ___,0,$000
 dn ___,0,$000
 dn ___,0,$000
 dn ___,0,$000
 dn ___,0,$000
 dn ___,0,$000
 dn ___,0,$000
 dn ___,0,$000
 dn ___,0,$000
 dn ___,0,$000
 dn ___,0,$000
 dn ___,0,$000
 dn ___,0,$000
 dn ___,0,$000
 dn ___,0,$000
 dn ___,0,$000
 dn ___,0,$000
 dn ___,0,$000
 dn ___,0,$000
 dn ___,0,$000
 dn ___,0,$000
 dn ___,0,$000
 dn ___,0,$000
 dn ___,0,$000
 dn ___,0,$000

P80:
 dn A_5,4,$C03
 dn A_5,4,$C01
 dn E_6,4,$C03
 dn E_6,4,$C01
 dn A_6,4,$C03
 dn A_6,4,$C01
 dn E_5,4,$C03
 dn E_5,4,$C01
 dn A_5,4,$C03
 dn A_5,4,$C01
 dn E_6,4,$C03
 dn E_6,4,$C01
 dn A_4,4,$C03
 dn A_4,4,$C01
 dn E_5,4,$C03
 dn E_5,4,$C01
 dn A_5,4,$C03
 dn A_5,4,$C01
 dn A_5,4,$C03
 dn A_5,4,$C01
 dn E_6,4,$C03
 dn E_6,4,$C01
 dn A_6,4,$C03
 dn A_6,4,$C01
 dn E_5,4,$C03
 dn E_5,4,$C01
 dn A_5,4,$C03
 dn A_5,4,$C01
 dn E_6,4,$C03
 dn E_6,4,$C01
 dn A_6,4,$C03
 dn A_6,4,$C01
 dn A_5,4,$C03
 dn A_5,4,$C01
 dn E_6,4,$C03
 dn E_6,4,$C01
 dn A_6,4,$C03
 dn A_6,4,$C01
 dn E_5,4,$C03
 dn E_5,4,$C01
 dn A_5,4,$C03
 dn A_5,4,$C01
 dn E_6,4,$C03
 dn E_6,4,$C01
 dn A_4,4,$C03
 dn A_4,4,$C01
 dn E_5,4,$C03
 dn E_5,4,$C01
 dn A_5,4,$C03
 dn A_5,4,$C01
 dn A_5,4,$C03
 dn A_5,4,$C01
 dn E_6,4,$C03
 dn E_6,4,$C01
 dn A_6,4,$C03
 dn A_6,4,$C01
 dn E_5,4,$C03
 dn E_5,4,$C01
 dn A_5,4,$C03
 dn A_5,4,$C01
 dn E_6,4,$C03
 dn E_6,4,$C01
 dn A_6,4,$C03
 dn A_6,4,$C01

P81:
 dn ___,0,$000
 dn ___,0,$000
 dn E_6,1,$C07
 dn E_6,1,$C03
 dn E_6,1,$C01
 dn ___,0,$000
 dn ___,0,$000
 dn E_6,1,$C07
 dn E_6,1,$C03
 dn E_6,1,$C01
 dn ___,0,$000
 dn E_6,1,$C07
 dn E_6,1,$C03
 dn E_6,1,$C01
 dn ___,0,$000
 dn E_6,1,$C07
 dn E_6,1,$C03
 dn E_6,1,$C01
 dn E_6,1,$C07
 dn E_6,1,$C03
 dn D#6,1,$C07
 dn D#6,1,$C03
 dn E_6,1,$C07
 dn E_6,1,$C03
 dn E_6,1,$C07
 dn F#6,1,$C07
 dn F#6,1,$C03
 dn F#6,1,$C01
 dn C#7,1,$C07
 dn B_6,1,$C07
 dn B_6,1,$C03
 dn B_6,1,$C01
 dn ___,0,$000
 dn ___,0,$E00
 dn F#6,1,$C07
 dn F#6,1,$C03
 dn F#6,1,$C01
 dn A_6,1,$C07
 dn A_6,1,$C03
 dn A_6,1,$C01
 dn F#6,1,$C07
 dn F#6,1,$C03
 dn F#6,1,$C01
 dn E_6,1,$C07
 dn E_6,1,$C03
 dn E_6,1,$C01
 dn D#6,1,$C07
 dn D#6,1,$C03
 dn E_6,1,$C07
 dn E_6,1,$C03
 dn D#6,1,$C07
 dn D#6,1,$C03
 dn B_5,1,$C07
 dn B_5,1,$C03
 dn F#5,1,$C07
 dn F#5,1,$C03
 dn F#5,1,$C01
 dn ___,0,$000
 dn ___,0,$000
 dn ___,0,$000
 dn F#5,1,$C00
 dn F#5,1,$C00
 dn F#5,1,$C00
 dn ___,0,$000

P82:
 dn D_5,15,$C0F
 dn D_5,15,$C07
 dn D_5,15,$C03
 dn ___,0,$000
 dn D_5,15,$C0F
 dn D_5,15,$C07
 dn D_5,15,$C03
 dn ___,0,$000
 dn D_5,15,$C00
 dn ___,0,$000
 dn ___,0,$000
 dn ___,0,$000
 dn D_5,15,$C00
 dn ___,0,$000
 dn D_5,15,$C0F
 dn D_5,15,$C07
 dn F_5,15,$C0F
 dn F_5,15,$C07
 dn F_5,15,$C03
 dn ___,0,$000
 dn F_5,15,$C0F
 dn F_5,15,$C07
 dn F_5,15,$C03
 dn ___,0,$000
 dn F_5,15,$C00
 dn ___,0,$000
 dn C_5,15,$C0F
 dn C_5,15,$C07
 dn C_5,15,$C03
 dn ___,0,$000
 dn D_5,15,$C0F
 dn D_5,15,$C07
 dn G_5,15,$C0F
 dn G_5,15,$C07
 dn G_5,15,$C03
 dn ___,0,$000
 dn G_5,15,$C0F
 dn G_5,15,$C07
 dn G_5,15,$C03
 dn ___,0,$000
 dn ___,0,$000
 dn ___,0,$000
 dn G_5,15,$C00
 dn ___,0,$000
 dn ___,0,$E00
 dn ___,0,$000
 dn G_5,15,$C00
 dn ___,0,$E00
 dn G_5,15,$C00
 dn ___,0,$000
 dn ___,0,$E00
 dn ___,0,$000
 dn G_5,15,$C00
 dn ___,0,$000
 dn G_5,15,$C00
 dn ___,0,$000
 dn ___,0,$E00
 dn ___,0,$000
 dn G_5,15,$C00
 dn ___,0,$E00
 dn G_5,15,$C08
 dn ___,0,$000
 dn F_5,15,$C0F
 dn F_5,15,$C07

P83:
 dn ___,0,$000
 dn ___,0,$000
 dn ___,0,$000
 dn ___,0,$000
 dn ___,0,$000
 dn ___,0,$000
 dn ___,0,$000
 dn ___,0,$000
 dn ___,0,$000
 dn ___,0,$000
 dn ___,0,$000
 dn ___,0,$000
 dn ___,0,$000
 dn ___,0,$000
 dn ___,0,$000
 dn ___,0,$000
 dn ___,0,$000
 dn ___,0,$000
 dn ___,0,$000
 dn ___,0,$000
 dn ___,0,$000
 dn ___,0,$000
 dn ___,0,$000
 dn ___,0,$000
 dn ___,0,$000
 dn ___,0,$000
 dn ___,0,$000
 dn ___,0,$000
 dn ___,0,$000
 dn ___,0,$000
 dn ___,0,$000
 dn ___,0,$000
 dn ___,0,$000
 dn ___,0,$000
 dn ___,0,$000
 dn ___,0,$000
 dn ___,0,$000
 dn ___,0,$000
 dn ___,0,$000
 dn ___,0,$000
 dn ___,0,$000
 dn ___,0,$000
 dn ___,0,$000
 dn ___,0,$000
 dn ___,0,$000
 dn ___,0,$000
 dn ___,0,$000
 dn ___,0,$000
 dn ___,0,$000
 dn ___,0,$000
 dn ___,0,$000
 dn ___,0,$000
 dn ___,0,$000
 dn ___,0,$000
 dn ___,0,$000
 dn ___,0,$000
 dn ___,0,$000
 dn ___,0,$000
 dn ___,0,$000
 dn ___,0,$000
 dn ___,0,$000
 dn ___,0,$000
 dn ___,0,$000
 dn ___,0,$000

P90:
 dn A_5,4,$C03
 dn A_5,4,$C01
 dn E_6,4,$C03
 dn E_6,4,$C01
 dn A_6,4,$C03
 dn A_6,4,$C01
 dn E_5,4,$C03
 dn E_5,4,$C01
 dn A_5,4,$C03
 dn A_5,4,$C01
 dn E_6,4,$C03
 dn E_6,4,$C01
 dn A_4,4,$C03
 dn A_4,4,$C01
 dn E_5,4,$C03
 dn E_5,4,$C01
 dn A_5,4,$C03
 dn A_5,4,$C01
 dn A_5,4,$C03
 dn A_5,4,$C01
 dn E_6,4,$C03
 dn E_6,4,$C01
 dn A_6,4,$C03
 dn A_6,4,$C01
 dn E_5,4,$C03
 dn E_5,4,$C01
 dn A_5,4,$C03
 dn A_5,4,$C01
 dn E_6,4,$C03
 dn E_6,4,$C01
 dn A_6,4,$C03
 dn A_6,4,$C01
 dn A_5,4,$C03
 dn A_5,4,$C01
 dn E_6,4,$C03
 dn E_6,4,$C01
 dn A_6,4,$C03
 dn A_6,4,$C01
 dn E_5,4,$C03
 dn E_5,4,$C01
 dn A_5,4,$C03
 dn A_5,4,$C01
 dn E_6,4,$C03
 dn E_6,4,$C01
 dn A_4,4,$C03
 dn A_4,4,$C01
 dn E_5,4,$C03
 dn E_5,4,$C01
 dn A_5,4,$C03
 dn A_5,4,$C01
 dn A_5,4,$C03
 dn A_5,4,$C01
 dn E_6,4,$C03
 dn E_6,4,$C01
 dn A_6,4,$C03
 dn A_6,4,$C01
 dn E_5,4,$C03
 dn E_5,4,$C01
 dn A_5,4,$C03
 dn A_5,4,$C01
 dn E_6,4,$C03
 dn E_6,4,$C01
 dn A_6,4,$C03
 dn A_6,4,$C01

P91:
 dn A_5,1,$C07
 dn ___,0,$E00
 dn A_5,1,$C07
 dn ___,0,$E00
 dn E_5,1,$C07
 dn ___,0,$000
 dn F#5,1,$C07
 dn ___,0,$000
 dn B_5,1,$C07
 dn ___,0,$E00
 dn B_5,1,$C07
 dn ___,0,$E00
 dn E_5,1,$C07
 dn ___,0,$000
 dn F#5,1,$C07
 dn ___,0,$000
 dn C_6,1,$C07
 dn ___,0,$E00
 dn C_6,1,$C07
 dn ___,0,$E00
 dn E_5,1,$C07
 dn ___,0,$000
 dn F#5,1,$C07
 dn ___,0,$000
 dn C#6,1,$C07
 dn ___,0,$E00
 dn C#6,1,$C07
 dn ___,0,$E00
 dn E_5,1,$C07
 dn ___,0,$000
 dn F#5,1,$C07
 dn ___,0,$000
 dn B_5,1,$C07
 dn ___,0,$000
 dn F#6,1,$C07
 dn F#6,1,$C00
 dn D#5,1,$C07
 dn ___,0,$000
 dn F#5,1,$C07
 dn ___,0,$000
 dn D#6,1,$C07
 dn D#6,1,$C00
 dn F#5,1,$C07
 dn ___,0,$000
 dn B_5,1,$C07
 dn ___,0,$000
 dn B_4,1,$C07
 dn ___,0,$000
 dn ___,0,$000
 dn ___,0,$000
 dn ___,0,$000
 dn ___,0,$000
 dn ___,0,$000
 dn ___,0,$000
 dn ___,0,$000
 dn ___,0,$000
 dn B_4,1,$C01
 dn B_4,1,$C01
 dn B_4,1,$C00
 dn B_4,1,$C00
 dn B_4,1,$C00
 dn ___,0,$000
 dn ___,0,$000
 dn ___,0,$000

P92:
 dn D_5,15,$C0F
 dn D_5,15,$C07
 dn D_5,15,$C03
 dn ___,0,$000
 dn D_5,15,$C0F
 dn D_5,15,$C07
 dn D_5,15,$C03
 dn ___,0,$000
 dn D_5,15,$C00
 dn ___,0,$000
 dn ___,0,$000
 dn ___,0,$000
 dn C_5,15,$C0F
 dn C_5,15,$C07
 dn D_5,15,$C0F
 dn D_5,15,$C07
 dn F_5,15,$C0F
 dn F_5,15,$C07
 dn F_5,15,$C03
 dn ___,0,$000
 dn F_5,15,$C0F
 dn F_5,15,$C07
 dn F_5,15,$C03
 dn ___,0,$000
 dn F_5,15,$C00
 dn ___,0,$000
 dn C_5,15,$C0F
 dn C_5,15,$C07
 dn C_5,15,$C03
 dn ___,0,$000
 dn D_5,15,$C0F
 dn D_5,15,$C07
 dn A#4,15,$C0F
 dn A#4,15,$C07
 dn B_4,15,$C0F
 dn B_4,15,$C07
 dn G_5,15,$C0F
 dn G_5,15,$C07
 dn G_5,15,$C03
 dn ___,0,$000
 dn ___,0,$000
 dn ___,0,$E00
 dn G_5,15,$C00
 dn ___,0,$000
 dn ___,0,$000
 dn ___,0,$000
 dn ___,0,$000
 dn ___,0,$E00
 dn G_5,15,$C00
 dn ___,0,$000
 dn ___,0,$000
 dn ___,0,$000
 dn G_5,15,$C0F
 dn G_5,15,$C07
 dn A_5,15,$C0F
 dn A_5,15,$C07
 dn G_5,15,$C0F
 dn G_5,15,$C07
 dn A_5,15,$C03
 dn ___,0,$000
 dn G_5,15,$C00
 dn ___,0,$000
 dn A_5,15,$C00
 dn ___,0,$000

P93:
 dn ___,0,$000
 dn ___,0,$000
 dn ___,0,$000
 dn ___,0,$000
 dn ___,0,$000
 dn ___,0,$000
 dn ___,0,$000
 dn ___,0,$000
 dn ___,0,$000
 dn ___,0,$000
 dn ___,0,$000
 dn ___,0,$000
 dn ___,0,$000
 dn ___,0,$000
 dn ___,0,$000
 dn ___,0,$000
 dn ___,0,$000
 dn ___,0,$000
 dn ___,0,$000
 dn ___,0,$000
 dn ___,0,$000
 dn ___,0,$000
 dn ___,0,$000
 dn ___,0,$000
 dn ___,0,$000
 dn ___,0,$000
 dn ___,0,$000
 dn ___,0,$000
 dn ___,0,$000
 dn ___,0,$000
 dn ___,0,$000
 dn ___,0,$000
 dn ___,0,$000
 dn ___,0,$000
 dn ___,0,$000
 dn ___,0,$000
 dn ___,0,$000
 dn ___,0,$000
 dn ___,0,$000
 dn ___,0,$000
 dn ___,0,$000
 dn ___,0,$000
 dn ___,0,$000
 dn ___,0,$000
 dn ___,0,$000
 dn ___,0,$000
 dn ___,0,$000
 dn ___,0,$000
 dn ___,0,$000
 dn ___,0,$000
 dn ___,0,$000
 dn ___,0,$000
 dn ___,0,$000
 dn ___,0,$000
 dn ___,0,$000
 dn ___,0,$000
 dn ___,0,$000
 dn ___,0,$000
 dn ___,0,$000
 dn ___,0,$000
 dn ___,0,$000
 dn ___,0,$000
 dn ___,0,$000
 dn ___,0,$000

P100:
 dn B_5,4,$C03
 dn B_5,4,$C01
 dn F#6,4,$C03
 dn F#6,4,$C01
 dn B_6,4,$C03
 dn B_6,4,$C01
 dn F#5,4,$C03
 dn F#5,4,$C01
 dn B_5,4,$C03
 dn B_5,4,$C01
 dn F#6,4,$C03
 dn F#6,4,$C01
 dn B_4,4,$C03
 dn B_4,4,$C01
 dn F#5,4,$C03
 dn F#5,4,$C01
 dn B_5,4,$C03
 dn B_5,4,$C01
 dn B_5,4,$C03
 dn B_5,4,$C01
 dn F#6,4,$C03
 dn F#6,4,$C01
 dn B_6,4,$C03
 dn B_6,4,$C01
 dn F#5,4,$C03
 dn F#5,4,$C01
 dn B_5,4,$C03
 dn B_5,4,$C01
 dn F#6,4,$C03
 dn F#6,4,$C01
 dn B_6,4,$C03
 dn B_6,4,$C01
 dn B_5,4,$C03
 dn B_5,4,$C01
 dn F#6,4,$C03
 dn F#6,4,$C01
 dn B_6,4,$C03
 dn B_6,4,$C01
 dn F#5,4,$C03
 dn F#5,4,$C01
 dn B_5,4,$C03
 dn B_5,4,$C01
 dn F#6,4,$C03
 dn F#6,4,$C01
 dn B_4,4,$C03
 dn B_4,4,$C01
 dn F#5,4,$C03
 dn F#5,4,$C01
 dn B_5,4,$C03
 dn B_5,4,$C01
 dn B_5,4,$C03
 dn B_5,4,$C01
 dn F#6,4,$C03
 dn F#6,4,$C01
 dn B_6,4,$C03
 dn B_6,4,$C01
 dn F#5,4,$C03
 dn F#5,4,$C01
 dn B_5,4,$C03
 dn B_5,4,$C01
 dn F#6,4,$C03
 dn F#6,4,$C01
 dn B_6,4,$C03
 dn B_6,4,$C01

P101:
 dn G#5,1,$C07
 dn ___,0,$000
 dn ___,0,$000
 dn ___,0,$000
 dn ___,0,$000
 dn ___,0,$000
 dn D#5,1,$C07
 dn ___,0,$000
 dn G#5,1,$C07
 dn ___,0,$000
 dn A#5,1,$C07
 dn ___,0,$000
 dn ___,0,$E00
 dn ___,0,$000
 dn A#5,1,$C07
 dn B_5,1,$C07
 dn ___,0,$000
 dn ___,0,$000
 dn A#5,1,$C07
 dn ___,0,$000
 dn G#5,1,$C07
 dn ___,0,$E00
 dn B_5,1,$C07
 dn ___,0,$000
 dn ___,0,$000
 dn ___,0,$E00
 dn A#5,1,$C07
 dn ___,0,$000
 dn ___,0,$000
 dn ___,0,$000
 dn B_5,1,$C07
 dn ___,0,$E00
 dn C#6,1,$C07
 dn ___,0,$000
 dn ___,0,$000
 dn ___,0,$000
 dn F_6,1,$C07
 dn F#6,1,$C07
 dn ___,0,$000
 dn ___,0,$E00
 dn F_6,1,$C07
 dn ___,0,$000
 dn C#6,1,$C07
 dn ___,0,$000
 dn ___,0,$000
 dn ___,0,$000
 dn G#5,1,$C07
 dn ___,0,$000
 dn ___,0,$E00
 dn ___,0,$000
 dn F#5,1,$C07
 dn ___,0,$000
 dn F_5,1,$C07
 dn ___,0,$000
 dn F#5,1,$C07
 dn ___,0,$000
 dn F_5,1,$C07
 dn ___,0,$000
 dn C#5,1,$C07
 dn ___,0,$000
 dn D_5,1,$C07
 dn ___,0,$000
 dn D#5,1,$C07
 dn ___,0,$000

P102:
 dn E_5,15,$C0F
 dn E_5,15,$C07
 dn E_5,15,$C03
 dn ___,0,$000
 dn E_5,15,$C0F
 dn E_5,15,$C07
 dn E_5,15,$C03
 dn ___,0,$000
 dn E_5,15,$C00
 dn ___,0,$000
 dn ___,0,$000
 dn ___,0,$000
 dn E_5,15,$C00
 dn ___,0,$000
 dn E_5,15,$C0F
 dn E_5,15,$C07
 dn G_5,15,$C0F
 dn G_5,15,$C07
 dn G_5,15,$C03
 dn ___,0,$000
 dn G_5,15,$C0F
 dn G_5,15,$C07
 dn G_5,15,$C03
 dn ___,0,$000
 dn G_5,15,$C00
 dn ___,0,$000
 dn D_5,15,$C0F
 dn D_5,15,$C07
 dn D_5,15,$C03
 dn ___,0,$000
 dn E_5,15,$C0F
 dn E_5,15,$C07
 dn A_5,15,$C0F
 dn A_5,15,$C07
 dn A_5,15,$C03
 dn ___,0,$000
 dn A_5,15,$C0F
 dn A_5,15,$C07
 dn A_5,15,$C03
 dn ___,0,$000
 dn ___,0,$000
 dn ___,0,$000
 dn A_5,15,$C00
 dn ___,0,$000
 dn ___,0,$E00
 dn ___,0,$000
 dn A_5,15,$C00
 dn ___,0,$E00
 dn A_5,15,$C00
 dn ___,0,$000
 dn ___,0,$E00
 dn ___,0,$000
 dn A_5,15,$C00
 dn ___,0,$E00
 dn A_5,15,$C00
 dn ___,0,$000
 dn ___,0,$E00
 dn ___,0,$000
 dn A_5,15,$C00
 dn ___,0,$E00
 dn A_5,15,$C08
 dn ___,0,$000
 dn B_5,15,$C0F
 dn B_5,15,$C07

P103:
 dn ___,0,$000
 dn ___,0,$000
 dn ___,0,$000
 dn ___,0,$000
 dn ___,0,$000
 dn ___,0,$000
 dn ___,0,$000
 dn ___,0,$000
 dn ___,0,$000
 dn ___,0,$000
 dn ___,0,$000
 dn ___,0,$000
 dn ___,0,$000
 dn ___,0,$000
 dn ___,0,$000
 dn ___,0,$000
 dn ___,0,$000
 dn ___,0,$000
 dn ___,0,$000
 dn ___,0,$000
 dn ___,0,$000
 dn ___,0,$000
 dn ___,0,$000
 dn ___,0,$000
 dn ___,0,$000
 dn ___,0,$000
 dn ___,0,$000
 dn ___,0,$000
 dn ___,0,$000
 dn ___,0,$000
 dn ___,0,$000
 dn ___,0,$000
 dn ___,0,$000
 dn ___,0,$000
 dn ___,0,$000
 dn ___,0,$000
 dn ___,0,$000
 dn ___,0,$000
 dn ___,0,$000
 dn ___,0,$000
 dn ___,0,$000
 dn ___,0,$000
 dn ___,0,$000
 dn ___,0,$000
 dn ___,0,$000
 dn ___,0,$000
 dn ___,0,$000
 dn ___,0,$000
 dn ___,0,$000
 dn ___,0,$000
 dn ___,0,$000
 dn ___,0,$000
 dn ___,0,$000
 dn ___,0,$000
 dn ___,0,$000
 dn ___,0,$000
 dn ___,0,$000
 dn ___,0,$000
 dn ___,0,$000
 dn ___,0,$000
 dn ___,0,$000
 dn ___,0,$000
 dn ___,0,$000
 dn ___,0,$000

P110:
 dn B_5,4,$C03
 dn B_5,4,$C01
 dn F#6,4,$C03
 dn F#6,4,$C01
 dn B_6,4,$C03
 dn B_6,4,$C01
 dn F#5,4,$C03
 dn F#5,4,$C01
 dn B_5,4,$C03
 dn B_5,4,$C01
 dn F#6,4,$C03
 dn F#6,4,$C01
 dn B_4,4,$C03
 dn B_4,4,$C01
 dn F#5,4,$C03
 dn F#5,4,$C01
 dn B_5,4,$C03
 dn B_5,4,$C01
 dn B_5,4,$C03
 dn B_5,4,$C01
 dn F#6,4,$C03
 dn F#6,4,$C01
 dn B_6,4,$C03
 dn B_6,4,$C01
 dn F#5,4,$C03
 dn F#5,4,$C01
 dn B_5,4,$C03
 dn B_5,4,$C01
 dn F#6,4,$C03
 dn F#6,4,$C01
 dn B_6,4,$C03
 dn B_6,4,$C01
 dn B_5,4,$C03
 dn B_5,4,$C01
 dn F#6,4,$C03
 dn F#6,4,$C01
 dn B_6,4,$C03
 dn B_6,4,$C01
 dn F#5,4,$C03
 dn F#5,4,$C01
 dn B_5,4,$C03
 dn B_5,4,$C01
 dn F#6,4,$C03
 dn F#6,4,$C01
 dn B_4,4,$C03
 dn B_4,4,$C01
 dn F#5,4,$C03
 dn F#5,4,$C01
 dn B_5,4,$C03
 dn B_5,4,$C01
 dn B_5,4,$C03
 dn B_5,4,$C01
 dn F#6,4,$C03
 dn F#6,4,$C01
 dn B_6,4,$C03
 dn B_6,4,$C01
 dn F#5,4,$C03
 dn F#5,4,$C01
 dn B_5,4,$C03
 dn B_5,4,$C01
 dn F#6,4,$C03
 dn F#6,4,$C01
 dn B_6,4,$C03
 dn B_6,4,$C01

P111:
 dn G#5,1,$C07
 dn ___,0,$000
 dn C#5,1,$C07
 dn ___,0,$E00
 dn D_5,1,$C07
 dn ___,0,$000
 dn D#5,1,$C07
 dn ___,0,$000
 dn A#5,1,$C07
 dn ___,0,$000
 dn D_5,1,$C07
 dn ___,0,$E00
 dn D#5,1,$C07
 dn ___,0,$000
 dn B_5,1,$C07
 dn ___,0,$000
 dn ___,0,$000
 dn ___,0,$000
 dn D#6,1,$C07
 dn ___,0,$000
 dn ___,0,$E00
 dn ___,0,$000
 dn F_6,1,$C07
 dn F#6,1,$C07
 dn ___,0,$000
 dn ___,0,$000
 dn G#6,1,$C07
 dn ___,0,$E00
 dn B_6,1,$C07
 dn ___,0,$000
 dn F#6,1,$C07
 dn ___,0,$000
 dn F_6,1,$C07
 dn F#6,1,$C07
 dn F_6,1,$C07
 dn ___,0,$000
 dn ___,0,$000
 dn ___,0,$000
 dn ___,0,$000
 dn ___,0,$000
 dn F_6,1,$C07
 dn ___,0,$000
 dn F_6,1,$C07
 dn ___,0,$E00
 dn F#6,1,$C07
 dn ___,0,$E00
 dn F#6,1,$C07
 dn G#6,1,$C07
 dn ___,0,$000
 dn ___,0,$000
 dn F#6,1,$C07
 dn ___,0,$000
 dn F_6,1,$C07
 dn ___,0,$000
 dn C#6,1,$C07
 dn ___,0,$000
 dn G#5,1,$C07
 dn ___,0,$000
 dn ___,0,$000
 dn ___,0,$000
 dn G#5,1,$C00
 dn ___,0,$000
 dn ___,0,$000
 dn ___,0,$000

P112:
 dn E_5,15,$C0F
 dn E_5,15,$C07
 dn E_5,15,$C03
 dn ___,0,$000
 dn E_5,15,$C0F
 dn E_5,15,$C07
 dn E_5,15,$C03
 dn ___,0,$000
 dn E_5,15,$C00
 dn ___,0,$000
 dn ___,0,$000
 dn ___,0,$000
 dn D_5,15,$C0F
 dn D_5,15,$C07
 dn E_5,15,$C0F
 dn E_5,15,$C07
 dn G_5,15,$C0F
 dn G_5,15,$C07
 dn G_5,15,$C03
 dn ___,0,$000
 dn G_5,15,$C0F
 dn G_5,15,$C07
 dn G_5,15,$C03
 dn ___,0,$000
 dn G_5,15,$C00
 dn ___,0,$000
 dn D_5,15,$C0F
 dn D_5,15,$C07
 dn D_5,15,$C03
 dn ___,0,$000
 dn E_5,15,$C0F
 dn E_5,15,$C07
 dn C_5,15,$C0F
 dn C_5,15,$C07
 dn C#5,15,$C0F
 dn C#5,15,$C07
 dn A_5,15,$C0F
 dn A_5,15,$C07
 dn A_5,15,$C03
 dn ___,0,$000
 dn ___,0,$000
 dn ___,0,$E00
 dn A_5,15,$C00
 dn ___,0,$000
 dn ___,0,$000
 dn ___,0,$000
 dn ___,0,$000
 dn ___,0,$E00
 dn A_5,15,$C00
 dn ___,0,$000
 dn ___,0,$000
 dn ___,0,$000
 dn A_5,15,$C0F
 dn A_5,15,$C07
 dn B_5,15,$C0F
 dn B_5,15,$C07
 dn A_5,15,$C0F
 dn A_5,15,$C07
 dn B_5,15,$C03
 dn ___,0,$000
 dn A_5,15,$C00
 dn ___,0,$000
 dn B_5,15,$C00
 dn ___,0,$000

P113:
 dn ___,0,$000
 dn ___,0,$000
 dn ___,0,$000
 dn ___,0,$000
 dn ___,0,$000
 dn ___,0,$000
 dn ___,0,$000
 dn ___,0,$000
 dn ___,0,$000
 dn ___,0,$000
 dn ___,0,$000
 dn ___,0,$000
 dn ___,0,$000
 dn ___,0,$000
 dn ___,0,$000
 dn ___,0,$000
 dn ___,0,$000
 dn ___,0,$000
 dn ___,0,$000
 dn ___,0,$000
 dn ___,0,$000
 dn ___,0,$000
 dn ___,0,$000
 dn ___,0,$000
 dn ___,0,$000
 dn ___,0,$000
 dn ___,0,$000
 dn ___,0,$000
 dn ___,0,$000
 dn ___,0,$000
 dn ___,0,$000
 dn ___,0,$000
 dn ___,0,$000
 dn ___,0,$000
 dn ___,0,$000
 dn ___,0,$000
 dn ___,0,$000
 dn ___,0,$000
 dn ___,0,$000
 dn ___,0,$000
 dn ___,0,$000
 dn ___,0,$000
 dn ___,0,$000
 dn ___,0,$000
 dn ___,0,$000
 dn ___,0,$000
 dn ___,0,$000
 dn ___,0,$000
 dn ___,0,$000
 dn ___,0,$000
 dn ___,0,$000
 dn ___,0,$000
 dn ___,0,$000
 dn ___,0,$000
 dn ___,0,$000
 dn ___,0,$000
 dn ___,0,$000
 dn ___,0,$000
 dn ___,0,$000
 dn ___,0,$000
 dn ___,0,$000
 dn ___,0,$000
 dn ___,0,$000
 dn ___,0,$000

P120:
 dn B_5,4,$C03
 dn B_5,4,$C01
 dn F#6,4,$C03
 dn F#6,4,$C01
 dn B_6,4,$C03
 dn B_6,4,$C01
 dn F#5,4,$C03
 dn F#5,4,$C01
 dn B_5,4,$C03
 dn B_5,4,$C01
 dn F#6,4,$C03
 dn F#6,4,$C01
 dn B_4,4,$C03
 dn B_4,4,$C01
 dn F#5,4,$C03
 dn F#5,4,$C01
 dn B_5,4,$C03
 dn B_5,4,$C01
 dn B_5,4,$C03
 dn B_5,4,$C01
 dn F#6,4,$C03
 dn F#6,4,$C01
 dn B_6,4,$C03
 dn B_6,4,$C01
 dn F#5,4,$C03
 dn F#5,4,$C01
 dn B_5,4,$C03
 dn B_5,4,$C01
 dn F#6,4,$C03
 dn F#6,4,$C01
 dn B_6,4,$C03
 dn B_6,4,$C01
 dn B_5,4,$C03
 dn B_5,4,$C01
 dn F#6,4,$C03
 dn F#6,4,$C01
 dn B_6,4,$C03
 dn B_6,4,$C01
 dn F#5,4,$C03
 dn F#5,4,$C01
 dn B_5,4,$C03
 dn B_5,4,$C01
 dn F#6,4,$C03
 dn F#6,4,$C01
 dn B_4,4,$C03
 dn B_4,4,$C01
 dn F#5,4,$C03
 dn F#5,4,$C01
 dn B_5,4,$C03
 dn B_5,4,$C01
 dn B_5,4,$C03
 dn B_5,4,$C01
 dn F#6,4,$C03
 dn F#6,4,$C01
 dn B_6,4,$C03
 dn B_6,4,$C01
 dn F#5,4,$C03
 dn F#5,4,$C01
 dn B_5,4,$C03
 dn B_5,4,$C01
 dn F#6,4,$C03
 dn F#6,4,$C01
 dn B_6,4,$C03
 dn B_6,4,$C01

P121:
 dn ___,0,$000
 dn ___,0,$000
 dn F#6,1,$C07
 dn ___,0,$000
 dn ___,0,$E00
 dn ___,0,$000
 dn ___,0,$000
 dn F#6,1,$C07
 dn ___,0,$000
 dn ___,0,$E00
 dn ___,0,$000
 dn F#6,1,$C07
 dn ___,0,$000
 dn ___,0,$E00
 dn ___,0,$000
 dn F#6,1,$C07
 dn ___,0,$000
 dn ___,0,$E00
 dn F#6,1,$C07
 dn ___,0,$E00
 dn F_6,1,$C07
 dn ___,0,$E00
 dn F#6,1,$C07
 dn ___,0,$000
 dn F#6,1,$C07
 dn G#6,1,$C07
 dn ___,0,$000
 dn ___,0,$000
 dn D#7,1,$C07
 dn C#7,1,$C07
 dn ___,0,$000
 dn ___,0,$000
 dn ___,0,$000
 dn ___,0,$E00
 dn G#6,1,$C07
 dn ___,0,$000
 dn ___,0,$000
 dn B_6,1,$C07
 dn ___,0,$000
 dn ___,0,$E00
 dn G#6,1,$C07
 dn ___,0,$000
 dn ___,0,$000
 dn F#6,1,$C07
 dn ___,0,$000
 dn ___,0,$E00
 dn F_6,1,$C07
 dn ___,0,$000
 dn F#6,1,$C07
 dn ___,0,$000
 dn F_6,1,$C07
 dn ___,0,$000
 dn C#6,1,$C07
 dn ___,0,$E00
 dn G#5,1,$C07
 dn ___,0,$000
 dn ___,0,$000
 dn ___,0,$000
 dn ___,0,$000
 dn ___,0,$000
 dn G#5,1,$C00
 dn G#5,1,$C00
 dn G#5,1,$C00
 dn ___,0,$000

P122:
 dn E_5,15,$C0F
 dn E_5,15,$C07
 dn E_5,15,$C03
 dn ___,0,$000
 dn E_5,15,$C0F
 dn E_5,15,$C07
 dn E_5,15,$C03
 dn ___,0,$000
 dn E_5,15,$C00
 dn ___,0,$000
 dn ___,0,$000
 dn ___,0,$000
 dn E_5,15,$C00
 dn ___,0,$000
 dn E_5,15,$C0F
 dn E_5,15,$C07
 dn G_5,15,$C0F
 dn G_5,15,$C07
 dn G_5,15,$C03
 dn ___,0,$000
 dn G_5,15,$C0F
 dn G_5,15,$C07
 dn G_5,15,$C03
 dn ___,0,$000
 dn G_5,15,$C00
 dn ___,0,$000
 dn D_5,15,$C0F
 dn D_5,15,$C07
 dn D_5,15,$C03
 dn ___,0,$000
 dn E_5,15,$C0F
 dn E_5,15,$C07
 dn A_5,15,$C0F
 dn A_5,15,$C07
 dn A_5,15,$C03
 dn ___,0,$000
 dn A_5,15,$C0F
 dn A_5,15,$C07
 dn A_5,15,$C03
 dn ___,0,$000
 dn ___,0,$000
 dn ___,0,$000
 dn A_5,15,$C00
 dn ___,0,$000
 dn ___,0,$E00
 dn ___,0,$000
 dn A_5,15,$C00
 dn ___,0,$E00
 dn A_5,15,$C00
 dn ___,0,$000
 dn ___,0,$E00
 dn ___,0,$000
 dn A_5,15,$C00
 dn ___,0,$E00
 dn A_5,15,$C00
 dn ___,0,$000
 dn ___,0,$E00
 dn ___,0,$000
 dn A_5,15,$C00
 dn ___,0,$E00
 dn A_5,15,$C08
 dn ___,0,$000
 dn B_5,15,$C0F
 dn B_5,15,$C07

P123:
 dn ___,0,$000
 dn ___,0,$000
 dn ___,0,$000
 dn ___,0,$000
 dn ___,0,$000
 dn ___,0,$000
 dn ___,0,$000
 dn ___,0,$000
 dn ___,0,$000
 dn ___,0,$000
 dn ___,0,$000
 dn ___,0,$000
 dn ___,0,$000
 dn ___,0,$000
 dn ___,0,$000
 dn ___,0,$000
 dn ___,0,$000
 dn ___,0,$000
 dn ___,0,$000
 dn ___,0,$000
 dn ___,0,$000
 dn ___,0,$000
 dn ___,0,$000
 dn ___,0,$000
 dn ___,0,$000
 dn ___,0,$000
 dn ___,0,$000
 dn ___,0,$000
 dn ___,0,$000
 dn ___,0,$000
 dn ___,0,$000
 dn ___,0,$000
 dn ___,0,$000
 dn ___,0,$000
 dn ___,0,$000
 dn ___,0,$000
 dn ___,0,$000
 dn ___,0,$000
 dn ___,0,$000
 dn ___,0,$000
 dn ___,0,$000
 dn ___,0,$000
 dn ___,0,$000
 dn ___,0,$000
 dn ___,0,$000
 dn ___,0,$000
 dn ___,0,$000
 dn ___,0,$000
 dn ___,0,$000
 dn ___,0,$000
 dn ___,0,$000
 dn ___,0,$000
 dn ___,0,$000
 dn ___,0,$000
 dn ___,0,$000
 dn ___,0,$000
 dn ___,0,$000
 dn ___,0,$000
 dn ___,0,$000
 dn ___,0,$000
 dn ___,0,$000
 dn ___,0,$000
 dn ___,0,$000
 dn ___,0,$000

P130:
 dn B_5,4,$C03
 dn B_5,4,$C01
 dn F#6,4,$C03
 dn F#6,4,$C01
 dn B_6,4,$C03
 dn B_6,4,$C01
 dn F#5,4,$C03
 dn F#5,4,$C01
 dn B_5,4,$C03
 dn B_5,4,$C01
 dn F#6,4,$C03
 dn F#6,4,$C01
 dn B_4,4,$C03
 dn B_4,4,$C01
 dn F#5,4,$C03
 dn F#5,4,$C01
 dn B_5,4,$C03
 dn B_5,4,$C01
 dn B_5,4,$C03
 dn B_5,4,$C01
 dn F#6,4,$C03
 dn F#6,4,$C01
 dn B_6,4,$C03
 dn B_6,4,$C01
 dn F#5,4,$C03
 dn F#5,4,$C01
 dn B_5,4,$C03
 dn B_5,4,$C01
 dn F#6,4,$C03
 dn F#6,4,$C01
 dn B_6,4,$C03
 dn B_6,4,$C01
 dn B_5,4,$C03
 dn B_5,4,$C01
 dn F#6,4,$C03
 dn F#6,4,$C01
 dn B_6,4,$C03
 dn B_6,4,$C01
 dn F#5,4,$C03
 dn F#5,4,$C01
 dn B_5,4,$C03
 dn B_5,4,$C01
 dn F#6,4,$C03
 dn F#6,4,$C01
 dn B_4,4,$C03
 dn B_4,4,$C01
 dn F#5,4,$C03
 dn F#5,4,$C01
 dn B_5,4,$C03
 dn B_5,4,$C01
 dn B_5,4,$C03
 dn B_5,4,$C01
 dn F#6,4,$C03
 dn F#6,4,$C01
 dn B_6,4,$C03
 dn B_6,4,$C01
 dn F#5,4,$C03
 dn F#5,4,$C01
 dn B_5,4,$C03
 dn B_5,4,$C01
 dn F#6,4,$C03
 dn F#6,4,$C01
 dn B_6,4,$C03
 dn B_6,4,$C01

P131:
 dn B_5,1,$C07
 dn ___,0,$E00
 dn B_5,1,$C07
 dn ___,0,$E00
 dn F#5,1,$C07
 dn ___,0,$000
 dn G#5,1,$C07
 dn ___,0,$000
 dn C#6,1,$C07
 dn ___,0,$E00
 dn C#6,1,$C07
 dn ___,0,$E00
 dn F#5,1,$C07
 dn ___,0,$000
 dn G#5,1,$C07
 dn ___,0,$000
 dn D_6,1,$C07
 dn ___,0,$E00
 dn D_6,1,$C07
 dn ___,0,$E00
 dn F#5,1,$C07
 dn ___,0,$000
 dn G#5,1,$C07
 dn ___,0,$000
 dn D#6,1,$C07
 dn ___,0,$E00
 dn D#6,1,$C07
 dn ___,0,$E00
 dn F#5,1,$C07
 dn ___,0,$000
 dn G#5,1,$C07
 dn ___,0,$000
 dn C#6,1,$C07
 dn ___,0,$000
 dn G#6,1,$C07
 dn G#6,1,$C00
 dn F_5,1,$C07
 dn ___,0,$000
 dn G#5,1,$C07
 dn ___,0,$000
 dn F_6,1,$C07
 dn F_6,1,$C00
 dn G#5,1,$C07
 dn ___,0,$000
 dn C#6,1,$C07
 dn ___,0,$000
 dn C#5,1,$C07
 dn ___,0,$000
 dn ___,0,$000
 dn ___,0,$000
 dn ___,0,$000
 dn ___,0,$000
 dn ___,0,$000
 dn ___,0,$000
 dn ___,0,$000
 dn ___,0,$000
 dn C#5,1,$C01
 dn C#5,1,$C01
 dn C#5,1,$C00
 dn C#5,1,$C00
 dn C#5,1,$C00
 dn ___,0,$000
 dn ___,0,$000
 dn ___,0,$000

P132:
 dn E_5,15,$C0F
 dn E_5,15,$C07
 dn E_5,15,$C03
 dn ___,0,$000
 dn E_5,15,$C0F
 dn E_5,15,$C07
 dn E_5,15,$C03
 dn ___,0,$000
 dn E_5,15,$C00
 dn ___,0,$000
 dn ___,0,$000
 dn ___,0,$000
 dn D_5,15,$C0F
 dn D_5,15,$C07
 dn E_5,15,$C0F
 dn E_5,15,$C07
 dn G_5,15,$C0F
 dn G_5,15,$C07
 dn G_5,15,$C03
 dn ___,0,$000
 dn G_5,15,$C0F
 dn G_5,15,$C07
 dn G_5,15,$C03
 dn ___,0,$000
 dn G_5,15,$C00
 dn ___,0,$000
 dn D_5,15,$C0F
 dn D_5,15,$C07
 dn D_5,15,$C03
 dn ___,0,$000
 dn E_5,15,$C0F
 dn E_5,15,$C07
 dn C_5,15,$C0F
 dn C_5,15,$C07
 dn C#5,15,$C0F
 dn C#5,15,$C07
 dn A_5,15,$C0F
 dn A_5,15,$C07
 dn A_5,15,$C03
 dn ___,0,$000
 dn ___,0,$000
 dn ___,0,$E00
 dn A_5,15,$C00
 dn ___,0,$000
 dn ___,0,$000
 dn ___,0,$000
 dn ___,0,$000
 dn ___,0,$E00
 dn A_5,15,$C00
 dn ___,0,$000
 dn ___,0,$000
 dn ___,0,$000
 dn A_5,15,$C0F
 dn A_5,15,$C07
 dn B_5,15,$C0F
 dn B_5,15,$C07
 dn A_5,15,$C03
 dn ___,0,$000
 dn B_5,15,$C01
 dn ___,0,$000
 dn A_5,15,$C00
 dn ___,0,$000
 dn B_5,15,$C00
 dn ___,0,$000

P133:
 dn ___,0,$000
 dn ___,0,$000
 dn ___,0,$000
 dn ___,0,$000
 dn ___,0,$000
 dn ___,0,$000
 dn ___,0,$000
 dn ___,0,$000
 dn ___,0,$000
 dn ___,0,$000
 dn ___,0,$000
 dn ___,0,$000
 dn ___,0,$000
 dn ___,0,$000
 dn ___,0,$000
 dn ___,0,$000
 dn ___,0,$000
 dn ___,0,$000
 dn ___,0,$000
 dn ___,0,$000
 dn ___,0,$000
 dn ___,0,$000
 dn ___,0,$000
 dn ___,0,$000
 dn ___,0,$000
 dn ___,0,$000
 dn ___,0,$000
 dn ___,0,$000
 dn ___,0,$000
 dn ___,0,$000
 dn ___,0,$000
 dn ___,0,$000
 dn ___,0,$000
 dn ___,0,$000
 dn ___,0,$000
 dn ___,0,$000
 dn ___,0,$000
 dn ___,0,$000
 dn ___,0,$000
 dn ___,0,$000
 dn ___,0,$000
 dn ___,0,$000
 dn ___,0,$000
 dn ___,0,$000
 dn ___,0,$000
 dn ___,0,$000
 dn ___,0,$000
 dn ___,0,$000
 dn ___,0,$000
 dn ___,0,$000
 dn ___,0,$000
 dn ___,0,$000
 dn ___,0,$000
 dn ___,0,$000
 dn ___,0,$000
 dn ___,0,$000
 dn ___,0,$000
 dn ___,0,$000
 dn ___,0,$000
 dn ___,0,$000
 dn ___,0,$000
 dn ___,0,$000
 dn ___,0,$000
 dn ___,0,$000

duty_instruments:
itSquareinst1: db 8,64,240,128
itSquareinst2: db 8,128,240,128
itSquareinst3: db 8,192,240,128
itSquareinst4: db 8,0,240,128
itSquareinst5: db 8,128,240,128
itSquareinst6: db 8,128,240,128
itSquareinst7: db 8,128,240,128
itSquareinst8: db 8,128,240,128
itSquareinst9: db 8,128,240,128
itSquareinst10: db 8,128,240,128
itSquareinst11: db 8,128,240,128
itSquareinst12: db 8,128,240,128
itSquareinst13: db 8,128,240,128
itSquareinst14: db 8,128,240,128
itSquareinst15: db 8,128,240,128


wave_instruments:
itWaveinst1: db 0,32,0,128
itWaveinst2: db 0,32,1,128
itWaveinst3: db 0,32,2,128
itWaveinst4: db 0,32,3,128
itWaveinst5: db 0,32,4,128
itWaveinst6: db 0,32,5,128
itWaveinst7: db 0,32,6,128
itWaveinst8: db 0,32,0,128
itWaveinst9: db 0,32,1,128
itWaveinst10: db 0,32,2,128
itWaveinst11: db 0,32,3,128
itWaveinst12: db 0,32,4,128
itWaveinst13: db 0,32,5,128
itWaveinst14: db 0,32,6,128
itWaveinst15: db 0,32,7,128


noise_instruments:
itNoiseinst1: db 240,0,0,0,0,0,0,0
itNoiseinst2: db 240,0,0,0,0,0,0,0
itNoiseinst3: db 240,0,0,0,0,0,0,0
itNoiseinst4: db 240,0,0,0,0,0,0,0
itNoiseinst5: db 240,0,0,0,0,0,0,0
itNoiseinst6: db 240,0,0,0,0,0,0,0
itNoiseinst7: db 240,0,0,0,0,0,0,0
itNoiseinst8: db 240,0,0,0,0,0,0,0
itNoiseinst9: db 240,0,0,0,0,0,0,0
itNoiseinst10: db 240,0,0,0,0,0,0,0
itNoiseinst11: db 240,0,0,0,0,0,0,0
itNoiseinst12: db 240,0,0,0,0,0,0,0
itNoiseinst13: db 240,0,0,0,0,0,0,0
itNoiseinst14: db 240,0,0,0,0,0,0,0
itNoiseinst15: db 240,0,0,0,0,0,0,0


routines:
__hUGE_Routine_0:

__end_hUGE_Routine_0:
ret

__hUGE_Routine_1:

__end_hUGE_Routine_1:
ret

__hUGE_Routine_2:

__end_hUGE_Routine_2:
ret

__hUGE_Routine_3:

__end_hUGE_Routine_3:
ret

__hUGE_Routine_4:

__end_hUGE_Routine_4:
ret

__hUGE_Routine_5:

__end_hUGE_Routine_5:
ret

__hUGE_Routine_6:

__end_hUGE_Routine_6:
ret

__hUGE_Routine_7:

__end_hUGE_Routine_7:
ret

__hUGE_Routine_8:

__end_hUGE_Routine_8:
ret

__hUGE_Routine_9:

__end_hUGE_Routine_9:
ret

__hUGE_Routine_10:

__end_hUGE_Routine_10:
ret

__hUGE_Routine_11:

__end_hUGE_Routine_11:
ret

__hUGE_Routine_12:

__end_hUGE_Routine_12:
ret

__hUGE_Routine_13:

__end_hUGE_Routine_13:
ret

__hUGE_Routine_14:

__end_hUGE_Routine_14:
ret

__hUGE_Routine_15:

__end_hUGE_Routine_15:
ret

waves:
wave0: db 165,215,201,225,188,154,118,49,12,186,222,96,27,202,3,147
wave1: db 240,225,210,195,180,165,150,135,120,105,90,75,60,45,30,15
wave2: db 253,236,219,202,185,168,151,134,121,104,87,70,53,36,19,2
wave3: db 222,254,220,186,154,169,135,119,136,135,101,86,84,50,16,18
wave4: db 171,205,239,237,203,160,18,62,220,186,188,222,254,220,50,16
wave5: db 255,238,221,204,187,170,153,136,119,102,85,68,51,34,17,0
wave6: db 255,255,255,255,255,255,255,255,0,0,0,0,0,0,0,0
wave7: db 121,188,222,239,255,238,220,185,117,67,33,16,0,17,35,69
wave8: db 104,17,110,100,11,209,219,70,221,139,186,3,212,28,21,53
wave9: db 214,131,16,199,195,171,75,146,92,65,2,211,214,204,67,71
wave10: db 171,228,173,76,62,18,227,148,11,30,3,156,14,129,37,30
wave11: db 109,187,69,119,54,144,172,38,164,141,18,201,224,117,102,12
wave12: db 68,157,40,203,69,52,102,56,170,180,189,214,187,118,218,82
wave13: db 219,83,129,71,13,188,54,173,17,8,186,145,69,91,152,224
wave14: db 129,211,183,55,153,133,171,17,228,72,94,137,221,128,5,221
wave15: db 84,1,97,152,89,80,126,170,1,199,4,80,230,160,180,138

