include "./src/include/hUGE.inc"

SECTION "Song Data", ROMX

CombatBGM::
db 7
dw order_cnt
dw order1, order2, order3, order4
dw duty_instruments, wave_instruments, noise_instruments
dw routines
dw waves

order_cnt: db 66
order1: dw P0,P10,P20,P30,P40,P30,P50,P60,P50,P60,P70,P80,P70,P80,P90,P100,P20,P30,P20,P30,P50,P60,P50,P60,P110,P120,P130,P140,P140,P70,P80,P70,P80
order2: dw P1,P11,P21,P31,P41,P31,P51,P61,P51,P61,P71,P81,P71,P81,P91,P101,P21,P31,P21,P31,P51,P61,P51,P61,P111,P121,P131,P141,P141,P71,P81,P71,P81
order3: dw P2,P12,P22,P32,P42,P32,P52,P62,P52,P62,P72,P82,P72,P82,P92,P102,P22,P32,P22,P32,P52,P62,P52,P62,P112,P122,P132,P142,P142,P72,P82,P72,P82
order4: dw P3,P13,P23,P33,P43,P33,P53,P63,P53,P63,P73,P83,P73,P83,P93,P103,P23,P33,P23,P33,P53,P63,P53,P63,P113,P123,P133,P143,P143,P73,P83,P73,P83

P0:
 dn ___,0,$F04
 dn ___,0,$E00
 dn ___,0,$000
 dn ___,0,$000
 dn ___,0,$000
 dn ___,0,$000
 dn ___,0,$000
 dn ___,0,$000
 dn ___,0,$000
 dn ___,0,$000
 dn ___,0,$000
 dn ___,0,$000
 dn ___,0,$000
 dn ___,0,$000
 dn ___,0,$000
 dn ___,0,$000
 dn ___,0,$000
 dn ___,0,$000
 dn ___,0,$000
 dn ___,0,$000
 dn ___,0,$000
 dn ___,0,$000
 dn ___,0,$000
 dn ___,0,$000
 dn ___,0,$000
 dn ___,0,$000
 dn ___,0,$000
 dn ___,0,$000
 dn ___,0,$000
 dn ___,0,$000
 dn ___,0,$000
 dn ___,0,$000
 dn ___,0,$000
 dn ___,0,$000
 dn ___,0,$000
 dn ___,0,$000
 dn ___,0,$000
 dn ___,0,$000
 dn ___,0,$000
 dn ___,0,$000
 dn ___,0,$000
 dn ___,0,$000
 dn ___,0,$000
 dn ___,0,$000
 dn ___,0,$000
 dn ___,0,$000
 dn ___,0,$000
 dn ___,0,$000
 dn ___,0,$000
 dn ___,0,$000
 dn ___,0,$000
 dn ___,0,$000
 dn ___,0,$000
 dn ___,0,$000
 dn ___,0,$000
 dn ___,0,$000
 dn ___,0,$000
 dn ___,0,$000
 dn ___,0,$000
 dn ___,0,$000
 dn C_6,4,$C00
 dn C_6,4,$C00
 dn C_6,4,$C01
 dn C_6,4,$C01

P1:
 dn G_5,2,$C07
 dn ___,0,$000
 dn G_5,2,$C03
 dn ___,0,$000
 dn G_5,2,$C01
 dn ___,0,$000
 dn ___,0,$000
 dn ___,0,$000
 dn ___,0,$000
 dn ___,0,$000
 dn ___,0,$000
 dn ___,0,$000
 dn C_6,2,$C07
 dn ___,0,$000
 dn C_6,2,$C03
 dn ___,0,$000
 dn C_6,2,$C01
 dn ___,0,$000
 dn ___,0,$000
 dn ___,0,$000
 dn ___,0,$000
 dn ___,0,$000
 dn ___,0,$000
 dn ___,0,$000
 dn ___,0,$000
 dn ___,0,$000
 dn ___,0,$000
 dn ___,0,$000
 dn ___,0,$000
 dn ___,0,$000
 dn ___,0,$000
 dn ___,0,$000
 dn D_6,2,$C07
 dn ___,0,$000
 dn D_6,2,$C03
 dn ___,0,$000
 dn D_6,2,$C01
 dn ___,0,$000
 dn ___,0,$000
 dn ___,0,$000
 dn ___,0,$000
 dn ___,0,$000
 dn ___,0,$000
 dn ___,0,$000
 dn C_6,2,$C07
 dn ___,0,$000
 dn C_6,2,$C03
 dn ___,0,$000
 dn C_6,2,$C01
 dn ___,0,$000
 dn ___,0,$000
 dn ___,0,$000
 dn ___,0,$000
 dn ___,0,$000
 dn ___,0,$000
 dn ___,0,$000
 dn ___,0,$000
 dn ___,0,$000
 dn ___,0,$000
 dn ___,0,$000
 dn ___,0,$000
 dn ___,0,$000
 dn ___,0,$000
 dn ___,0,$000

P2:
 dn ___,0,$E00
 dn ___,0,$000
 dn ___,0,$000
 dn ___,0,$000
 dn ___,0,$000
 dn ___,0,$000
 dn ___,0,$000
 dn ___,0,$000
 dn ___,0,$000
 dn ___,0,$000
 dn ___,0,$000
 dn ___,0,$000
 dn ___,0,$000
 dn ___,0,$000
 dn ___,0,$000
 dn ___,0,$000
 dn ___,0,$000
 dn ___,0,$000
 dn ___,0,$000
 dn ___,0,$000
 dn ___,0,$000
 dn ___,0,$000
 dn ___,0,$000
 dn ___,0,$000
 dn ___,0,$000
 dn ___,0,$000
 dn ___,0,$000
 dn ___,0,$000
 dn ___,0,$000
 dn ___,0,$000
 dn ___,0,$000
 dn ___,0,$000
 dn ___,0,$000
 dn ___,0,$000
 dn ___,0,$000
 dn ___,0,$000
 dn ___,0,$000
 dn ___,0,$000
 dn ___,0,$000
 dn ___,0,$000
 dn ___,0,$000
 dn ___,0,$000
 dn ___,0,$000
 dn ___,0,$000
 dn ___,0,$000
 dn ___,0,$000
 dn ___,0,$000
 dn ___,0,$000
 dn ___,0,$000
 dn ___,0,$000
 dn ___,0,$000
 dn ___,0,$000
 dn ___,0,$000
 dn ___,0,$000
 dn ___,0,$000
 dn ___,0,$000
 dn ___,0,$000
 dn ___,0,$000
 dn ___,0,$000
 dn ___,0,$000
 dn ___,0,$000
 dn ___,0,$000
 dn ___,0,$000
 dn ___,0,$000

P3:
 dn C_5,15,$C07
 dn ___,0,$E00
 dn C_6,15,$C03
 dn ___,0,$E00
 dn C_6,15,$C03
 dn ___,0,$E00
 dn C_6,15,$C03
 dn ___,0,$E00
 dn C_6,15,$C07
 dn ___,0,$E00
 dn ___,0,$000
 dn C_6,15,$C01
 dn C_6,15,$C03
 dn ___,0,$E00
 dn C_6,15,$C03
 dn ___,0,$E00
 dn C_5,15,$C07
 dn ___,0,$E00
 dn C_6,15,$C03
 dn ___,0,$E00
 dn C_5,15,$C07
 dn ___,0,$E00
 dn C_6,15,$C03
 dn ___,0,$E00
 dn C_6,15,$C07
 dn ___,0,$E00
 dn C_6,15,$C03
 dn ___,0,$E00
 dn C_6,15,$C03
 dn ___,0,$E00
 dn ___,0,$000
 dn ___,0,$000
 dn C_5,15,$C07
 dn ___,0,$E00
 dn C_6,15,$C03
 dn ___,0,$E00
 dn C_6,15,$C03
 dn ___,0,$E00
 dn C_6,15,$C03
 dn ___,0,$E00
 dn C_6,15,$C07
 dn ___,0,$E00
 dn ___,0,$000
 dn C_6,15,$C01
 dn C_6,15,$C03
 dn ___,0,$E00
 dn C_6,15,$C03
 dn ___,0,$E00
 dn C_5,15,$C07
 dn ___,0,$E00
 dn C_6,15,$C03
 dn ___,0,$E00
 dn C_5,15,$C07
 dn ___,0,$E00
 dn C_6,15,$C03
 dn ___,0,$E00
 dn C_6,15,$C07
 dn ___,0,$E00
 dn ___,0,$000
 dn ___,0,$000
 dn C_6,15,$C03
 dn ___,0,$E00
 dn ___,0,$000
 dn ___,0,$000

P10:
 dn C_6,4,$C03
 dn ___,0,$000
 dn ___,0,$000
 dn ___,0,$000
 dn ___,0,$000
 dn ___,0,$000
 dn ___,0,$000
 dn ___,0,$000
 dn ___,0,$000
 dn ___,0,$000
 dn C_6,4,$C01
 dn ___,0,$000
 dn ___,0,$000
 dn ___,0,$000
 dn ___,0,$000
 dn ___,0,$000
 dn ___,0,$000
 dn ___,0,$000
 dn ___,0,$000
 dn ___,0,$000
 dn C_6,4,$C01
 dn ___,0,$000
 dn ___,0,$000
 dn ___,0,$000
 dn ___,0,$000
 dn ___,0,$000
 dn ___,0,$000
 dn ___,0,$000
 dn ___,0,$000
 dn ___,0,$000
 dn C_6,4,$C00
 dn ___,0,$000
 dn ___,0,$000
 dn ___,0,$000
 dn ___,0,$000
 dn ___,0,$000
 dn ___,0,$000
 dn ___,0,$000
 dn ___,0,$000
 dn ___,0,$000
 dn ___,0,$E00
 dn ___,0,$000
 dn ___,0,$000
 dn ___,0,$000
 dn ___,0,$000
 dn ___,0,$000
 dn ___,0,$000
 dn ___,0,$000
 dn ___,0,$000
 dn ___,0,$000
 dn ___,0,$000
 dn ___,0,$000
 dn ___,0,$000
 dn ___,0,$000
 dn ___,0,$000
 dn ___,0,$000
 dn ___,0,$000
 dn ___,0,$000
 dn C_6,4,$C00
 dn C_6,4,$C00
 dn C_6,4,$C01
 dn C_6,4,$C01
 dn C_6,4,$C03
 dn C_6,4,$C04

P11:
 dn G_5,2,$C07
 dn ___,0,$000
 dn G_5,2,$C03
 dn ___,0,$000
 dn G_5,2,$C01
 dn ___,0,$000
 dn ___,0,$000
 dn ___,0,$000
 dn ___,0,$000
 dn ___,0,$000
 dn ___,0,$000
 dn ___,0,$000
 dn C_6,2,$C07
 dn ___,0,$000
 dn C_6,2,$C03
 dn ___,0,$000
 dn C_6,2,$C01
 dn ___,0,$000
 dn ___,0,$000
 dn ___,0,$000
 dn ___,0,$000
 dn ___,0,$000
 dn ___,0,$000
 dn ___,0,$000
 dn ___,0,$000
 dn ___,0,$000
 dn ___,0,$000
 dn ___,0,$000
 dn ___,0,$000
 dn ___,0,$000
 dn ___,0,$000
 dn ___,0,$000
 dn D_6,2,$C07
 dn ___,0,$000
 dn D_6,2,$C03
 dn ___,0,$000
 dn D_6,2,$C01
 dn ___,0,$000
 dn ___,0,$000
 dn ___,0,$000
 dn ___,0,$000
 dn ___,0,$000
 dn ___,0,$000
 dn ___,0,$000
 dn D_6,2,$C07
 dn ___,0,$000
 dn D_6,2,$C03
 dn ___,0,$000
 dn D_6,2,$C01
 dn ___,0,$000
 dn ___,0,$000
 dn ___,0,$000
 dn ___,0,$000
 dn ___,0,$000
 dn ___,0,$000
 dn ___,0,$000
 dn ___,0,$000
 dn ___,0,$000
 dn ___,0,$000
 dn ___,0,$000
 dn ___,0,$000
 dn ___,0,$000
 dn ___,0,$000
 dn ___,0,$000

P12:
 dn ___,0,$000
 dn ___,0,$000
 dn ___,0,$000
 dn ___,0,$000
 dn ___,0,$000
 dn ___,0,$000
 dn ___,0,$000
 dn ___,0,$000
 dn ___,0,$000
 dn ___,0,$000
 dn ___,0,$000
 dn ___,0,$000
 dn ___,0,$000
 dn ___,0,$000
 dn ___,0,$000
 dn ___,0,$000
 dn ___,0,$000
 dn ___,0,$000
 dn ___,0,$000
 dn ___,0,$000
 dn ___,0,$000
 dn ___,0,$000
 dn ___,0,$000
 dn ___,0,$000
 dn ___,0,$000
 dn ___,0,$000
 dn ___,0,$000
 dn ___,0,$000
 dn ___,0,$000
 dn ___,0,$000
 dn ___,0,$000
 dn ___,0,$000
 dn ___,0,$000
 dn ___,0,$000
 dn ___,0,$000
 dn ___,0,$000
 dn ___,0,$000
 dn ___,0,$000
 dn ___,0,$000
 dn ___,0,$000
 dn ___,0,$000
 dn ___,0,$000
 dn ___,0,$000
 dn ___,0,$000
 dn ___,0,$000
 dn ___,0,$000
 dn ___,0,$000
 dn ___,0,$000
 dn ___,0,$000
 dn ___,0,$000
 dn ___,0,$000
 dn ___,0,$000
 dn ___,0,$000
 dn ___,0,$000
 dn ___,0,$000
 dn ___,0,$000
 dn ___,0,$000
 dn ___,0,$000
 dn ___,0,$000
 dn ___,0,$000
 dn ___,0,$000
 dn ___,0,$000
 dn ___,0,$000
 dn ___,0,$000

P13:
 dn C_5,15,$C07
 dn ___,0,$E00
 dn C_6,15,$C03
 dn ___,0,$E00
 dn C_6,15,$C03
 dn ___,0,$E00
 dn C_6,15,$C03
 dn ___,0,$E00
 dn C_6,15,$C07
 dn ___,0,$E00
 dn ___,0,$000
 dn C_6,15,$C01
 dn C_6,15,$C03
 dn ___,0,$E00
 dn C_6,15,$C03
 dn ___,0,$E00
 dn C_5,15,$C07
 dn ___,0,$E00
 dn C_6,15,$C03
 dn ___,0,$E00
 dn C_5,15,$C07
 dn ___,0,$E00
 dn C_6,15,$C03
 dn ___,0,$E00
 dn C_6,15,$C07
 dn ___,0,$E00
 dn C_6,15,$C03
 dn ___,0,$E00
 dn C_6,15,$C03
 dn ___,0,$E00
 dn ___,0,$000
 dn ___,0,$000
 dn C_5,15,$C07
 dn ___,0,$E00
 dn C_6,15,$C03
 dn ___,0,$E00
 dn C_6,15,$C03
 dn ___,0,$E00
 dn C_6,15,$C03
 dn ___,0,$E00
 dn C_6,15,$C07
 dn ___,0,$E00
 dn ___,0,$000
 dn C_6,15,$C01
 dn C_6,15,$C03
 dn ___,0,$E00
 dn C_6,15,$C03
 dn ___,0,$E00
 dn C_5,15,$C07
 dn ___,0,$E00
 dn C_6,15,$C03
 dn ___,0,$E00
 dn C_5,15,$C07
 dn ___,0,$E00
 dn C_6,15,$C03
 dn ___,0,$E00
 dn C_5,15,$C07
 dn C_6,6,$C03
 dn C_6,6,$C01
 dn C_6,6,$C00
 dn ___,0,$E00
 dn ___,0,$000
 dn C_5,15,$C07
 dn ___,0,$000

P20:
 dn E_6,4,$C07
 dn ___,0,$000
 dn ___,0,$000
 dn ___,0,$000
 dn C_6,4,$C07
 dn ___,0,$000
 dn ___,0,$000
 dn ___,0,$000
 dn C_6,4,$C07
 dn ___,0,$000
 dn ___,0,$000
 dn ___,0,$000
 dn ___,0,$000
 dn ___,0,$000
 dn ___,0,$000
 dn ___,0,$000
 dn ___,0,$000
 dn ___,0,$000
 dn ___,0,$000
 dn ___,0,$000
 dn ___,0,$000
 dn ___,0,$000
 dn ___,0,$000
 dn ___,0,$000
 dn C_6,4,$C07
 dn ___,0,$000
 dn ___,0,$000
 dn ___,0,$000
 dn D_6,4,$C07
 dn ___,0,$000
 dn ___,0,$000
 dn ___,0,$000
 dn ___,0,$000
 dn ___,0,$000
 dn ___,0,$000
 dn ___,0,$000
 dn ___,0,$000
 dn ___,0,$000
 dn ___,0,$000
 dn ___,0,$000
 dn C_6,4,$C07
 dn ___,0,$000
 dn ___,0,$000
 dn ___,0,$000
 dn F_6,4,$C07
 dn ___,0,$000
 dn ___,0,$000
 dn ___,0,$000
 dn ___,0,$000
 dn ___,0,$000
 dn ___,0,$000
 dn ___,0,$000
 dn G_6,4,$C07
 dn ___,0,$000
 dn ___,0,$000
 dn ___,0,$000
 dn ___,0,$000
 dn ___,0,$000
 dn ___,0,$000
 dn ___,0,$000
 dn ___,0,$000
 dn ___,0,$000
 dn ___,0,$000
 dn ___,0,$000

P21:
 dn G_5,2,$C07
 dn ___,0,$000
 dn G_5,2,$C03
 dn ___,0,$000
 dn G_5,2,$C01
 dn ___,0,$000
 dn ___,0,$000
 dn ___,0,$000
 dn G_5,2,$C07
 dn ___,0,$000
 dn G_5,2,$C03
 dn ___,0,$000
 dn C_6,2,$C07
 dn ___,0,$000
 dn C_6,2,$C03
 dn ___,0,$000
 dn C_6,2,$C01
 dn ___,0,$000
 dn ___,0,$000
 dn ___,0,$000
 dn ___,0,$000
 dn ___,0,$000
 dn ___,0,$000
 dn ___,0,$000
 dn ___,0,$000
 dn ___,0,$000
 dn ___,0,$000
 dn ___,0,$000
 dn G_5,2,$C07
 dn ___,0,$000
 dn G_5,2,$C03
 dn ___,0,$000
 dn D_6,2,$C07
 dn ___,0,$000
 dn D_6,2,$C03
 dn ___,0,$000
 dn D_6,2,$C01
 dn ___,0,$000
 dn ___,0,$000
 dn ___,0,$000
 dn ___,0,$000
 dn ___,0,$000
 dn ___,0,$000
 dn ___,0,$000
 dn C_6,2,$C07
 dn ___,0,$000
 dn C_6,2,$C03
 dn ___,0,$000
 dn C_6,2,$C01
 dn ___,0,$000
 dn ___,0,$000
 dn ___,0,$000
 dn G_5,2,$C07
 dn ___,0,$000
 dn G_5,2,$C03
 dn ___,0,$000
 dn C_6,2,$C07
 dn ___,0,$000
 dn C_6,2,$C03
 dn ___,0,$000
 dn C_6,2,$C01
 dn ___,0,$000
 dn ___,0,$000
 dn ___,0,$000

P22:
 dn ___,0,$000
 dn ___,0,$000
 dn ___,0,$000
 dn ___,0,$000
 dn ___,0,$000
 dn ___,0,$000
 dn ___,0,$000
 dn ___,0,$000
 dn ___,0,$000
 dn ___,0,$000
 dn ___,0,$000
 dn ___,0,$000
 dn ___,0,$000
 dn ___,0,$000
 dn ___,0,$000
 dn ___,0,$000
 dn ___,0,$000
 dn ___,0,$000
 dn ___,0,$000
 dn ___,0,$000
 dn ___,0,$000
 dn ___,0,$000
 dn ___,0,$000
 dn ___,0,$000
 dn ___,0,$000
 dn ___,0,$000
 dn ___,0,$000
 dn ___,0,$000
 dn ___,0,$000
 dn ___,0,$000
 dn ___,0,$000
 dn ___,0,$000
 dn ___,0,$000
 dn ___,0,$000
 dn ___,0,$000
 dn ___,0,$000
 dn ___,0,$000
 dn ___,0,$000
 dn ___,0,$000
 dn ___,0,$000
 dn ___,0,$000
 dn ___,0,$000
 dn ___,0,$000
 dn ___,0,$000
 dn ___,0,$000
 dn ___,0,$000
 dn ___,0,$000
 dn ___,0,$000
 dn ___,0,$000
 dn ___,0,$000
 dn ___,0,$000
 dn ___,0,$000
 dn ___,0,$000
 dn ___,0,$000
 dn ___,0,$000
 dn ___,0,$000
 dn ___,0,$000
 dn ___,0,$000
 dn ___,0,$000
 dn ___,0,$000
 dn ___,0,$000
 dn ___,0,$000
 dn ___,0,$000
 dn ___,0,$000

P23:
 dn C_5,15,$C07
 dn ___,0,$E00
 dn C_6,15,$C03
 dn ___,0,$E00
 dn C_6,15,$C03
 dn ___,0,$E00
 dn C_6,15,$C03
 dn ___,0,$E00
 dn C_6,15,$C07
 dn ___,0,$E00
 dn ___,0,$000
 dn C_6,15,$C01
 dn C_6,15,$C03
 dn ___,0,$E00
 dn C_6,15,$C03
 dn ___,0,$E00
 dn C_5,15,$C07
 dn ___,0,$E00
 dn C_6,15,$C03
 dn ___,0,$E00
 dn C_5,15,$C07
 dn ___,0,$E00
 dn C_6,15,$C03
 dn ___,0,$E00
 dn C_6,15,$C07
 dn ___,0,$E00
 dn C_6,15,$C03
 dn ___,0,$E00
 dn C_6,15,$C03
 dn ___,0,$E00
 dn ___,0,$000
 dn ___,0,$000
 dn C_5,15,$C07
 dn ___,0,$E00
 dn C_6,15,$C03
 dn ___,0,$E00
 dn C_6,15,$C03
 dn ___,0,$E00
 dn C_6,15,$C03
 dn ___,0,$E00
 dn C_6,15,$C07
 dn ___,0,$E00
 dn ___,0,$000
 dn C_6,15,$C01
 dn C_6,15,$C03
 dn ___,0,$E00
 dn C_6,15,$C03
 dn ___,0,$E00
 dn C_5,15,$C07
 dn ___,0,$E00
 dn C_6,15,$C03
 dn ___,0,$E00
 dn C_5,15,$C07
 dn ___,0,$E00
 dn C_6,15,$C03
 dn ___,0,$E00
 dn C_6,15,$C07
 dn ___,0,$E00
 dn ___,0,$000
 dn ___,0,$000
 dn C_6,15,$C03
 dn ___,0,$E00
 dn ___,0,$000
 dn ___,0,$000

P30:
 dn E_6,4,$C07
 dn ___,0,$000
 dn ___,0,$000
 dn ___,0,$000
 dn C_6,4,$C07
 dn ___,0,$000
 dn ___,0,$000
 dn ___,0,$000
 dn C_6,4,$C07
 dn ___,0,$000
 dn ___,0,$000
 dn ___,0,$000
 dn ___,0,$000
 dn ___,0,$000
 dn ___,0,$000
 dn ___,0,$000
 dn ___,0,$000
 dn ___,0,$000
 dn ___,0,$000
 dn ___,0,$000
 dn ___,0,$000
 dn ___,0,$000
 dn ___,0,$000
 dn ___,0,$000
 dn C_6,4,$C07
 dn ___,0,$000
 dn ___,0,$000
 dn ___,0,$000
 dn D_6,4,$C07
 dn ___,0,$000
 dn ___,0,$000
 dn ___,0,$000
 dn ___,0,$000
 dn D_6,4,$C04
 dn ___,0,$000
 dn ___,0,$000
 dn ___,0,$000
 dn ___,0,$000
 dn D_6,4,$C03
 dn ___,0,$000
 dn ___,0,$000
 dn ___,0,$000
 dn ___,0,$000
 dn D_6,4,$C01
 dn ___,0,$000
 dn ___,0,$000
 dn ___,0,$000
 dn ___,0,$000
 dn ___,0,$E00
 dn ___,0,$000
 dn ___,0,$000
 dn ___,0,$000
 dn ___,0,$000
 dn ___,0,$000
 dn ___,0,$000
 dn ___,0,$000
 dn ___,0,$000
 dn ___,0,$000
 dn ___,0,$000
 dn ___,0,$000
 dn D_6,4,$C00
 dn D_6,4,$C00
 dn D_6,4,$C01
 dn D_6,4,$C01

P31:
 dn G_5,2,$C07
 dn ___,0,$000
 dn G_5,2,$C03
 dn ___,0,$000
 dn G_5,2,$C01
 dn ___,0,$000
 dn ___,0,$000
 dn ___,0,$000
 dn G_5,2,$C07
 dn ___,0,$000
 dn G_5,2,$C03
 dn ___,0,$000
 dn C_6,2,$C07
 dn ___,0,$000
 dn C_6,2,$C03
 dn ___,0,$000
 dn C_6,2,$C01
 dn ___,0,$000
 dn ___,0,$000
 dn ___,0,$000
 dn ___,0,$000
 dn ___,0,$000
 dn ___,0,$000
 dn ___,0,$000
 dn ___,0,$000
 dn ___,0,$000
 dn ___,0,$000
 dn ___,0,$000
 dn G_5,2,$C07
 dn ___,0,$000
 dn G_5,2,$C03
 dn ___,0,$000
 dn D_6,2,$C07
 dn ___,0,$000
 dn D_6,2,$C03
 dn ___,0,$000
 dn D_6,2,$C01
 dn ___,0,$000
 dn ___,0,$000
 dn ___,0,$000
 dn C_6,2,$C07
 dn ___,0,$000
 dn C_6,2,$C03
 dn ___,0,$000
 dn D_6,2,$C07
 dn ___,0,$000
 dn D_6,2,$C03
 dn ___,0,$000
 dn D_6,2,$C01
 dn ___,0,$000
 dn ___,0,$000
 dn ___,0,$000
 dn D_6,2,$C07
 dn ___,0,$000
 dn D_6,2,$C03
 dn ___,0,$000
 dn D_6,2,$C07
 dn ___,0,$000
 dn D_6,2,$C03
 dn ___,0,$000
 dn D_6,2,$C01
 dn ___,0,$000
 dn ___,0,$000
 dn ___,0,$000

P32:
 dn ___,0,$000
 dn ___,0,$000
 dn ___,0,$000
 dn ___,0,$000
 dn ___,0,$000
 dn ___,0,$000
 dn ___,0,$000
 dn ___,0,$000
 dn ___,0,$000
 dn ___,0,$000
 dn ___,0,$000
 dn ___,0,$000
 dn ___,0,$000
 dn ___,0,$000
 dn ___,0,$000
 dn ___,0,$000
 dn ___,0,$000
 dn ___,0,$000
 dn ___,0,$000
 dn ___,0,$000
 dn ___,0,$000
 dn ___,0,$000
 dn ___,0,$000
 dn ___,0,$000
 dn ___,0,$000
 dn ___,0,$000
 dn ___,0,$000
 dn ___,0,$000
 dn ___,0,$000
 dn ___,0,$000
 dn ___,0,$000
 dn ___,0,$000
 dn ___,0,$000
 dn ___,0,$000
 dn ___,0,$000
 dn ___,0,$000
 dn ___,0,$000
 dn ___,0,$000
 dn ___,0,$000
 dn ___,0,$000
 dn ___,0,$000
 dn ___,0,$000
 dn ___,0,$000
 dn ___,0,$000
 dn ___,0,$000
 dn ___,0,$000
 dn ___,0,$000
 dn ___,0,$000
 dn ___,0,$000
 dn ___,0,$000
 dn ___,0,$000
 dn ___,0,$000
 dn ___,0,$000
 dn ___,0,$000
 dn ___,0,$000
 dn ___,0,$000
 dn ___,0,$000
 dn ___,0,$000
 dn ___,0,$000
 dn ___,0,$000
 dn ___,0,$000
 dn ___,0,$000
 dn ___,0,$000
 dn ___,0,$000

P33:
 dn C_5,15,$C07
 dn ___,0,$E00
 dn C_6,15,$C03
 dn ___,0,$E00
 dn C_6,15,$C03
 dn ___,0,$E00
 dn C_6,15,$C03
 dn ___,0,$E00
 dn C_6,15,$C07
 dn ___,0,$E00
 dn ___,0,$000
 dn C_6,15,$C01
 dn C_6,15,$C03
 dn ___,0,$E00
 dn C_6,15,$C03
 dn ___,0,$E00
 dn C_5,15,$C07
 dn ___,0,$E00
 dn C_6,15,$C03
 dn ___,0,$E00
 dn C_5,15,$C07
 dn ___,0,$E00
 dn C_6,15,$C03
 dn ___,0,$E00
 dn C_6,15,$C07
 dn ___,0,$E00
 dn C_6,15,$C03
 dn ___,0,$E00
 dn C_6,15,$C03
 dn ___,0,$E00
 dn ___,0,$000
 dn ___,0,$000
 dn C_5,15,$C07
 dn ___,0,$E00
 dn C_6,15,$C03
 dn ___,0,$E00
 dn C_6,15,$C03
 dn ___,0,$E00
 dn C_6,15,$C03
 dn ___,0,$E00
 dn C_6,15,$C07
 dn ___,0,$E00
 dn ___,0,$000
 dn C_6,15,$C01
 dn C_6,15,$C03
 dn ___,0,$E00
 dn C_6,15,$C03
 dn ___,0,$E00
 dn C_5,15,$C07
 dn ___,0,$E00
 dn C_6,15,$C03
 dn ___,0,$E00
 dn C_5,15,$C07
 dn ___,0,$E00
 dn C_6,15,$C03
 dn ___,0,$E00
 dn C_6,15,$C07
 dn ___,0,$E00
 dn ___,0,$000
 dn ___,0,$000
 dn C_6,15,$C03
 dn ___,0,$E00
 dn ___,0,$000
 dn ___,0,$000

P40:
 dn E_6,4,$C07
 dn ___,0,$000
 dn ___,0,$000
 dn ___,0,$000
 dn C_6,4,$C07
 dn ___,0,$000
 dn ___,0,$000
 dn ___,0,$000
 dn C_6,4,$C07
 dn ___,0,$000
 dn ___,0,$000
 dn ___,0,$000
 dn ___,0,$000
 dn ___,0,$000
 dn ___,0,$000
 dn ___,0,$000
 dn ___,0,$000
 dn ___,0,$000
 dn ___,0,$000
 dn ___,0,$000
 dn ___,0,$000
 dn ___,0,$000
 dn ___,0,$000
 dn ___,0,$000
 dn C_6,4,$C07
 dn ___,0,$000
 dn ___,0,$000
 dn ___,0,$000
 dn D_6,4,$C07
 dn ___,0,$000
 dn ___,0,$000
 dn ___,0,$000
 dn ___,0,$000
 dn ___,0,$000
 dn ___,0,$000
 dn ___,0,$000
 dn ___,0,$000
 dn ___,0,$000
 dn ___,0,$000
 dn ___,0,$000
 dn C_6,4,$C07
 dn ___,0,$000
 dn ___,0,$000
 dn ___,0,$000
 dn F_6,4,$C07
 dn ___,0,$000
 dn ___,0,$000
 dn ___,0,$000
 dn ___,0,$000
 dn ___,0,$000
 dn ___,0,$000
 dn ___,0,$000
 dn G_6,4,$C07
 dn ___,0,$000
 dn ___,0,$000
 dn ___,0,$000
 dn ___,0,$000
 dn ___,0,$000
 dn ___,0,$000
 dn ___,0,$000
 dn ___,0,$000
 dn ___,0,$000
 dn ___,0,$000
 dn ___,0,$000

P41:
 dn G_5,2,$C07
 dn ___,0,$000
 dn G_5,2,$C03
 dn ___,0,$000
 dn G_5,2,$C01
 dn ___,0,$000
 dn ___,0,$000
 dn ___,0,$000
 dn G_5,2,$C07
 dn ___,0,$000
 dn G_5,2,$C03
 dn ___,0,$000
 dn C_6,2,$C07
 dn ___,0,$000
 dn C_6,2,$C03
 dn ___,0,$000
 dn C_6,2,$C01
 dn ___,0,$000
 dn ___,0,$000
 dn ___,0,$000
 dn ___,0,$000
 dn ___,0,$000
 dn ___,0,$000
 dn ___,0,$000
 dn ___,0,$000
 dn ___,0,$000
 dn ___,0,$000
 dn ___,0,$000
 dn G_5,2,$C07
 dn ___,0,$000
 dn G_5,2,$C03
 dn ___,0,$000
 dn D_6,2,$C07
 dn ___,0,$000
 dn D_6,2,$C03
 dn ___,0,$000
 dn D_6,2,$C01
 dn ___,0,$000
 dn ___,0,$000
 dn ___,0,$000
 dn ___,0,$000
 dn ___,0,$000
 dn ___,0,$000
 dn ___,0,$000
 dn C_6,2,$C07
 dn ___,0,$000
 dn C_6,2,$C03
 dn ___,0,$000
 dn C_6,2,$C01
 dn ___,0,$000
 dn ___,0,$000
 dn ___,0,$000
 dn G_5,2,$C07
 dn ___,0,$000
 dn G_5,2,$C03
 dn ___,0,$000
 dn C_6,2,$C07
 dn ___,0,$000
 dn C_6,2,$C03
 dn ___,0,$000
 dn C_6,2,$C01
 dn ___,0,$000
 dn ___,0,$000
 dn ___,0,$000

P42:
 dn ___,0,$000
 dn ___,0,$000
 dn ___,0,$000
 dn ___,0,$000
 dn ___,0,$000
 dn ___,0,$000
 dn ___,0,$000
 dn ___,0,$000
 dn ___,0,$000
 dn ___,0,$000
 dn ___,0,$000
 dn ___,0,$000
 dn ___,0,$000
 dn ___,0,$000
 dn ___,0,$000
 dn ___,0,$000
 dn ___,0,$000
 dn ___,0,$000
 dn ___,0,$000
 dn ___,0,$000
 dn ___,0,$000
 dn ___,0,$000
 dn ___,0,$000
 dn ___,0,$000
 dn ___,0,$000
 dn ___,0,$000
 dn ___,0,$000
 dn ___,0,$000
 dn ___,0,$000
 dn ___,0,$000
 dn ___,0,$000
 dn ___,0,$000
 dn ___,0,$000
 dn ___,0,$000
 dn ___,0,$000
 dn ___,0,$000
 dn ___,0,$000
 dn ___,0,$000
 dn ___,0,$000
 dn ___,0,$000
 dn ___,0,$000
 dn ___,0,$000
 dn ___,0,$000
 dn ___,0,$000
 dn ___,0,$000
 dn ___,0,$000
 dn ___,0,$000
 dn ___,0,$000
 dn ___,0,$000
 dn ___,0,$000
 dn ___,0,$000
 dn ___,0,$000
 dn ___,0,$000
 dn ___,0,$000
 dn ___,0,$000
 dn ___,0,$000
 dn ___,0,$000
 dn ___,0,$000
 dn ___,0,$000
 dn ___,0,$000
 dn ___,0,$000
 dn ___,0,$000
 dn ___,0,$000
 dn ___,0,$000

P43:
 dn C_5,15,$C07
 dn ___,0,$E00
 dn C_6,15,$C03
 dn ___,0,$E00
 dn C_6,15,$C03
 dn ___,0,$E00
 dn C_6,15,$C03
 dn ___,0,$E00
 dn C_6,15,$C07
 dn ___,0,$E00
 dn ___,0,$000
 dn C_6,15,$C01
 dn C_6,15,$C03
 dn ___,0,$E00
 dn C_6,15,$C03
 dn ___,0,$E00
 dn C_5,15,$C07
 dn ___,0,$E00
 dn C_6,15,$C03
 dn ___,0,$E00
 dn C_5,15,$C07
 dn ___,0,$E00
 dn C_6,15,$C03
 dn ___,0,$E00
 dn C_6,15,$C07
 dn ___,0,$E00
 dn C_6,15,$C03
 dn ___,0,$E00
 dn C_6,15,$C03
 dn ___,0,$E00
 dn ___,0,$000
 dn ___,0,$000
 dn C_5,15,$C07
 dn ___,0,$E00
 dn C_6,15,$C03
 dn ___,0,$E00
 dn C_6,15,$C03
 dn ___,0,$E00
 dn C_6,15,$C03
 dn ___,0,$E00
 dn C_6,15,$C07
 dn ___,0,$E00
 dn ___,0,$000
 dn C_6,15,$C01
 dn C_6,15,$C03
 dn ___,0,$E00
 dn C_6,15,$C03
 dn ___,0,$E00
 dn C_5,15,$C07
 dn ___,0,$E00
 dn C_6,15,$C03
 dn ___,0,$E00
 dn C_5,15,$C07
 dn ___,0,$E00
 dn C_6,15,$C03
 dn ___,0,$E00
 dn C_6,15,$C07
 dn ___,0,$E00
 dn ___,0,$000
 dn ___,0,$000
 dn C_6,15,$C03
 dn ___,0,$E00
 dn ___,0,$000
 dn ___,0,$000

P50:
 dn C_6,4,$C07
 dn ___,0,$000
 dn ___,0,$000
 dn ___,0,$000
 dn ___,0,$000
 dn ___,0,$000
 dn A_5,4,$C07
 dn ___,0,$000
 dn ___,0,$000
 dn ___,0,$000
 dn ___,0,$000
 dn ___,0,$000
 dn C_6,4,$C07
 dn ___,0,$000
 dn ___,0,$000
 dn ___,0,$000
 dn ___,0,$000
 dn ___,0,$000
 dn ___,0,$000
 dn ___,0,$000
 dn D_6,4,$C07
 dn ___,0,$000
 dn ___,0,$000
 dn ___,0,$000
 dn ___,0,$000
 dn ___,0,$000
 dn ___,0,$000
 dn ___,0,$000
 dn E_6,4,$C07
 dn ___,0,$000
 dn ___,0,$000
 dn ___,0,$000
 dn D_6,4,$C07
 dn ___,0,$000
 dn ___,0,$000
 dn ___,0,$000
 dn ___,0,$000
 dn ___,0,$000
 dn C_6,4,$C07
 dn ___,0,$000
 dn ___,0,$000
 dn ___,0,$000
 dn ___,0,$000
 dn ___,0,$000
 dn A_5,4,$C07
 dn ___,0,$000
 dn ___,0,$000
 dn ___,0,$000
 dn ___,0,$000
 dn ___,0,$000
 dn ___,0,$000
 dn ___,0,$000
 dn G_5,4,$C07
 dn ___,0,$000
 dn ___,0,$000
 dn ___,0,$000
 dn E_5,4,$C07
 dn ___,0,$000
 dn ___,0,$000
 dn ___,0,$000
 dn G_5,4,$C07
 dn ___,0,$000
 dn ___,0,$000
 dn ___,0,$000

P51:
 dn G_5,2,$C07
 dn ___,0,$000
 dn G_5,2,$C03
 dn ___,0,$000
 dn G_5,2,$C01
 dn ___,0,$000
 dn ___,0,$000
 dn ___,0,$000
 dn ___,0,$000
 dn ___,0,$000
 dn ___,0,$000
 dn ___,0,$000
 dn C_6,2,$C07
 dn ___,0,$000
 dn C_6,2,$C03
 dn ___,0,$000
 dn C_6,2,$C01
 dn ___,0,$000
 dn ___,0,$000
 dn ___,0,$000
 dn ___,0,$000
 dn ___,0,$000
 dn ___,0,$000
 dn ___,0,$000
 dn ___,0,$000
 dn ___,0,$000
 dn ___,0,$000
 dn ___,0,$000
 dn ___,0,$000
 dn ___,0,$000
 dn ___,0,$000
 dn ___,0,$000
 dn D_6,2,$C07
 dn ___,0,$000
 dn D_6,2,$C03
 dn ___,0,$000
 dn D_6,2,$C01
 dn ___,0,$000
 dn ___,0,$000
 dn ___,0,$000
 dn ___,0,$000
 dn ___,0,$000
 dn ___,0,$000
 dn ___,0,$000
 dn C_6,2,$C07
 dn ___,0,$000
 dn C_6,2,$C03
 dn ___,0,$000
 dn C_6,2,$C01
 dn ___,0,$000
 dn ___,0,$000
 dn ___,0,$000
 dn ___,0,$000
 dn ___,0,$000
 dn ___,0,$000
 dn ___,0,$000
 dn ___,0,$000
 dn ___,0,$000
 dn ___,0,$000
 dn ___,0,$000
 dn ___,0,$000
 dn ___,0,$000
 dn ___,0,$000
 dn ___,0,$000

P52:
 dn ___,0,$000
 dn ___,0,$000
 dn ___,0,$000
 dn ___,0,$000
 dn ___,0,$000
 dn ___,0,$000
 dn ___,0,$000
 dn ___,0,$000
 dn ___,0,$000
 dn ___,0,$000
 dn ___,0,$000
 dn ___,0,$000
 dn ___,0,$000
 dn ___,0,$000
 dn ___,0,$000
 dn ___,0,$000
 dn ___,0,$000
 dn ___,0,$000
 dn ___,0,$000
 dn ___,0,$000
 dn ___,0,$000
 dn ___,0,$000
 dn ___,0,$000
 dn ___,0,$000
 dn ___,0,$000
 dn ___,0,$000
 dn ___,0,$000
 dn ___,0,$000
 dn ___,0,$000
 dn ___,0,$000
 dn ___,0,$000
 dn ___,0,$000
 dn ___,0,$000
 dn ___,0,$000
 dn ___,0,$000
 dn ___,0,$000
 dn ___,0,$000
 dn ___,0,$000
 dn ___,0,$000
 dn ___,0,$000
 dn ___,0,$000
 dn ___,0,$000
 dn ___,0,$000
 dn ___,0,$000
 dn ___,0,$000
 dn ___,0,$000
 dn ___,0,$000
 dn ___,0,$000
 dn ___,0,$000
 dn ___,0,$000
 dn ___,0,$000
 dn ___,0,$000
 dn ___,0,$000
 dn ___,0,$000
 dn ___,0,$000
 dn ___,0,$000
 dn ___,0,$000
 dn ___,0,$000
 dn ___,0,$000
 dn ___,0,$000
 dn ___,0,$000
 dn ___,0,$000
 dn ___,0,$000
 dn ___,0,$000

P53:
 dn C_5,15,$C07
 dn ___,0,$E00
 dn C_6,15,$C03
 dn ___,0,$E00
 dn C_6,15,$C03
 dn ___,0,$E00
 dn C_6,15,$C03
 dn ___,0,$E00
 dn C_6,15,$C07
 dn ___,0,$E00
 dn ___,0,$000
 dn C_6,15,$C01
 dn C_6,15,$C03
 dn ___,0,$E00
 dn C_6,15,$C03
 dn ___,0,$E00
 dn C_5,15,$C07
 dn ___,0,$E00
 dn C_6,15,$C03
 dn ___,0,$E00
 dn C_5,15,$C07
 dn ___,0,$E00
 dn C_6,15,$C03
 dn ___,0,$E00
 dn C_6,15,$C07
 dn ___,0,$E00
 dn C_6,15,$C03
 dn ___,0,$E00
 dn C_6,15,$C03
 dn ___,0,$E00
 dn ___,0,$000
 dn ___,0,$000
 dn C_5,15,$C07
 dn ___,0,$E00
 dn C_6,15,$C03
 dn ___,0,$E00
 dn C_6,15,$C03
 dn ___,0,$E00
 dn C_6,15,$C03
 dn ___,0,$E00
 dn C_6,15,$C07
 dn ___,0,$E00
 dn ___,0,$000
 dn C_6,15,$C01
 dn C_6,15,$C03
 dn ___,0,$E00
 dn C_6,15,$C03
 dn ___,0,$E00
 dn C_5,15,$C07
 dn ___,0,$E00
 dn C_6,15,$C03
 dn ___,0,$E00
 dn C_5,15,$C07
 dn ___,0,$E00
 dn C_6,15,$C03
 dn ___,0,$E00
 dn C_6,15,$C07
 dn ___,0,$E00
 dn ___,0,$000
 dn ___,0,$000
 dn C_6,15,$C03
 dn ___,0,$E00
 dn ___,0,$000
 dn ___,0,$000

P60:
 dn C_6,4,$C07
 dn ___,0,$000
 dn ___,0,$000
 dn ___,0,$000
 dn ___,0,$000
 dn ___,0,$000
 dn A_5,4,$C07
 dn ___,0,$000
 dn ___,0,$000
 dn ___,0,$000
 dn ___,0,$000
 dn ___,0,$000
 dn C_6,4,$C07
 dn ___,0,$000
 dn ___,0,$000
 dn ___,0,$000
 dn ___,0,$000
 dn ___,0,$000
 dn ___,0,$000
 dn ___,0,$000
 dn D_6,4,$C07
 dn ___,0,$000
 dn ___,0,$000
 dn ___,0,$000
 dn ___,0,$000
 dn ___,0,$000
 dn ___,0,$000
 dn ___,0,$000
 dn E_6,4,$C07
 dn ___,0,$000
 dn ___,0,$000
 dn ___,0,$000
 dn ___,0,$000
 dn ___,0,$000
 dn ___,0,$000
 dn ___,0,$000
 dn D_6,4,$C07
 dn ___,0,$000
 dn ___,0,$000
 dn ___,0,$000
 dn A_6,4,$C07
 dn ___,0,$000
 dn ___,0,$000
 dn ___,0,$000
 dn G_6,4,$C07
 dn ___,0,$000
 dn ___,0,$000
 dn ___,0,$000
 dn ___,0,$000
 dn ___,0,$000
 dn ___,0,$000
 dn ___,0,$000
 dn ___,0,$000
 dn ___,0,$000
 dn ___,0,$000
 dn ___,0,$000
 dn ___,0,$000
 dn ___,0,$000
 dn ___,0,$000
 dn ___,0,$000
 dn G_6,4,$C04
 dn G_6,4,$C03
 dn G_6,4,$C01
 dn ___,0,$E00

P61:
 dn G_5,2,$C07
 dn ___,0,$000
 dn G_5,2,$C03
 dn ___,0,$000
 dn G_5,2,$C01
 dn ___,0,$000
 dn ___,0,$000
 dn ___,0,$000
 dn ___,0,$000
 dn ___,0,$000
 dn ___,0,$000
 dn ___,0,$000
 dn C_6,2,$C07
 dn ___,0,$000
 dn C_6,2,$C03
 dn ___,0,$000
 dn C_6,2,$C01
 dn ___,0,$000
 dn ___,0,$000
 dn ___,0,$000
 dn ___,0,$000
 dn ___,0,$000
 dn ___,0,$000
 dn ___,0,$000
 dn ___,0,$000
 dn ___,0,$000
 dn ___,0,$000
 dn ___,0,$000
 dn ___,0,$000
 dn ___,0,$000
 dn ___,0,$000
 dn ___,0,$000
 dn D_6,2,$C07
 dn ___,0,$000
 dn D_6,2,$C03
 dn ___,0,$000
 dn D_6,2,$C01
 dn ___,0,$000
 dn ___,0,$000
 dn ___,0,$000
 dn ___,0,$000
 dn ___,0,$000
 dn ___,0,$000
 dn ___,0,$000
 dn D_6,2,$C07
 dn ___,0,$000
 dn D_6,2,$C03
 dn ___,0,$000
 dn D_6,2,$C01
 dn ___,0,$000
 dn ___,0,$000
 dn ___,0,$000
 dn ___,0,$000
 dn ___,0,$000
 dn ___,0,$000
 dn ___,0,$000
 dn ___,0,$000
 dn ___,0,$000
 dn ___,0,$000
 dn ___,0,$000
 dn ___,0,$000
 dn ___,0,$000
 dn ___,0,$000
 dn ___,0,$000

P62:
 dn ___,0,$000
 dn ___,0,$000
 dn ___,0,$000
 dn ___,0,$000
 dn ___,0,$000
 dn ___,0,$000
 dn ___,0,$000
 dn ___,0,$000
 dn ___,0,$000
 dn ___,0,$000
 dn ___,0,$000
 dn ___,0,$000
 dn ___,0,$000
 dn ___,0,$000
 dn ___,0,$000
 dn ___,0,$000
 dn ___,0,$000
 dn ___,0,$000
 dn ___,0,$000
 dn ___,0,$000
 dn ___,0,$000
 dn ___,0,$000
 dn ___,0,$000
 dn ___,0,$000
 dn ___,0,$000
 dn ___,0,$000
 dn ___,0,$000
 dn ___,0,$000
 dn ___,0,$000
 dn ___,0,$000
 dn ___,0,$000
 dn ___,0,$000
 dn ___,0,$000
 dn ___,0,$000
 dn ___,0,$000
 dn ___,0,$000
 dn ___,0,$000
 dn ___,0,$000
 dn ___,0,$000
 dn ___,0,$000
 dn ___,0,$000
 dn ___,0,$000
 dn ___,0,$000
 dn ___,0,$000
 dn ___,0,$000
 dn ___,0,$000
 dn ___,0,$000
 dn ___,0,$000
 dn ___,0,$000
 dn ___,0,$000
 dn ___,0,$000
 dn ___,0,$000
 dn ___,0,$000
 dn ___,0,$000
 dn ___,0,$000
 dn ___,0,$000
 dn ___,0,$000
 dn ___,0,$000
 dn ___,0,$000
 dn ___,0,$000
 dn ___,0,$000
 dn ___,0,$000
 dn ___,0,$000
 dn ___,0,$000

P63:
 dn C_5,15,$C07
 dn ___,0,$E00
 dn C_6,15,$C03
 dn ___,0,$E00
 dn C_6,15,$C03
 dn ___,0,$E00
 dn C_6,15,$C03
 dn ___,0,$E00
 dn C_6,15,$C07
 dn ___,0,$E00
 dn ___,0,$000
 dn C_6,15,$C01
 dn C_6,15,$C03
 dn ___,0,$E00
 dn C_6,15,$C03
 dn ___,0,$E00
 dn C_5,15,$C07
 dn ___,0,$E00
 dn C_6,15,$C03
 dn ___,0,$E00
 dn C_5,15,$C07
 dn ___,0,$E00
 dn C_6,15,$C03
 dn ___,0,$E00
 dn C_6,15,$C07
 dn ___,0,$E00
 dn C_6,15,$C03
 dn ___,0,$E00
 dn C_6,15,$C03
 dn ___,0,$E00
 dn ___,0,$000
 dn ___,0,$000
 dn C_5,15,$C07
 dn ___,0,$E00
 dn C_6,15,$C03
 dn ___,0,$E00
 dn C_6,15,$C03
 dn ___,0,$E00
 dn C_6,15,$C03
 dn ___,0,$E00
 dn C_6,15,$C07
 dn ___,0,$E00
 dn ___,0,$000
 dn C_6,15,$C01
 dn C_6,15,$C03
 dn ___,0,$E00
 dn C_6,15,$C03
 dn ___,0,$E00
 dn C_5,15,$C07
 dn ___,0,$E00
 dn C_6,15,$C03
 dn ___,0,$E00
 dn C_5,15,$C07
 dn ___,0,$E00
 dn C_6,15,$C03
 dn ___,0,$E00
 dn C_6,15,$C07
 dn ___,0,$E00
 dn ___,0,$000
 dn ___,0,$000
 dn C_6,15,$C03
 dn ___,0,$E00
 dn ___,0,$000
 dn ___,0,$000

P70:
 dn G_6,1,$C07
 dn ___,0,$000
 dn C_6,1,$C07
 dn ___,0,$000
 dn ___,0,$000
 dn C_6,1,$C03
 dn C_6,1,$C07
 dn ___,0,$000
 dn C_6,1,$C03
 dn ___,0,$E00
 dn C_6,1,$C07
 dn ___,0,$000
 dn D_6,1,$C07
 dn ___,0,$000
 dn C_6,1,$C03
 dn ___,0,$E00
 dn C_6,1,$C03
 dn ___,0,$E00
 dn D_6,1,$C03
 dn ___,0,$E00
 dn C_6,1,$C03
 dn ___,0,$E00
 dn C_6,1,$C03
 dn ___,0,$E00
 dn D_6,1,$C03
 dn ___,0,$E00
 dn C_6,1,$C03
 dn ___,0,$E00
 dn A_5,1,$C07
 dn ___,0,$000
 dn C_6,1,$C07
 dn ___,0,$000
 dn D_6,1,$C07
 dn ___,0,$000
 dn A_5,1,$C03
 dn ___,0,$E00
 dn E_6,1,$C07
 dn ___,0,$000
 dn D_6,1,$C03
 dn ___,0,$E00
 dn D_6,1,$C07
 dn ___,0,$000
 dn ___,0,$000
 dn ___,0,$000
 dn C_6,1,$C07
 dn ___,0,$000
 dn ___,0,$000
 dn ___,0,$000
 dn ___,0,$000
 dn ___,0,$000
 dn ___,0,$000
 dn ___,0,$000
 dn ___,0,$000
 dn ___,0,$000
 dn ___,0,$000
 dn ___,0,$000
 dn ___,0,$000
 dn ___,0,$000
 dn ___,0,$000
 dn ___,0,$000
 dn C_6,1,$C04
 dn C_6,1,$C03
 dn C_6,1,$C01
 dn ___,0,$E00

P71:
 dn C_6,2,$C07
 dn ___,0,$000
 dn C_6,2,$C03
 dn ___,0,$000
 dn C_6,2,$C01
 dn ___,0,$000
 dn ___,0,$000
 dn ___,0,$000
 dn G_5,2,$C07
 dn ___,0,$000
 dn G_5,2,$C03
 dn ___,0,$000
 dn C_6,2,$C07
 dn ___,0,$000
 dn C_6,2,$C03
 dn ___,0,$000
 dn C_6,2,$C01
 dn ___,0,$000
 dn ___,0,$000
 dn ___,0,$000
 dn ___,0,$000
 dn ___,0,$000
 dn ___,0,$000
 dn ___,0,$000
 dn C_6,2,$C07
 dn ___,0,$000
 dn C_6,2,$C03
 dn ___,0,$000
 dn C_6,2,$C01
 dn ___,0,$000
 dn ___,0,$000
 dn ___,0,$000
 dn D_6,2,$C07
 dn ___,0,$000
 dn D_6,2,$C03
 dn ___,0,$000
 dn D_6,2,$C01
 dn ___,0,$000
 dn ___,0,$000
 dn ___,0,$000
 dn D_6,2,$C07
 dn ___,0,$000
 dn D_6,2,$C03
 dn ___,0,$000
 dn D_6,2,$C01
 dn ___,0,$000
 dn ___,0,$000
 dn ___,0,$000
 dn G_6,2,$C07
 dn ___,0,$000
 dn G_6,2,$C03
 dn ___,0,$000
 dn G_6,2,$C01
 dn ___,0,$000
 dn ___,0,$000
 dn ___,0,$000
 dn D_6,2,$C07
 dn ___,0,$000
 dn D_6,2,$C03
 dn ___,0,$000
 dn D_6,2,$C01
 dn ___,0,$000
 dn ___,0,$000
 dn ___,0,$000

P72:
 dn ___,0,$000
 dn ___,0,$000
 dn ___,0,$000
 dn ___,0,$000
 dn ___,0,$000
 dn ___,0,$000
 dn ___,0,$000
 dn ___,0,$000
 dn ___,0,$000
 dn ___,0,$000
 dn ___,0,$000
 dn ___,0,$000
 dn ___,0,$000
 dn ___,0,$000
 dn ___,0,$000
 dn ___,0,$000
 dn ___,0,$000
 dn ___,0,$000
 dn ___,0,$000
 dn ___,0,$000
 dn ___,0,$000
 dn ___,0,$000
 dn ___,0,$000
 dn ___,0,$000
 dn ___,0,$000
 dn ___,0,$000
 dn ___,0,$000
 dn ___,0,$000
 dn ___,0,$000
 dn ___,0,$000
 dn ___,0,$000
 dn ___,0,$000
 dn ___,0,$000
 dn ___,0,$000
 dn ___,0,$000
 dn ___,0,$000
 dn ___,0,$000
 dn ___,0,$000
 dn ___,0,$000
 dn ___,0,$000
 dn ___,0,$000
 dn ___,0,$000
 dn ___,0,$000
 dn ___,0,$000
 dn ___,0,$000
 dn ___,0,$000
 dn ___,0,$000
 dn ___,0,$000
 dn ___,0,$000
 dn ___,0,$000
 dn ___,0,$000
 dn ___,0,$000
 dn ___,0,$000
 dn ___,0,$000
 dn ___,0,$000
 dn ___,0,$000
 dn ___,0,$000
 dn ___,0,$000
 dn ___,0,$000
 dn ___,0,$000
 dn ___,0,$000
 dn ___,0,$000
 dn ___,0,$000
 dn ___,0,$000

P73:
 dn C_5,15,$C07
 dn ___,0,$E00
 dn C_6,15,$C03
 dn ___,0,$E00
 dn C_6,15,$C03
 dn ___,0,$E00
 dn C_6,15,$C03
 dn ___,0,$E00
 dn C_6,15,$C07
 dn ___,0,$E00
 dn ___,0,$000
 dn C_6,15,$C01
 dn C_6,15,$C03
 dn ___,0,$E00
 dn C_6,15,$C03
 dn ___,0,$E00
 dn C_5,15,$C07
 dn ___,0,$E00
 dn C_6,15,$C03
 dn ___,0,$E00
 dn C_5,15,$C07
 dn ___,0,$E00
 dn C_6,15,$C03
 dn ___,0,$E00
 dn C_6,15,$C07
 dn ___,0,$E00
 dn C_6,15,$C03
 dn ___,0,$E00
 dn C_6,15,$C03
 dn ___,0,$E00
 dn ___,0,$000
 dn ___,0,$000
 dn C_5,15,$C07
 dn ___,0,$E00
 dn C_6,15,$C03
 dn ___,0,$E00
 dn C_6,15,$C03
 dn ___,0,$E00
 dn C_6,15,$C03
 dn ___,0,$E00
 dn C_6,15,$C07
 dn ___,0,$E00
 dn ___,0,$000
 dn C_6,15,$C01
 dn C_6,15,$C03
 dn ___,0,$E00
 dn C_6,15,$C03
 dn ___,0,$E00
 dn C_5,15,$C07
 dn ___,0,$E00
 dn C_6,15,$C03
 dn ___,0,$E00
 dn C_5,15,$C07
 dn ___,0,$E00
 dn C_6,15,$C03
 dn ___,0,$E00
 dn C_6,15,$C07
 dn ___,0,$E00
 dn ___,0,$000
 dn ___,0,$000
 dn C_6,15,$C03
 dn ___,0,$E00
 dn ___,0,$000
 dn ___,0,$000

P80:
 dn G_6,1,$C07
 dn ___,0,$000
 dn C_6,1,$C07
 dn ___,0,$000
 dn ___,0,$000
 dn ___,0,$000
 dn C_6,1,$C07
 dn ___,0,$000
 dn C_6,1,$C03
 dn ___,0,$E00
 dn C_6,1,$C07
 dn ___,0,$000
 dn D_6,1,$C07
 dn ___,0,$000
 dn C_6,1,$C03
 dn ___,0,$E00
 dn C_6,1,$C03
 dn ___,0,$E00
 dn D_6,1,$C03
 dn ___,0,$E00
 dn C_6,1,$C03
 dn ___,0,$E00
 dn C_6,1,$C03
 dn ___,0,$E00
 dn D_6,1,$C03
 dn ___,0,$E00
 dn C_6,1,$C03
 dn ___,0,$E00
 dn C_6,1,$C07
 dn ___,0,$000
 dn D_6,1,$C07
 dn ___,0,$000
 dn E_6,1,$C07
 dn ___,0,$000
 dn C_6,1,$C03
 dn ___,0,$E00
 dn F_6,1,$C07
 dn ___,0,$000
 dn E_6,1,$C03
 dn ___,0,$E00
 dn E_6,1,$C07
 dn ___,0,$000
 dn ___,0,$000
 dn ___,0,$000
 dn G_6,1,$C07
 dn ___,0,$000
 dn ___,0,$000
 dn ___,0,$000
 dn ___,0,$000
 dn ___,0,$000
 dn ___,0,$000
 dn ___,0,$000
 dn ___,0,$000
 dn ___,0,$000
 dn ___,0,$000
 dn ___,0,$000
 dn ___,0,$000
 dn ___,0,$000
 dn ___,0,$000
 dn ___,0,$000
 dn G_6,1,$C04
 dn G_6,1,$C03
 dn G_6,1,$C01
 dn ___,0,$E00

P81:
 dn C_6,2,$C07
 dn ___,0,$000
 dn C_6,2,$C03
 dn ___,0,$000
 dn C_6,2,$C01
 dn ___,0,$000
 dn ___,0,$000
 dn ___,0,$000
 dn G_5,2,$C07
 dn ___,0,$000
 dn G_5,2,$C03
 dn ___,0,$000
 dn C_6,2,$C07
 dn ___,0,$000
 dn C_6,2,$C03
 dn ___,0,$000
 dn C_6,2,$C01
 dn ___,0,$000
 dn ___,0,$000
 dn ___,0,$000
 dn ___,0,$000
 dn ___,0,$000
 dn ___,0,$000
 dn ___,0,$000
 dn C_6,2,$C07
 dn ___,0,$000
 dn C_6,2,$C03
 dn ___,0,$000
 dn C_6,2,$C01
 dn ___,0,$000
 dn ___,0,$000
 dn ___,0,$000
 dn D_6,2,$C07
 dn ___,0,$000
 dn D_6,2,$C03
 dn ___,0,$000
 dn D_6,2,$C01
 dn ___,0,$000
 dn ___,0,$000
 dn ___,0,$000
 dn D_6,2,$C07
 dn ___,0,$000
 dn D_6,2,$C03
 dn ___,0,$000
 dn D_6,2,$C01
 dn ___,0,$000
 dn ___,0,$000
 dn ___,0,$000
 dn G_6,2,$C07
 dn ___,0,$000
 dn G_6,2,$C03
 dn ___,0,$000
 dn G_6,2,$C01
 dn ___,0,$000
 dn ___,0,$000
 dn ___,0,$000
 dn D_6,2,$C07
 dn ___,0,$000
 dn D_6,2,$C03
 dn ___,0,$000
 dn D_6,2,$C01
 dn ___,0,$000
 dn ___,0,$000
 dn ___,0,$000

P82:
 dn ___,0,$000
 dn ___,0,$000
 dn ___,0,$000
 dn ___,0,$000
 dn ___,0,$000
 dn ___,0,$000
 dn ___,0,$000
 dn ___,0,$000
 dn ___,0,$000
 dn ___,0,$000
 dn ___,0,$000
 dn ___,0,$000
 dn ___,0,$000
 dn ___,0,$000
 dn ___,0,$000
 dn ___,0,$000
 dn ___,0,$000
 dn ___,0,$000
 dn ___,0,$000
 dn ___,0,$000
 dn ___,0,$000
 dn ___,0,$000
 dn ___,0,$000
 dn ___,0,$000
 dn ___,0,$000
 dn ___,0,$000
 dn ___,0,$000
 dn ___,0,$000
 dn ___,0,$000
 dn ___,0,$000
 dn ___,0,$000
 dn ___,0,$000
 dn ___,0,$000
 dn ___,0,$000
 dn ___,0,$000
 dn ___,0,$000
 dn ___,0,$000
 dn ___,0,$000
 dn ___,0,$000
 dn ___,0,$000
 dn ___,0,$000
 dn ___,0,$000
 dn ___,0,$000
 dn ___,0,$000
 dn ___,0,$000
 dn ___,0,$000
 dn ___,0,$000
 dn ___,0,$000
 dn ___,0,$000
 dn ___,0,$000
 dn ___,0,$000
 dn ___,0,$000
 dn ___,0,$000
 dn ___,0,$000
 dn ___,0,$000
 dn ___,0,$000
 dn ___,0,$000
 dn ___,0,$000
 dn ___,0,$000
 dn ___,0,$000
 dn ___,0,$000
 dn ___,0,$000
 dn ___,0,$000
 dn ___,0,$000

P83:
 dn C_5,15,$C07
 dn ___,0,$E00
 dn C_6,15,$C03
 dn ___,0,$E00
 dn C_6,15,$C03
 dn ___,0,$E00
 dn C_6,15,$C03
 dn ___,0,$E00
 dn C_6,15,$C07
 dn ___,0,$E00
 dn ___,0,$000
 dn C_6,15,$C01
 dn C_6,15,$C03
 dn ___,0,$E00
 dn C_6,15,$C03
 dn ___,0,$E00
 dn C_5,15,$C07
 dn ___,0,$E00
 dn C_6,15,$C03
 dn ___,0,$E00
 dn C_5,15,$C07
 dn ___,0,$E00
 dn C_6,15,$C03
 dn ___,0,$E00
 dn C_6,15,$C07
 dn ___,0,$E00
 dn C_6,15,$C03
 dn ___,0,$E00
 dn C_6,15,$C03
 dn ___,0,$E00
 dn ___,0,$000
 dn ___,0,$000
 dn C_5,15,$C07
 dn ___,0,$E00
 dn C_6,15,$C03
 dn ___,0,$E00
 dn C_6,15,$C03
 dn ___,0,$E00
 dn C_6,15,$C03
 dn ___,0,$E00
 dn C_6,15,$C07
 dn ___,0,$E00
 dn ___,0,$000
 dn C_6,15,$C01
 dn C_6,15,$C03
 dn ___,0,$E00
 dn C_6,15,$C03
 dn ___,0,$E00
 dn C_5,15,$C07
 dn ___,0,$E00
 dn C_6,15,$C03
 dn ___,0,$E00
 dn C_5,15,$C07
 dn ___,0,$E00
 dn C_6,15,$C03
 dn ___,0,$E00
 dn C_6,15,$C07
 dn ___,0,$E00
 dn ___,0,$000
 dn ___,0,$000
 dn C_6,15,$C03
 dn ___,0,$E00
 dn ___,0,$000
 dn ___,0,$000

P90:
 dn E_6,1,$C01
 dn E_6,1,$C01
 dn E_6,1,$C02
 dn E_6,1,$C04
 dn E_6,1,$C05
 dn E_6,1,$C05
 dn C_6,1,$C07
 dn ___,0,$000
 dn ___,0,$000
 dn ___,0,$000
 dn ___,0,$000
 dn ___,0,$000
 dn ___,0,$000
 dn ___,0,$000
 dn C_6,1,$C01
 dn ___,0,$000
 dn ___,0,$000
 dn ___,0,$000
 dn ___,0,$000
 dn ___,0,$000
 dn ___,0,$000
 dn ___,0,$000
 dn ___,0,$000
 dn ___,0,$000
 dn C_6,1,$C01
 dn ___,0,$000
 dn ___,0,$000
 dn ___,0,$000
 dn ___,0,$000
 dn ___,0,$000
 dn ___,0,$000
 dn ___,0,$000
 dn ___,0,$000
 dn ___,0,$000
 dn C_6,1,$C00
 dn ___,0,$000
 dn ___,0,$000
 dn ___,0,$000
 dn ___,0,$000
 dn ___,0,$000
 dn ___,0,$000
 dn ___,0,$000
 dn ___,0,$000
 dn ___,0,$000
 dn ___,0,$E00
 dn ___,0,$000
 dn ___,0,$000
 dn ___,0,$000
 dn ___,0,$000
 dn ___,0,$000
 dn ___,0,$000
 dn ___,0,$000
 dn ___,0,$000
 dn ___,0,$000
 dn ___,0,$000
 dn ___,0,$000
 dn ___,0,$000
 dn ___,0,$000
 dn C_6,1,$C00
 dn C_6,1,$C00
 dn C_6,1,$C01
 dn C_6,1,$C01
 dn C_6,1,$C03
 dn C_6,1,$C04

P91:
 dn G_5,2,$C07
 dn ___,0,$000
 dn G_5,2,$C03
 dn ___,0,$000
 dn G_5,2,$C01
 dn ___,0,$000
 dn ___,0,$000
 dn ___,0,$000
 dn G_5,2,$C07
 dn ___,0,$000
 dn G_5,2,$C03
 dn ___,0,$000
 dn C_6,2,$C07
 dn ___,0,$000
 dn C_6,2,$C03
 dn ___,0,$000
 dn C_6,2,$C01
 dn ___,0,$000
 dn ___,0,$000
 dn ___,0,$000
 dn ___,0,$000
 dn ___,0,$000
 dn ___,0,$000
 dn ___,0,$000
 dn ___,0,$000
 dn ___,0,$000
 dn ___,0,$000
 dn ___,0,$000
 dn G_5,2,$C07
 dn ___,0,$000
 dn G_5,2,$C03
 dn ___,0,$000
 dn D_6,2,$C07
 dn ___,0,$000
 dn D_6,2,$C03
 dn ___,0,$000
 dn D_6,2,$C01
 dn ___,0,$000
 dn ___,0,$000
 dn ___,0,$000
 dn ___,0,$000
 dn ___,0,$000
 dn ___,0,$000
 dn ___,0,$000
 dn C_6,2,$C07
 dn ___,0,$000
 dn C_6,2,$C03
 dn ___,0,$000
 dn C_6,2,$C01
 dn ___,0,$000
 dn ___,0,$000
 dn ___,0,$000
 dn ___,0,$000
 dn ___,0,$000
 dn ___,0,$000
 dn ___,0,$000
 dn C_6,2,$C07
 dn ___,0,$000
 dn C_6,2,$C03
 dn ___,0,$000
 dn C_6,2,$C01
 dn ___,0,$000
 dn ___,0,$000
 dn ___,0,$000

P92:
 dn ___,0,$000
 dn ___,0,$000
 dn ___,0,$000
 dn ___,0,$000
 dn ___,0,$000
 dn ___,0,$000
 dn ___,0,$000
 dn ___,0,$000
 dn ___,0,$000
 dn ___,0,$000
 dn ___,0,$000
 dn ___,0,$000
 dn ___,0,$000
 dn ___,0,$000
 dn ___,0,$000
 dn ___,0,$000
 dn ___,0,$000
 dn ___,0,$000
 dn ___,0,$000
 dn ___,0,$000
 dn ___,0,$000
 dn ___,0,$000
 dn ___,0,$000
 dn ___,0,$000
 dn ___,0,$000
 dn ___,0,$000
 dn ___,0,$000
 dn ___,0,$000
 dn ___,0,$000
 dn ___,0,$000
 dn ___,0,$000
 dn ___,0,$000
 dn ___,0,$000
 dn ___,0,$000
 dn ___,0,$000
 dn ___,0,$000
 dn ___,0,$000
 dn ___,0,$000
 dn ___,0,$000
 dn ___,0,$000
 dn ___,0,$000
 dn ___,0,$000
 dn ___,0,$000
 dn ___,0,$000
 dn ___,0,$000
 dn ___,0,$000
 dn ___,0,$000
 dn ___,0,$000
 dn ___,0,$000
 dn ___,0,$000
 dn ___,0,$000
 dn ___,0,$000
 dn ___,0,$000
 dn ___,0,$000
 dn ___,0,$000
 dn ___,0,$000
 dn ___,0,$000
 dn ___,0,$000
 dn ___,0,$000
 dn ___,0,$000
 dn ___,0,$000
 dn ___,0,$000
 dn ___,0,$000
 dn ___,0,$000

P93:
 dn C_5,15,$C07
 dn ___,0,$E00
 dn C_6,15,$C03
 dn ___,0,$E00
 dn C_6,15,$C03
 dn ___,0,$E00
 dn C_6,15,$C03
 dn ___,0,$E00
 dn C_6,15,$C07
 dn ___,0,$E00
 dn ___,0,$000
 dn C_6,15,$C01
 dn C_6,15,$C03
 dn ___,0,$E00
 dn C_6,15,$C03
 dn ___,0,$E00
 dn C_5,15,$C07
 dn ___,0,$E00
 dn C_6,15,$C03
 dn ___,0,$E00
 dn C_5,15,$C07
 dn ___,0,$E00
 dn C_6,15,$C03
 dn ___,0,$E00
 dn C_6,15,$C07
 dn ___,0,$E00
 dn C_6,15,$C03
 dn ___,0,$E00
 dn C_6,15,$C03
 dn ___,0,$E00
 dn ___,0,$000
 dn ___,0,$000
 dn C_5,15,$C07
 dn ___,0,$E00
 dn C_6,15,$C03
 dn ___,0,$E00
 dn C_6,15,$C03
 dn ___,0,$E00
 dn C_6,15,$C03
 dn ___,0,$E00
 dn C_6,15,$C07
 dn ___,0,$E00
 dn ___,0,$000
 dn C_6,15,$C01
 dn C_6,15,$C03
 dn ___,0,$E00
 dn C_6,15,$C03
 dn ___,0,$E00
 dn C_5,15,$C07
 dn ___,0,$E00
 dn C_6,15,$C03
 dn ___,0,$E00
 dn C_5,15,$C07
 dn ___,0,$E00
 dn C_6,15,$C03
 dn ___,0,$E00
 dn C_6,15,$C07
 dn ___,0,$E00
 dn ___,0,$000
 dn ___,0,$000
 dn C_6,15,$C03
 dn ___,0,$E00
 dn ___,0,$000
 dn ___,0,$000

P100:
 dn E_6,1,$C01
 dn E_6,1,$C01
 dn E_6,1,$C02
 dn E_6,1,$C04
 dn E_6,1,$C05
 dn E_6,1,$C05
 dn C_6,1,$C07
 dn ___,0,$000
 dn ___,0,$000
 dn ___,0,$000
 dn ___,0,$000
 dn ___,0,$000
 dn ___,0,$000
 dn ___,0,$000
 dn C_6,1,$C01
 dn ___,0,$000
 dn ___,0,$000
 dn ___,0,$000
 dn ___,0,$000
 dn ___,0,$000
 dn ___,0,$000
 dn ___,0,$000
 dn ___,0,$000
 dn ___,0,$000
 dn C_6,1,$C01
 dn ___,0,$000
 dn ___,0,$000
 dn ___,0,$000
 dn ___,0,$000
 dn ___,0,$000
 dn ___,0,$000
 dn ___,0,$000
 dn ___,0,$000
 dn ___,0,$000
 dn C_6,1,$C00
 dn ___,0,$000
 dn ___,0,$000
 dn ___,0,$000
 dn ___,0,$000
 dn ___,0,$000
 dn ___,0,$000
 dn ___,0,$000
 dn ___,0,$000
 dn ___,0,$000
 dn ___,0,$E00
 dn ___,0,$000
 dn ___,0,$000
 dn ___,0,$000
 dn ___,0,$000
 dn ___,0,$000
 dn ___,0,$000
 dn ___,0,$000
 dn ___,0,$000
 dn ___,0,$000
 dn ___,0,$000
 dn ___,0,$000
 dn ___,0,$000
 dn ___,0,$000
 dn C_6,1,$C00
 dn C_6,1,$C00
 dn C_6,1,$C01
 dn C_6,1,$C01
 dn C_6,1,$C03
 dn C_6,1,$C04

P101:
 dn G_5,2,$C07
 dn ___,0,$000
 dn G_5,2,$C03
 dn ___,0,$000
 dn G_5,2,$C01
 dn ___,0,$000
 dn ___,0,$000
 dn ___,0,$000
 dn G_5,2,$C07
 dn ___,0,$000
 dn G_5,2,$C03
 dn ___,0,$000
 dn C_6,2,$C07
 dn ___,0,$000
 dn C_6,2,$C03
 dn ___,0,$000
 dn C_6,2,$C01
 dn ___,0,$000
 dn ___,0,$000
 dn ___,0,$000
 dn ___,0,$000
 dn ___,0,$000
 dn ___,0,$000
 dn ___,0,$000
 dn ___,0,$000
 dn ___,0,$000
 dn ___,0,$000
 dn ___,0,$000
 dn G_5,2,$C07
 dn ___,0,$000
 dn G_5,2,$C03
 dn ___,0,$000
 dn D_6,2,$C07
 dn ___,0,$000
 dn D_6,2,$C03
 dn ___,0,$000
 dn D_6,2,$C01
 dn ___,0,$000
 dn ___,0,$000
 dn ___,0,$000
 dn C_6,2,$C07
 dn ___,0,$000
 dn C_6,2,$C03
 dn ___,0,$000
 dn D_6,2,$C07
 dn ___,0,$000
 dn D_6,2,$C03
 dn ___,0,$000
 dn D_6,2,$C01
 dn ___,0,$000
 dn ___,0,$000
 dn ___,0,$000
 dn ___,0,$000
 dn ___,0,$000
 dn ___,0,$000
 dn ___,0,$000
 dn ___,0,$000
 dn ___,0,$000
 dn ___,0,$000
 dn ___,0,$000
 dn ___,0,$000
 dn ___,0,$000
 dn ___,0,$000
 dn ___,0,$000

P102:
 dn ___,0,$000
 dn ___,0,$000
 dn ___,0,$000
 dn ___,0,$000
 dn ___,0,$000
 dn ___,0,$000
 dn ___,0,$000
 dn ___,0,$000
 dn ___,0,$000
 dn ___,0,$000
 dn ___,0,$000
 dn ___,0,$000
 dn ___,0,$000
 dn ___,0,$000
 dn ___,0,$000
 dn ___,0,$000
 dn ___,0,$000
 dn ___,0,$000
 dn ___,0,$000
 dn ___,0,$000
 dn ___,0,$000
 dn ___,0,$000
 dn ___,0,$000
 dn ___,0,$000
 dn ___,0,$000
 dn ___,0,$000
 dn ___,0,$000
 dn ___,0,$000
 dn ___,0,$000
 dn ___,0,$000
 dn ___,0,$000
 dn ___,0,$000
 dn ___,0,$000
 dn ___,0,$000
 dn ___,0,$000
 dn ___,0,$000
 dn ___,0,$000
 dn ___,0,$000
 dn ___,0,$000
 dn ___,0,$000
 dn ___,0,$000
 dn ___,0,$000
 dn ___,0,$000
 dn ___,0,$000
 dn ___,0,$000
 dn ___,0,$000
 dn ___,0,$000
 dn ___,0,$000
 dn ___,0,$000
 dn ___,0,$000
 dn ___,0,$000
 dn ___,0,$000
 dn ___,0,$000
 dn ___,0,$000
 dn ___,0,$000
 dn ___,0,$000
 dn ___,0,$000
 dn ___,0,$000
 dn ___,0,$000
 dn ___,0,$000
 dn ___,0,$000
 dn ___,0,$000
 dn ___,0,$000
 dn ___,0,$000

P103:
 dn C_5,15,$C07
 dn ___,0,$E00
 dn C_6,15,$C03
 dn ___,0,$E00
 dn C_6,15,$C03
 dn ___,0,$E00
 dn C_6,15,$C03
 dn ___,0,$E00
 dn C_6,15,$C07
 dn ___,0,$E00
 dn ___,0,$000
 dn C_6,15,$C01
 dn C_6,15,$C03
 dn ___,0,$E00
 dn C_6,15,$C03
 dn ___,0,$E00
 dn C_5,15,$C07
 dn ___,0,$E00
 dn C_6,15,$C03
 dn ___,0,$E00
 dn C_5,15,$C07
 dn ___,0,$E00
 dn C_6,15,$C03
 dn ___,0,$E00
 dn C_6,15,$C07
 dn ___,0,$E00
 dn C_6,15,$C03
 dn ___,0,$E00
 dn C_6,15,$C03
 dn ___,0,$E00
 dn ___,0,$000
 dn ___,0,$000
 dn C_5,15,$C07
 dn ___,0,$E00
 dn C_6,15,$C03
 dn ___,0,$E00
 dn C_6,15,$C03
 dn ___,0,$E00
 dn C_6,15,$C03
 dn ___,0,$E00
 dn C_6,15,$C07
 dn ___,0,$E00
 dn ___,0,$000
 dn C_6,15,$C01
 dn C_6,15,$C03
 dn ___,0,$E00
 dn C_6,15,$C03
 dn ___,0,$E00
 dn C_5,15,$C07
 dn ___,0,$E00
 dn C_6,15,$C03
 dn ___,0,$E00
 dn C_5,15,$C07
 dn ___,0,$E00
 dn C_6,15,$C03
 dn ___,0,$E00
 dn C_6,15,$C07
 dn ___,0,$E00
 dn ___,0,$000
 dn ___,0,$000
 dn C_6,15,$C03
 dn ___,0,$E00
 dn ___,0,$000
 dn ___,0,$000

P110:
 dn G_6,1,$C01
 dn G_6,1,$C03
 dn G_6,1,$C04
 dn G_6,1,$C07
 dn ___,0,$000
 dn ___,0,$000
 dn ___,0,$000
 dn ___,0,$000
 dn ___,0,$000
 dn ___,0,$000
 dn ___,0,$000
 dn ___,0,$000
 dn ___,0,$000
 dn ___,0,$000
 dn ___,0,$000
 dn ___,0,$000
 dn ___,0,$000
 dn ___,0,$000
 dn ___,0,$000
 dn ___,0,$000
 dn ___,0,$000
 dn ___,0,$000
 dn ___,0,$000
 dn ___,0,$000
 dn ___,0,$000
 dn ___,0,$000
 dn ___,0,$000
 dn ___,0,$000
 dn G_6,1,$C04
 dn G_6,1,$C03
 dn G_6,1,$C01
 dn ___,0,$E00
 dn G_6,1,$C07
 dn ___,0,$000
 dn ___,0,$000
 dn ___,0,$000
 dn G_6,1,$C07
 dn ___,0,$000
 dn ___,0,$000
 dn ___,0,$000
 dn G_6,1,$C07
 dn ___,0,$000
 dn ___,0,$000
 dn ___,0,$000
 dn G_6,1,$C07
 dn ___,0,$000
 dn A_6,1,$C07
 dn ___,0,$000
 dn ___,0,$000
 dn ___,0,$000
 dn G_6,1,$C07
 dn ___,0,$000
 dn E_6,1,$C07
 dn ___,0,$000
 dn D_6,1,$C07
 dn ___,0,$000
 dn C_6,1,$C07
 dn ___,0,$000
 dn D_6,1,$C07
 dn ___,0,$000
 dn F_6,1,$C07
 dn ___,0,$000
 dn ___,0,$000
 dn ___,0,$000

P111:
 dn G_5,2,$C07
 dn ___,0,$000
 dn G_5,2,$C03
 dn ___,0,$000
 dn G_5,2,$C01
 dn ___,0,$000
 dn ___,0,$000
 dn ___,0,$000
 dn G_5,2,$C07
 dn ___,0,$000
 dn G_5,2,$C03
 dn ___,0,$000
 dn C_6,2,$C07
 dn ___,0,$000
 dn C_6,2,$C03
 dn ___,0,$000
 dn C_6,2,$C01
 dn ___,0,$000
 dn ___,0,$000
 dn ___,0,$000
 dn ___,0,$000
 dn ___,0,$000
 dn ___,0,$000
 dn ___,0,$000
 dn ___,0,$000
 dn ___,0,$000
 dn ___,0,$000
 dn ___,0,$000
 dn G_5,2,$C07
 dn ___,0,$000
 dn G_5,2,$C03
 dn ___,0,$000
 dn D_6,2,$C07
 dn ___,0,$000
 dn D_6,2,$C03
 dn ___,0,$000
 dn D_6,2,$C01
 dn ___,0,$000
 dn ___,0,$000
 dn ___,0,$000
 dn ___,0,$000
 dn ___,0,$000
 dn ___,0,$000
 dn ___,0,$000
 dn C_6,2,$C07
 dn ___,0,$000
 dn C_6,2,$C03
 dn ___,0,$000
 dn C_6,2,$C01
 dn ___,0,$000
 dn ___,0,$000
 dn ___,0,$000
 dn G_5,2,$C07
 dn ___,0,$000
 dn G_5,2,$C03
 dn ___,0,$000
 dn C_6,2,$C07
 dn ___,0,$000
 dn C_6,2,$C03
 dn ___,0,$000
 dn C_6,2,$C01
 dn ___,0,$000
 dn ___,0,$000
 dn ___,0,$000

P112:
 dn ___,0,$000
 dn ___,0,$000
 dn ___,0,$000
 dn ___,0,$000
 dn ___,0,$000
 dn ___,0,$000
 dn ___,0,$000
 dn ___,0,$000
 dn ___,0,$000
 dn ___,0,$000
 dn ___,0,$000
 dn ___,0,$000
 dn ___,0,$000
 dn ___,0,$000
 dn ___,0,$000
 dn ___,0,$000
 dn ___,0,$000
 dn ___,0,$000
 dn ___,0,$000
 dn ___,0,$000
 dn ___,0,$000
 dn ___,0,$000
 dn ___,0,$000
 dn ___,0,$000
 dn ___,0,$000
 dn ___,0,$000
 dn ___,0,$000
 dn ___,0,$000
 dn ___,0,$000
 dn ___,0,$000
 dn ___,0,$000
 dn ___,0,$000
 dn ___,0,$000
 dn ___,0,$000
 dn ___,0,$000
 dn ___,0,$000
 dn ___,0,$000
 dn ___,0,$000
 dn ___,0,$000
 dn ___,0,$000
 dn ___,0,$000
 dn ___,0,$000
 dn ___,0,$000
 dn ___,0,$000
 dn ___,0,$000
 dn ___,0,$000
 dn ___,0,$000
 dn ___,0,$000
 dn ___,0,$000
 dn ___,0,$000
 dn ___,0,$000
 dn ___,0,$000
 dn ___,0,$000
 dn ___,0,$000
 dn ___,0,$000
 dn ___,0,$000
 dn ___,0,$000
 dn ___,0,$000
 dn ___,0,$000
 dn ___,0,$000
 dn ___,0,$000
 dn ___,0,$000
 dn ___,0,$000
 dn ___,0,$000

P113:
 dn C_5,15,$C07
 dn ___,0,$E00
 dn C_6,15,$C03
 dn ___,0,$E00
 dn C_6,15,$C03
 dn ___,0,$E00
 dn C_6,15,$C03
 dn ___,0,$E00
 dn C_6,15,$C07
 dn ___,0,$E00
 dn ___,0,$000
 dn C_6,15,$C01
 dn C_6,15,$C03
 dn ___,0,$E00
 dn C_6,15,$C03
 dn ___,0,$E00
 dn C_5,15,$C07
 dn ___,0,$E00
 dn C_6,15,$C03
 dn ___,0,$E00
 dn C_5,15,$C07
 dn ___,0,$E00
 dn C_6,15,$C03
 dn ___,0,$E00
 dn C_6,15,$C07
 dn ___,0,$E00
 dn C_6,15,$C03
 dn ___,0,$E00
 dn C_6,15,$C03
 dn ___,0,$E00
 dn ___,0,$000
 dn ___,0,$000
 dn C_5,15,$C07
 dn ___,0,$E00
 dn C_6,15,$C03
 dn ___,0,$E00
 dn C_6,15,$C03
 dn ___,0,$E00
 dn C_6,15,$C03
 dn ___,0,$E00
 dn C_6,15,$C07
 dn ___,0,$E00
 dn ___,0,$000
 dn C_6,15,$C01
 dn C_6,15,$C03
 dn ___,0,$E00
 dn C_6,15,$C03
 dn ___,0,$E00
 dn C_5,15,$C07
 dn ___,0,$E00
 dn C_6,15,$C03
 dn ___,0,$E00
 dn C_5,15,$C07
 dn ___,0,$E00
 dn C_6,15,$C03
 dn ___,0,$E00
 dn C_6,15,$C07
 dn ___,0,$E00
 dn ___,0,$000
 dn ___,0,$000
 dn C_6,15,$C03
 dn ___,0,$E00
 dn ___,0,$000
 dn ___,0,$000

P120:
 dn D_6,1,$C07
 dn ___,0,$000
 dn ___,0,$000
 dn ___,0,$000
 dn C_6,1,$C07
 dn ___,0,$000
 dn ___,0,$000
 dn ___,0,$000
 dn C_6,1,$C07
 dn ___,0,$000
 dn ___,0,$000
 dn ___,0,$000
 dn ___,0,$000
 dn ___,0,$000
 dn ___,0,$000
 dn ___,0,$000
 dn ___,0,$000
 dn ___,0,$000
 dn ___,0,$000
 dn ___,0,$000
 dn C_6,1,$C04
 dn C_6,1,$C03
 dn C_6,1,$C01
 dn ___,0,$E00
 dn A_5,1,$C07
 dn ___,0,$000
 dn ___,0,$000
 dn ___,0,$000
 dn D_6,1,$C07
 dn ___,0,$000
 dn ___,0,$000
 dn ___,0,$000
 dn ___,0,$000
 dn ___,0,$000
 dn ___,0,$000
 dn ___,0,$000
 dn ___,0,$000
 dn ___,0,$000
 dn ___,0,$000
 dn D_6,1,$C07
 dn D_6,1,$C05
 dn D_6,1,$C05
 dn D_6,1,$C05
 dn D_6,1,$C05
 dn D_6,1,$C04
 dn D_6,1,$C04
 dn D_6,1,$C04
 dn D_6,1,$C04
 dn D_6,1,$C03
 dn D_6,1,$C03
 dn D_6,1,$C02
 dn D_6,1,$C01
 dn D_6,1,$C01
 dn D_6,1,$C01
 dn D_6,1,$C01
 dn D_6,1,$C00
 dn D_6,1,$C00
 dn D_6,1,$C00
 dn D_6,1,$C00
 dn ___,0,$E00
 dn ___,0,$000
 dn ___,0,$000
 dn ___,0,$000
 dn ___,0,$000

P121:
 dn G_5,2,$C07
 dn ___,0,$000
 dn G_5,2,$C03
 dn ___,0,$000
 dn G_5,2,$C01
 dn ___,0,$000
 dn ___,0,$000
 dn ___,0,$000
 dn G_5,2,$C07
 dn ___,0,$000
 dn G_5,2,$C03
 dn ___,0,$000
 dn C_6,2,$C07
 dn ___,0,$000
 dn C_6,2,$C03
 dn ___,0,$000
 dn C_6,2,$C01
 dn ___,0,$000
 dn ___,0,$000
 dn ___,0,$000
 dn ___,0,$000
 dn ___,0,$000
 dn ___,0,$000
 dn ___,0,$000
 dn ___,0,$000
 dn ___,0,$000
 dn ___,0,$000
 dn ___,0,$000
 dn G_5,2,$C07
 dn ___,0,$000
 dn G_5,2,$C03
 dn ___,0,$000
 dn D_6,2,$C07
 dn ___,0,$000
 dn D_6,2,$C03
 dn ___,0,$000
 dn D_6,2,$C01
 dn ___,0,$000
 dn ___,0,$000
 dn ___,0,$000
 dn C_6,2,$C07
 dn ___,0,$000
 dn C_6,2,$C03
 dn ___,0,$000
 dn D_6,2,$C07
 dn ___,0,$000
 dn D_6,2,$C03
 dn ___,0,$000
 dn D_6,2,$C01
 dn ___,0,$000
 dn ___,0,$000
 dn ___,0,$000
 dn ___,0,$000
 dn ___,0,$000
 dn ___,0,$000
 dn ___,0,$000
 dn D_6,2,$C07
 dn ___,0,$000
 dn D_6,2,$C03
 dn ___,0,$000
 dn D_6,2,$C01
 dn ___,0,$000
 dn ___,0,$000
 dn ___,0,$000

P122:
 dn ___,0,$000
 dn ___,0,$000
 dn ___,0,$000
 dn ___,0,$000
 dn ___,0,$000
 dn ___,0,$000
 dn ___,0,$000
 dn ___,0,$000
 dn ___,0,$000
 dn ___,0,$000
 dn ___,0,$000
 dn ___,0,$000
 dn ___,0,$000
 dn ___,0,$000
 dn ___,0,$000
 dn ___,0,$000
 dn ___,0,$000
 dn ___,0,$000
 dn ___,0,$000
 dn ___,0,$000
 dn ___,0,$000
 dn ___,0,$000
 dn ___,0,$000
 dn ___,0,$000
 dn ___,0,$000
 dn ___,0,$000
 dn ___,0,$000
 dn ___,0,$000
 dn ___,0,$000
 dn ___,0,$000
 dn ___,0,$000
 dn ___,0,$000
 dn ___,0,$000
 dn ___,0,$000
 dn ___,0,$000
 dn ___,0,$000
 dn ___,0,$000
 dn ___,0,$000
 dn ___,0,$000
 dn ___,0,$000
 dn ___,0,$000
 dn ___,0,$000
 dn ___,0,$000
 dn ___,0,$000
 dn ___,0,$000
 dn ___,0,$000
 dn ___,0,$000
 dn ___,0,$000
 dn ___,0,$000
 dn ___,0,$000
 dn ___,0,$000
 dn ___,0,$000
 dn ___,0,$000
 dn ___,0,$000
 dn ___,0,$000
 dn ___,0,$000
 dn ___,0,$000
 dn ___,0,$000
 dn ___,0,$000
 dn ___,0,$000
 dn ___,0,$000
 dn ___,0,$000
 dn ___,0,$000
 dn ___,0,$000

P123:
 dn C_5,15,$C07
 dn ___,0,$E00
 dn C_6,15,$C03
 dn ___,0,$E00
 dn C_6,15,$C03
 dn ___,0,$E00
 dn C_6,15,$C03
 dn ___,0,$E00
 dn C_6,15,$C07
 dn ___,0,$E00
 dn ___,0,$000
 dn C_6,15,$C01
 dn C_6,15,$C03
 dn ___,0,$E00
 dn C_6,15,$C03
 dn ___,0,$E00
 dn C_5,15,$C07
 dn ___,0,$E00
 dn C_6,15,$C03
 dn ___,0,$E00
 dn C_5,15,$C07
 dn ___,0,$E00
 dn C_6,15,$C03
 dn ___,0,$E00
 dn C_6,15,$C07
 dn ___,0,$E00
 dn C_6,15,$C03
 dn ___,0,$E00
 dn C_6,15,$C03
 dn ___,0,$E00
 dn ___,0,$000
 dn ___,0,$000
 dn C_5,15,$C07
 dn ___,0,$E00
 dn C_6,15,$C03
 dn ___,0,$E00
 dn C_6,15,$C03
 dn ___,0,$E00
 dn C_6,15,$C03
 dn ___,0,$E00
 dn C_6,15,$C07
 dn ___,0,$E00
 dn ___,0,$000
 dn C_6,15,$C01
 dn C_6,15,$C03
 dn ___,0,$E00
 dn C_6,15,$C03
 dn ___,0,$E00
 dn C_5,15,$C07
 dn ___,0,$E00
 dn C_6,15,$C03
 dn ___,0,$E00
 dn C_5,15,$C07
 dn ___,0,$E00
 dn C_6,15,$C03
 dn ___,0,$E00
 dn C_6,15,$C07
 dn ___,0,$E00
 dn ___,0,$000
 dn ___,0,$000
 dn C_6,15,$C03
 dn ___,0,$E00
 dn ___,0,$000
 dn ___,0,$000

P130:
 dn G_6,1,$C03
 dn G_6,1,$C04
 dn G_6,1,$C05
 dn G_6,1,$C07
 dn ___,0,$000
 dn ___,0,$000
 dn ___,0,$000
 dn ___,0,$000
 dn ___,0,$000
 dn ___,0,$000
 dn ___,0,$000
 dn ___,0,$000
 dn ___,0,$000
 dn ___,0,$000
 dn ___,0,$000
 dn ___,0,$000
 dn ___,0,$000
 dn ___,0,$000
 dn ___,0,$000
 dn ___,0,$000
 dn ___,0,$000
 dn ___,0,$000
 dn ___,0,$000
 dn ___,0,$000
 dn A_6,1,$C07
 dn ___,0,$000
 dn ___,0,$000
 dn A_6,1,$C05
 dn A_6,1,$C04
 dn A_6,1,$C01
 dn A_6,1,$C00
 dn ___,0,$E00
 dn G_6,1,$C07
 dn ___,0,$000
 dn ___,0,$000
 dn ___,0,$000
 dn G_6,1,$C07
 dn ___,0,$000
 dn ___,0,$000
 dn ___,0,$000
 dn G_6,1,$C07
 dn ___,0,$000
 dn ___,0,$000
 dn ___,0,$000
 dn G_6,1,$C07
 dn ___,0,$000
 dn A_6,1,$C07
 dn ___,0,$000
 dn ___,0,$000
 dn ___,0,$000
 dn G_6,1,$C07
 dn ___,0,$000
 dn ___,0,$000
 dn ___,0,$000
 dn A_6,1,$C07
 dn ___,0,$000
 dn C_6,1,$C07
 dn ___,0,$000
 dn D_6,1,$C07
 dn ___,0,$000
 dn F_6,1,$C07
 dn ___,0,$000
 dn ___,0,$000
 dn ___,0,$000

P131:
 dn G_5,2,$C07
 dn ___,0,$000
 dn G_5,2,$C03
 dn ___,0,$000
 dn G_5,2,$C01
 dn ___,0,$000
 dn ___,0,$000
 dn ___,0,$000
 dn G_5,2,$C07
 dn ___,0,$000
 dn G_5,2,$C03
 dn ___,0,$000
 dn C_6,2,$C07
 dn ___,0,$000
 dn C_6,2,$C03
 dn ___,0,$000
 dn C_6,2,$C01
 dn ___,0,$000
 dn ___,0,$000
 dn ___,0,$000
 dn ___,0,$000
 dn ___,0,$000
 dn ___,0,$000
 dn ___,0,$000
 dn ___,0,$000
 dn ___,0,$000
 dn ___,0,$000
 dn ___,0,$000
 dn G_5,2,$C07
 dn ___,0,$000
 dn G_5,2,$C03
 dn ___,0,$000
 dn D_6,2,$C07
 dn ___,0,$000
 dn D_6,2,$C03
 dn ___,0,$000
 dn D_6,2,$C01
 dn ___,0,$000
 dn ___,0,$000
 dn ___,0,$000
 dn ___,0,$000
 dn ___,0,$000
 dn ___,0,$000
 dn ___,0,$000
 dn C_6,2,$C07
 dn ___,0,$000
 dn C_6,2,$C03
 dn ___,0,$000
 dn C_6,2,$C01
 dn ___,0,$000
 dn ___,0,$000
 dn ___,0,$000
 dn G_5,2,$C07
 dn ___,0,$000
 dn G_5,2,$C03
 dn ___,0,$000
 dn C_6,2,$C07
 dn ___,0,$000
 dn C_6,2,$C03
 dn ___,0,$000
 dn C_6,2,$C01
 dn ___,0,$000
 dn ___,0,$000
 dn ___,0,$000

P132:
 dn ___,0,$000
 dn ___,0,$000
 dn ___,0,$000
 dn ___,0,$000
 dn ___,0,$000
 dn ___,0,$000
 dn ___,0,$000
 dn ___,0,$000
 dn ___,0,$000
 dn ___,0,$000
 dn ___,0,$000
 dn ___,0,$000
 dn ___,0,$000
 dn ___,0,$000
 dn ___,0,$000
 dn ___,0,$000
 dn ___,0,$000
 dn ___,0,$000
 dn ___,0,$000
 dn ___,0,$000
 dn ___,0,$000
 dn ___,0,$000
 dn ___,0,$000
 dn ___,0,$000
 dn ___,0,$000
 dn ___,0,$000
 dn ___,0,$000
 dn ___,0,$000
 dn ___,0,$000
 dn ___,0,$000
 dn ___,0,$000
 dn ___,0,$000
 dn ___,0,$000
 dn ___,0,$000
 dn ___,0,$000
 dn ___,0,$000
 dn ___,0,$000
 dn ___,0,$000
 dn ___,0,$000
 dn ___,0,$000
 dn ___,0,$000
 dn ___,0,$000
 dn ___,0,$000
 dn ___,0,$000
 dn ___,0,$000
 dn ___,0,$000
 dn ___,0,$000
 dn ___,0,$000
 dn ___,0,$000
 dn ___,0,$000
 dn ___,0,$000
 dn ___,0,$000
 dn ___,0,$000
 dn ___,0,$000
 dn ___,0,$000
 dn ___,0,$000
 dn ___,0,$000
 dn ___,0,$000
 dn ___,0,$000
 dn ___,0,$000
 dn ___,0,$000
 dn ___,0,$000
 dn ___,0,$000
 dn ___,0,$000

P133:
 dn C_5,15,$C07
 dn ___,0,$E00
 dn C_6,15,$C03
 dn ___,0,$E00
 dn C_6,15,$C03
 dn ___,0,$E00
 dn C_6,15,$C03
 dn ___,0,$E00
 dn C_6,15,$C07
 dn ___,0,$E00
 dn ___,0,$000
 dn C_6,15,$C01
 dn C_6,15,$C03
 dn ___,0,$E00
 dn C_6,15,$C03
 dn ___,0,$E00
 dn C_5,15,$C07
 dn ___,0,$E00
 dn C_6,15,$C03
 dn ___,0,$E00
 dn C_5,15,$C07
 dn ___,0,$E00
 dn C_6,15,$C03
 dn ___,0,$E00
 dn C_6,15,$C07
 dn ___,0,$E00
 dn C_6,15,$C03
 dn ___,0,$E00
 dn C_6,15,$C03
 dn ___,0,$E00
 dn ___,0,$000
 dn ___,0,$000
 dn C_5,15,$C07
 dn ___,0,$E00
 dn C_6,15,$C03
 dn ___,0,$E00
 dn C_6,15,$C03
 dn ___,0,$E00
 dn C_6,15,$C03
 dn ___,0,$E00
 dn C_6,15,$C07
 dn ___,0,$E00
 dn ___,0,$000
 dn C_6,15,$C01
 dn C_6,15,$C03
 dn ___,0,$E00
 dn C_6,15,$C03
 dn ___,0,$E00
 dn C_5,15,$C07
 dn ___,0,$E00
 dn C_6,15,$C03
 dn ___,0,$E00
 dn C_5,15,$C07
 dn ___,0,$E00
 dn C_6,15,$C03
 dn ___,0,$E00
 dn C_6,15,$C07
 dn ___,0,$E00
 dn ___,0,$000
 dn ___,0,$000
 dn C_6,15,$C03
 dn ___,0,$E00
 dn ___,0,$000
 dn ___,0,$000

P140:
 dn D_6,1,$C07
 dn ___,0,$000
 dn ___,0,$000
 dn ___,0,$000
 dn D_6,1,$C07
 dn ___,0,$000
 dn ___,0,$000
 dn ___,0,$000
 dn C_6,1,$C07
 dn ___,0,$000
 dn ___,0,$000
 dn ___,0,$000
 dn ___,0,$000
 dn ___,0,$000
 dn ___,0,$000
 dn ___,0,$000
 dn ___,0,$000
 dn ___,0,$000
 dn C_6,1,$C07
 dn C_6,1,$C05
 dn C_6,1,$C04
 dn C_6,1,$C01
 dn C_6,1,$C00
 dn ___,0,$E00
 dn ___,0,$000
 dn ___,0,$000
 dn ___,0,$000
 dn ___,0,$000
 dn A_5,1,$C07
 dn ___,0,$000
 dn ___,0,$000
 dn ___,0,$000
 dn D_6,1,$C07
 dn ___,0,$000
 dn ___,0,$000
 dn ___,0,$000
 dn D_6,1,$C07
 dn ___,0,$000
 dn ___,0,$000
 dn ___,0,$000
 dn C_6,1,$C07
 dn ___,0,$000
 dn ___,0,$000
 dn ___,0,$000
 dn D_6,1,$C07
 dn ___,0,$000
 dn ___,0,$000
 dn D_6,1,$C07
 dn D_6,1,$C05
 dn D_6,1,$C04
 dn D_6,1,$C01
 dn D_6,1,$C00
 dn ___,0,$E00
 dn ___,0,$000
 dn ___,0,$000
 dn ___,0,$000
 dn ___,0,$000
 dn ___,0,$000
 dn ___,0,$000
 dn ___,0,$000
 dn ___,0,$000
 dn ___,0,$000
 dn ___,0,$000
 dn ___,0,$000

P141:
 dn G_5,2,$C07
 dn ___,0,$000
 dn G_5,2,$C03
 dn ___,0,$000
 dn G_5,2,$C01
 dn ___,0,$000
 dn ___,0,$000
 dn ___,0,$000
 dn G_5,2,$C07
 dn ___,0,$000
 dn G_5,2,$C03
 dn ___,0,$000
 dn C_6,2,$C07
 dn ___,0,$000
 dn C_6,2,$C03
 dn ___,0,$000
 dn C_6,2,$C01
 dn ___,0,$000
 dn ___,0,$000
 dn ___,0,$000
 dn ___,0,$000
 dn ___,0,$000
 dn ___,0,$000
 dn ___,0,$000
 dn ___,0,$000
 dn ___,0,$000
 dn ___,0,$000
 dn ___,0,$000
 dn G_5,2,$C07
 dn ___,0,$000
 dn G_5,2,$C03
 dn ___,0,$000
 dn D_6,2,$C07
 dn ___,0,$000
 dn D_6,2,$C03
 dn ___,0,$000
 dn D_6,2,$C01
 dn ___,0,$000
 dn ___,0,$000
 dn ___,0,$000
 dn C_6,2,$C07
 dn ___,0,$000
 dn C_6,2,$C03
 dn ___,0,$000
 dn D_6,2,$C07
 dn ___,0,$000
 dn D_6,2,$C03
 dn ___,0,$000
 dn D_6,2,$C01
 dn ___,0,$000
 dn ___,0,$000
 dn ___,0,$000
 dn ___,0,$000
 dn ___,0,$000
 dn ___,0,$000
 dn ___,0,$000
 dn D_6,2,$C07
 dn ___,0,$000
 dn D_6,2,$C03
 dn ___,0,$000
 dn D_6,2,$C01
 dn ___,0,$000
 dn ___,0,$000
 dn ___,0,$000

P142:
 dn ___,0,$000
 dn ___,0,$000
 dn ___,0,$000
 dn ___,0,$000
 dn ___,0,$000
 dn ___,0,$000
 dn ___,0,$000
 dn ___,0,$000
 dn ___,0,$000
 dn ___,0,$000
 dn ___,0,$000
 dn ___,0,$000
 dn ___,0,$000
 dn ___,0,$000
 dn ___,0,$000
 dn ___,0,$000
 dn ___,0,$000
 dn ___,0,$000
 dn ___,0,$000
 dn ___,0,$000
 dn ___,0,$000
 dn ___,0,$000
 dn ___,0,$000
 dn ___,0,$000
 dn ___,0,$000
 dn ___,0,$000
 dn ___,0,$000
 dn ___,0,$000
 dn ___,0,$000
 dn ___,0,$000
 dn ___,0,$000
 dn ___,0,$000
 dn ___,0,$000
 dn ___,0,$000
 dn ___,0,$000
 dn ___,0,$000
 dn ___,0,$000
 dn ___,0,$000
 dn ___,0,$000
 dn ___,0,$000
 dn ___,0,$000
 dn ___,0,$000
 dn ___,0,$000
 dn ___,0,$000
 dn ___,0,$000
 dn ___,0,$000
 dn ___,0,$000
 dn ___,0,$000
 dn ___,0,$000
 dn ___,0,$000
 dn ___,0,$000
 dn ___,0,$000
 dn ___,0,$000
 dn ___,0,$000
 dn ___,0,$000
 dn ___,0,$000
 dn ___,0,$000
 dn ___,0,$000
 dn ___,0,$000
 dn ___,0,$000
 dn ___,0,$000
 dn ___,0,$000
 dn ___,0,$000
 dn ___,0,$000

P143:
 dn C_5,15,$C07
 dn ___,0,$E00
 dn C_6,15,$C03
 dn ___,0,$E00
 dn C_6,15,$C03
 dn ___,0,$E00
 dn C_6,15,$C03
 dn ___,0,$E00
 dn C_6,15,$C07
 dn ___,0,$E00
 dn ___,0,$000
 dn C_6,15,$C01
 dn C_6,15,$C03
 dn ___,0,$E00
 dn C_6,15,$C03
 dn ___,0,$E00
 dn C_5,15,$C07
 dn ___,0,$E00
 dn C_6,15,$C03
 dn ___,0,$E00
 dn C_5,15,$C07
 dn ___,0,$E00
 dn C_6,15,$C03
 dn ___,0,$E00
 dn C_6,15,$C07
 dn ___,0,$E00
 dn C_6,15,$C03
 dn ___,0,$E00
 dn C_6,15,$C03
 dn ___,0,$E00
 dn ___,0,$000
 dn ___,0,$000
 dn C_5,15,$C07
 dn ___,0,$E00
 dn C_6,15,$C03
 dn ___,0,$E00
 dn C_6,15,$C03
 dn ___,0,$E00
 dn C_6,15,$C03
 dn ___,0,$E00
 dn C_6,15,$C07
 dn ___,0,$E00
 dn ___,0,$000
 dn C_6,15,$C01
 dn C_6,15,$C03
 dn ___,0,$E00
 dn C_6,15,$C03
 dn ___,0,$E00
 dn C_5,15,$C07
 dn ___,0,$E00
 dn C_6,15,$C03
 dn ___,0,$E00
 dn C_5,15,$C07
 dn ___,0,$E00
 dn C_6,15,$C03
 dn ___,0,$E00
 dn C_6,15,$C07
 dn ___,0,$E00
 dn ___,0,$000
 dn ___,0,$000
 dn C_6,15,$C03
 dn ___,0,$E00
 dn ___,0,$000
 dn ___,0,$000

duty_instruments:
itSquareinst1: db 8,64,240,128
itSquareinst2: db 8,128,240,128
itSquareinst3: db 8,192,240,128
itSquareinst4: db 8,0,240,128
itSquareinst5: db 8,128,240,128
itSquareinst6: db 8,128,240,128
itSquareinst7: db 8,128,240,128
itSquareinst8: db 8,128,240,128
itSquareinst9: db 8,128,240,128
itSquareinst10: db 8,128,240,128
itSquareinst11: db 8,128,240,128
itSquareinst12: db 8,128,240,128
itSquareinst13: db 8,128,240,128
itSquareinst14: db 8,128,240,128
itSquareinst15: db 8,128,240,128


wave_instruments:
itWaveinst1: db 0,32,0,128
itWaveinst2: db 0,32,1,128
itWaveinst3: db 0,32,2,128
itWaveinst4: db 0,32,3,128
itWaveinst5: db 0,32,4,128
itWaveinst6: db 0,32,5,128
itWaveinst7: db 0,32,6,128
itWaveinst8: db 0,32,0,128
itWaveinst9: db 0,32,1,128
itWaveinst10: db 0,32,2,128
itWaveinst11: db 0,32,3,128
itWaveinst12: db 0,32,4,128
itWaveinst13: db 0,32,5,128
itWaveinst14: db 0,32,6,128
itWaveinst15: db 0,32,7,128


noise_instruments:
itNoiseinst1: db 240,0,0,0,0,0,0,0
itNoiseinst2: db 240,0,0,0,0,0,0,0
itNoiseinst3: db 240,0,0,0,0,0,0,0
itNoiseinst4: db 240,0,0,0,0,0,0,0
itNoiseinst5: db 240,0,0,0,0,0,0,0
itNoiseinst6: db 240,0,0,0,0,0,0,0
itNoiseinst7: db 240,0,0,0,0,0,0,0
itNoiseinst8: db 240,0,0,0,0,0,0,0
itNoiseinst9: db 240,0,0,0,0,0,0,0
itNoiseinst10: db 240,0,0,0,0,0,0,0
itNoiseinst11: db 240,0,0,0,0,0,0,0
itNoiseinst12: db 240,0,0,0,0,0,0,0
itNoiseinst13: db 240,0,0,0,0,0,0,0
itNoiseinst14: db 240,0,0,0,0,0,0,0
itNoiseinst15: db 240,0,0,0,0,0,0,0


routines:
__hUGE_Routine_0:

__end_hUGE_Routine_0:
ret

__hUGE_Routine_1:

__end_hUGE_Routine_1:
ret

__hUGE_Routine_2:

__end_hUGE_Routine_2:
ret

__hUGE_Routine_3:

__end_hUGE_Routine_3:
ret

__hUGE_Routine_4:

__end_hUGE_Routine_4:
ret

__hUGE_Routine_5:

__end_hUGE_Routine_5:
ret

__hUGE_Routine_6:

__end_hUGE_Routine_6:
ret

__hUGE_Routine_7:

__end_hUGE_Routine_7:
ret

__hUGE_Routine_8:

__end_hUGE_Routine_8:
ret

__hUGE_Routine_9:

__end_hUGE_Routine_9:
ret

__hUGE_Routine_10:

__end_hUGE_Routine_10:
ret

__hUGE_Routine_11:

__end_hUGE_Routine_11:
ret

__hUGE_Routine_12:

__end_hUGE_Routine_12:
ret

__hUGE_Routine_13:

__end_hUGE_Routine_13:
ret

__hUGE_Routine_14:

__end_hUGE_Routine_14:
ret

__hUGE_Routine_15:

__end_hUGE_Routine_15:
ret

waves:
wave0: db 165,215,201,225,188,154,118,49,12,186,222,96,27,202,3,147
wave1: db 240,225,210,195,180,165,150,135,120,105,90,75,60,45,30,15
wave2: db 253,236,219,202,185,168,151,134,121,104,87,70,53,36,19,2
wave3: db 222,254,220,186,154,169,135,119,136,135,101,86,84,50,16,18
wave4: db 171,205,239,237,203,160,18,62,220,186,188,222,254,220,50,16
wave5: db 255,238,221,204,187,170,153,136,119,102,85,68,51,34,17,0
wave6: db 255,255,255,255,255,255,255,255,0,0,0,0,0,0,0,0
wave7: db 121,188,222,239,255,238,220,185,117,67,33,16,0,17,35,69
wave8: db 67,237,14,172,208,77,117,135,216,81,124,137,134,190,173,17
wave9: db 16,225,164,19,96,182,8,74,90,185,51,73,171,37,99,209
wave10: db 68,33,130,37,99,173,40,43,99,4,90,135,71,164,59,7
wave11: db 228,208,66,64,65,167,50,157,48,170,38,93,29,152,80,195
wave12: db 85,86,229,118,202,114,120,229,26,151,213,142,8,62,219,156
wave13: db 10,34,49,25,135,199,193,3,26,210,177,119,21,12,156,182
wave14: db 146,19,4,200,193,50,62,115,44,128,34,69,119,199,24,110
wave15: db 49,215,67,16,117,204,235,192,70,30,119,134,8,81,96,71

